<svg width="100" height="100" fill="none" xmlns="http://www.w3.org/2000/svg"><circle cx="50.09" cy="49.57" r="49.57" fill="#022C55"/><path d="M64.124 42.262c-.119 0-.236 0-.353.003h-17.37l-2.723-8.78h-8.573l-2.683 8.78h-8.644v3.29h7.639l-5.138 16.81h-2.501v3.29h52.624v-3.29H64.166c1.155-.398 2.146-1.062 2.892-1.973h.12l.363 1.97v-.001h5.508c-.2-1.085-.281-2.894-.281-4.784v-6.833c0-1.941-.37-3.747-1.282-5.19h4.916v-3.289H64.445a15.425 15.425 0 00-.321-.003zm-25.033-3.893h.086c.297 1.188.636 2.581.986 3.896h-1.972c.31-1.307.604-2.714.9-3.896zm2.017 7.185l1.327 4.517h-6.388l1.264-4.517h3.797zm-6.003 9.402h8.274l2.226 7.41H33.05l2.056-7.41zm31.713.251c0 .364-.04.725-.12 1.046-.402 1.247-1.648 2.252-3.178 2.252-1.366 0-2.41-.765-2.41-2.332 0-2.373 2.493-3.135 5.708-3.095v2.13zm-9.206-7.275c1.286-.804 3.417-1.487 5.426-1.487 3.015 0 3.579 1.487 3.579 2.533v.281c-6.956-.041-11.538 2.413-11.538 7.517 0 2.404 1.397 4.666 3.843 5.59h-6.29L47.42 45.554h9.512l.68 2.378z" fill="url(#paint0_linear)" fill-opacity=".8"/><defs><linearGradient id="paint0_linear" x1="38.178" y1="33.485" x2="64.526" y2="72.84" gradientUnits="userSpaceOnUse"><stop stop-color="#369"/><stop offset="1" stop-color="#0F87FF"/></linearGradient></defs></svg>