<svg width="100" height="100" fill="none" xmlns="http://www.w3.org/2000/svg"><circle cx="49.894" cy="49.937" r="49.57" fill="#022C55"/><path d="M75.742 33.047c-.287-.123-.575-.041-.78.164-.247.165-4.028 5.014-11.22 5.014h-.657c1.685-4.274 1.028-9.699.986-9.945-.04-.493-.575-.74-.986-.575-.205.082-4.849 2.095-7.767 5.383-1.15-3.288-2.712-6.452-4.849-9.205-.123-.165-.37-.247-.575-.247-.206 0-.452.082-.575.288-2.137 2.753-3.699 5.918-4.85 9.205-2.876-3.329-7.52-5.301-7.766-5.424-.452-.206-.946.123-.987.575-.04.246-.698 5.67.987 9.945h-.658c-4.027 0-7.849-1.644-10.684-4.48l-.535-.534c-.452-.452-1.232-.123-1.232.493v40.56c0 1.069.863 1.932 1.972 1.973h1.644c1.068 0 1.931-.863 1.973-1.973V54.087c2.465 1.931 5.506 2.959 8.67 2.959.247-.082 7.192.74 12.041-5.466 4.767 6.123 11.876 5.384 12.082 5.466 7.849 0 14.177-6.37 14.218-14.219v-9.123a.703.703 0 00-.452-.657zm-13.027-3.575c.124 1.849.165 5.958-1.274 8.917a15.856 15.856 0 00-5.219 1.685c.124-1.808.042-3.41-.41-5.26 1.89-2.63 5.3-4.52 6.903-5.342zm-12.821-3.863c1.397 2.096 4.931 7.808 4.931 12.903 0 .822-.04 1.644-.123 2.425-.616.41-.986.74-4.11 3.04v-2.341l2.014-1.028c.37-.164.493-.616.329-.986-.164-.37-.617-.493-.986-.329l-1.356.699v-2.055l2.013-1.027c.37-.165.493-.617.329-.987-.164-.37-.617-.493-.986-.328l-1.356.78v-1.684l1.356-1.028c.287-.246.329-.698.04-1.027-.246-.247-.616-.329-.903-.123l-.452.37V31.32a.737.737 0 00-.74-.74.737.737 0 00-.74.74v1.561l-.452-.37a.762.762 0 00-1.027.124.762.762 0 00.123 1.027l1.356 1.028v1.684l-1.315-.698a.75.75 0 00-.986.329c-.206.37-.041.78.329.986l2.013 1.027v2.055l-1.356-.74a.75.75 0 00-.986.329c-.206.37-.041.78.329.986l2.013 1.028v2.342c-3.123-2.301-3.41-2.589-4.11-3.041a23.975 23.975 0 01-.122-2.425c0-5.136 3.534-10.848 4.931-12.944zm-12.821 3.863c1.643.822 5.013 2.712 6.944 5.342-.452 1.808-.534 3.41-.41 5.26a18.042 18.042 0 00-5.22-1.685c-1.479-2.959-1.438-7.068-1.314-8.917zm-9.37 44.792c0 .288-.247.493-.534.535h-1.644c-.288 0-.493-.247-.534-.535v-25.19c.534 1.068 1.52 2.589 2.671 3.74l.041 21.45zm47.053-31.437c0 7.027-5.712 12.74-12.78 12.78-.288-.082-7.192.781-11.507-5.63a.73.73 0 00-1.191 0c-4.233 6.288-11.301 5.548-11.466 5.63-7.027 0-12.78-5.753-12.78-12.78V35.43c3 2.712 6.945 4.233 11.013 4.233 5.959 0 8.918 2.918 13.438 6.329.247.164.534.205.863 0 3.41-2.22 6.616-6.329 13.397-6.329 4.068 0 7.972-1.52 11.013-4.233v7.397z" fill="url(#paint0_linear)"/><path d="M46.935 47.43l-3.534-2.63a12.313 12.313 0 00-7.397-2.466c-2.507 0-5.013-.493-7.315-1.48a.708.708 0 00-.986.658v1.315c0 5.59 4.52 10.068 10.11 10.11.287-.083 5.835.698 9.287-4.48l.04-.04c.165-.33.124-.74-.205-.987zm-9.123 4.068c-4.767 0-8.63-3.863-8.67-8.67v-.247c2.218.78 4.56 1.191 6.903 1.191s4.644.781 6.534 2.178l2.96 2.22c-3.083 3.862-7.439 3.246-7.727 3.328z" fill="url(#paint1_linear)"/><path d="M56.388 44.8l-3.535 2.63c-.287.205-.41.616-.123 1.027 3.452 5.137 8.835 4.48 9.287 4.48 5.59 0 10.068-4.521 10.11-10.11v-1.315a.703.703 0 00-.987-.657 18.767 18.767 0 01-7.314 1.479c-2.713 0-5.302.863-7.438 2.466zm14.26-1.973c0 4.767-3.864 8.63-8.672 8.671-.287-.041-4.684.575-7.725-3.287l2.958-2.22c1.932-1.438 4.192-2.219 6.534-2.219 2.343 0 4.685-.41 6.904-1.191v.246z" fill="url(#paint2_linear)"/><defs><linearGradient id="paint0_linear" x1="49.894" y1="23.636" x2="49.894" y2="76.237" gradientUnits="userSpaceOnUse"><stop stop-color="#0F87FF"/><stop offset="1" stop-color="#369"/></linearGradient><linearGradient id="paint1_linear" x1="37.469" y1="40.797" x2="37.469" y2="52.937" gradientUnits="userSpaceOnUse"><stop stop-color="#0F87FF"/><stop offset="1" stop-color="#369"/></linearGradient><linearGradient id="paint2_linear" x1="62.346" y1="40.793" x2="62.346" y2="52.964" gradientUnits="userSpaceOnUse"><stop stop-color="#0F87FF"/><stop offset="1" stop-color="#369"/></linearGradient></defs></svg>