<svg width="103" height="100" fill="none" xmlns="http://www.w3.org/2000/svg"><circle cx="50.225" cy="49.937" r="49.57" fill="#022C55"/><path d="M37.945 56.504h-9.18l-1.53 3.87h-5.49l9.06-21h5.49l8.85 21h-5.7l-1.5-3.87zm-1.56-4.05l-3-7.77-3.06 7.77h6.06zm16.036 3.45h8.91v4.47H47.08v-21h5.34v16.53zm16.787 0h8.91v4.47h-14.25v-21h5.34v16.53z" fill="url(#paint0_linear)"/><path d="M12.71 81.306c-.061-.055-.042-.118-.03-.147-.051-.166.018-.542.088-.995l.404-1.87c.457-1.546 1.046-3.49 1.707-5.489l.327-.985c1.21-3.661 2.563-7.355 3.329-8.626a.723.723 0 01.695-.255c.185.087.268.32.115.54-.725 1.226-2.189 5.337-3.523 9.37-.66 2-1.28 3.957-1.646 5.465.939-1.472 3.75-4.823 5.02-5.125.268-.08.584-.076.749.07l.111.062c.453.322.424.975.19 1.683-.153.462-.387.93-.632 1.348l-.376.58c1.586-.856 4.502-3.235 5.892-4.624.409-.433-.09.596-.5 1.109-1.643 2-4.211 4.051-6.927 5.177l-.246.1-.132.079c-.523.293-2.274.92-2.797.73l-.05-.006-.194.344-.468.937c-.041.203-.153.382-.214.487-.03.012-.081.086-.152.143-.03.012-.215.168-.472.137-.168-.066-.279-.207-.269-.24zm3.079-2.71c1.413-.573 3.06-2.332 3.537-3.779.143-.43.15-.7.029-.812l-.05-.087-.061.025c-1.156.76-2.363 2.316-4.364 4.832l.05.007c.261-.001.549-.062.859-.187z" fill="#fff" stroke="#fff" stroke-width=".5"/><path d="M28.963 71.502c-.008.35-.13.8-.376 1.297-.784 1.65-2.298 2.93-3.68 3.41-1.117.398-1.57-.243-1.439-1.043.213-1.205 1.5-3.005 2.287-3.54.06-.025.102-.066.162-.091.265-.481.593-.906 1.197-1.125.789-.213 1.332-.084 1.61.282a25.51 25.51 0 002.232-.798c1.444-.585 2.683-1.192 2.96-1.304.9-.391.553.097-.265.64-.756.522-2.845 1.608-4.688 2.272zm-4.39 3.136c-.141.832.084 1.033.678.766 1.373-.608 2.627-2.637 2.502-3.546-.665.162-1.19.216-1.527.11l-.082.087c-.5.47-1.44 1.783-1.572 2.583z" fill="#fff" stroke="#fff" stroke-width=".5"/><path d="M33.42 70.897c-.002-.318.07-.694.203-1.093a5.857 5.857 0 01.817-1.584c.255-.37.532-.72.838-.927.267-.16.554-.143.708.033.164.147.042.357-.144.51-.52.452-1.093 1.456-1.358 2.256-.184.555-.223.998.043 1.075.976.351 4.11-3.742 4.724-4.95.234-.468 1.127-.35.913.138-.101.229-.296.733-.479 1.287-.12.689-.15 1.34.68 1.085 2.15-.951 4.533-3.328 5.882-4.754.4-.482.063.455-.5 1.188-.93 1.202-3.047 3.499-5.125 4.233-1.199.483-1.907.132-2.002-.71-.91 1.141-2.155 2.58-3.417 3.09-1.012.412-1.793.033-1.783-.877z" fill="#fff" stroke="#fff" stroke-width=".5"/><path d="M44.894 66.9c.577-1.75 1.145-3.388 1.564-4.576a272.62 272.62 0 011.844-5.108c-2.567 1.221-4.975 2.352-7.52 3.749-.603.32-.975-.207-.424-.534 2.267-1.256 4.482-2.362 8.283-4.161a749.831 749.831 0 012.573-6.76c.13-.47 1.243-.766 1.135-.199-.709 1.592-1.666 4.016-2.563 6.415.271-.11.581-.26.893-.414 2.618-1.215 6.137-2.875 9.086-4.068 1.716-.695 3.25-1.238 4.254-1.434.23.011.433.188.494.323a.666.666 0 01-.47.478c-1.264.277-2.917.87-4.725 1.6-3.22 1.302-6.839 3.028-9.188 4.134-.251.13-.47.242-.711.34l-1.885 5.149c-.669 1.94-1.693 4.81-2.6 7.552-1.017 3.075-1.872 5.98-1.95 7.239-.14.657-.864.402-.864-.145.016-.917 1.441-5.543 2.774-9.58z" fill="#fff" stroke="#fff" stroke-width=".5"/><path d="M49.716 63.129c.317-.954.816-1.983 1.327-2.642.081-.166.398-.322.736-.379.297-.012.4.157.319.325-.328.345-2.09 4.072-1.763 4.287.185.086.462.054.8-.082 1.906-.77 5.975-4.55 7.203-5.847.162-.172.408-.111-.184.714-.942 1.313-4.539 4.876-6.688 5.827-.78.341-1.548.493-1.918.082-.3-.309-.168-1.269.168-2.285zm2.61-5.482c.092-.117.512-.819.624-.997l.214-.488c.06-.184.419-.382.685-.384.368-.07.532.077.42.255-.04.124-.112.338-.265.561-.112.178-.582.956-.724 1.147-.133.16-.503.31-.729.268-.327.025-.42-.176-.225-.362z" fill="#fff" stroke="#fff" stroke-width=".5"/><path d="M65.153 62.64a105.817 105.817 0 00-3.594 1.533 94.2 94.2 0 00-1.555 4.389 86.185 86.185 0 00-1.067 3.47c.01.21-.287.383-.5.389-.256-.03-.094-.364-.083-.553a100.949 100.949 0 011.8-6.007l.394-1.201a127.56 127.56 0 00-3.746 1.836c-.247.099-.502.07-.546-.128-.124-.19-.052-.405.204-.535a55.406 55.406 0 014.414-2.161c.62-1.797 1.314-3.65 2.065-5.529-1.441 1.542-3.71 3.902-5.116 4.284-.644.18-1.24-.03-1.477-.521a1.133 1.133 0 01-.003-.88c.153-.542.664-1.202 1.286-1.8a10.256 10.256 0 013.134-1.987 8.507 8.507 0 012.468-.626l.91-1.14c.37-.47.871-.38.832.064-.028.41-.326.985-.772 2.1a136.079 136.079 0 00-2.27 5.583c1.299-.553 2.651-1.1 4.065-1.673 1.003-.379 1.026.358.328.613l-1.17.48zm-2.739-5.078l.112-.099-.317.076a7.986 7.986 0 00-1.076.356 9.46 9.46 0 00-2.793 1.77c-.737.698-1.43 1.672-.927 2.001 1.025.12 3.528-2.546 5.001-4.104zm4.581-.254c-.002-.319.07-.695.203-1.094a5.857 5.857 0 01.817-1.584c.254-.37.531-.723.838-.927.267-.16.554-.143.708.033.164.147.042.357-.144.51-.52.452-1.093 1.456-1.358 2.256-.184.555-.223.998.043 1.075.976.352 4.11-3.742 4.724-4.95.234-.468 1.127-.35.913.138-.102.226-.296.733-.48 1.288-.12.688-.148 1.341.68 1.084 2.15-.95 4.534-3.327 5.883-4.754.4-.481.063.456-.5 1.188-.93 1.205-3.047 3.499-5.125 4.233-1.199.484-1.907.132-2.002-.71-.91 1.142-2.156 2.578-3.417 3.09-1.01.41-1.79.032-1.783-.876z" fill="#fff" stroke="#fff" stroke-width=".5"/><path d="M79.23 50.97c.692-1.614 2.092-3.034 3.384-3.556.307-.124.573-.206.84-.206.36.041.535.236.443.593-.274 1.07-2.073 2.892-3.753 3.465-.437 1.562.793 1.624 2.268 1.029 3.934-1.591 13.847-8.805 14.889-9.786.196-.185.482-.248.34.022-.94 1.794-9.76 8.108-14.654 10.198-2.54 1.082-5.011 1.226-3.758-1.76zm1.238-.529c.593-.027 2.21-1.614 2.545-2.311-1.238.37-2.168 1.492-2.545 2.311z" fill="#fff" stroke="#fff" stroke-width=".5"/><defs><linearGradient id="paint0_linear" x1="50.225" y1="36.373" x2="50.225" y2="59.161" gradientUnits="userSpaceOnUse"><stop stop-color="#369"/><stop offset="1" stop-color="#0F87FF"/></linearGradient></defs></svg>