<svg width="101" height="100" fill="none" xmlns="http://www.w3.org/2000/svg"><circle cx="50.496" cy="49.57" r="49.57" fill="#022C55"/><path d="M69.996 28.07a1.47 1.47 0 00-.671.162l-11.367 5.82-12.853-5.85c-.021-.009-.045-.01-.068-.02a1.492 1.492 0 00-.177-.055 1.52 1.52 0 00-.181-.038 2.171 2.171 0 00-.366 0 1.52 1.52 0 00-.182.038c-.06.015-.119.033-.177.056-.022.009-.046.01-.067.02l-13.5 6.142a1.537 1.537 0 00-.89 1.404v33.785c0 .52.256 1.004.682 1.287a1.47 1.47 0 001.426.117l12.89-5.867 12.892 5.867c.022.009.046 0 .069.014a1.3 1.3 0 001.135-.026c.024-.011.051 0 .075-.017l12-6.143c.508-.26.83-.793.83-1.375V29.606c0-.848-.671-1.536-1.5-1.536zm-27 34.323l-10.5 4.778V36.747l10.5-4.777v30.423zm13.5 4.778l-10.5-4.778V31.97l10.5 4.778v30.424zm12-4.729l-9 4.607V36.698l9-4.607v30.351z" fill="url(#paint0_linear)"/><defs><linearGradient id="paint0_linear" x1="50.496" y1="28.07" x2="50.496" y2="71.07" gradientUnits="userSpaceOnUse"><stop stop-color="#369"/><stop offset="1" stop-color="#0F87FF"/></linearGradient></defs></svg>