<svg width="115" height="114" fill="none" xmlns="http://www.w3.org/2000/svg"><circle cx="56.828" cy="57.093" r="56.593" fill="#369"/><path d="M7.744 83.183c-.071-.065-.048-.14-.035-.174-.06-.196.022-.64.104-1.175l.478-2.21c.54-1.827 1.237-4.125 2.018-6.487l.386-1.165c1.43-4.327 3.03-8.692 3.934-10.195.168-.225.531-.372.822-.3.219.102.317.377.136.637-.857 1.45-2.587 6.308-4.164 11.073-.78 2.365-1.513 4.678-1.945 6.46 1.11-1.74 4.431-5.7 5.933-6.057.316-.094.69-.09.885.084l.131.072c.535.381.502 1.153.224 1.99-.18.546-.457 1.1-.747 1.593l-.444.684c1.875-1.011 5.32-3.823 6.963-5.464.484-.512-.106.704-.59 1.31-1.942 2.364-4.978 4.788-8.187 6.12l-.29.116-.157.094c-.618.346-2.688 1.087-3.305.864l-.06-.008-.229.407-.553 1.106c-.048.242-.18.452-.253.576-.036.015-.096.102-.18.17-.035.014-.254.199-.557.161-.198-.078-.33-.245-.318-.282zm3.64-3.204c1.67-.676 3.616-2.755 4.18-4.464.169-.509.178-.829.034-.96l-.06-.103-.071.03c-1.366.899-2.793 2.737-5.157 5.71l.06.008a2.754 2.754 0 001.013-.22z" fill="#fff" stroke="#fff" stroke-width=".5"/><path d="M26.953 71.596c-.01.414-.155.945-.444 1.533-.927 1.95-2.716 3.464-4.35 4.03-1.32.471-1.854-.287-1.7-1.233.252-1.424 1.773-3.552 2.702-4.183.072-.03.12-.079.192-.108.313-.569.701-1.07 1.414-1.33.933-.25 1.574-.1 1.903.334a30.068 30.068 0 002.639-.943c1.706-.691 3.17-1.41 3.497-1.541 1.065-.463.653.114-.313.757-.894.616-3.363 1.899-5.54 2.684zm-5.19 3.707c-.166.983.1 1.22.802.905 1.623-.719 3.105-3.117 2.957-4.19-.785.19-1.405.254-1.804.13l-.097.101c-.59.557-1.703 2.109-1.857 3.054z" fill="#fff" stroke="#fff" stroke-width=".5"/><path d="M32.22 70.882c-.001-.377.083-.821.24-1.293a6.96 6.96 0 01.966-1.872c.3-.436.629-.851.991-1.095.316-.189.654-.17.836.039.194.173.05.421-.17.603-.615.534-1.291 1.72-1.605 2.666-.217.656-.263 1.179.051 1.27 1.153.416 4.858-4.422 5.583-5.85.277-.553 1.331-.413 1.079.163-.12.27-.35.866-.566 1.522-.143.813-.178 1.582.803 1.281 2.54-1.123 5.358-3.932 6.952-5.618.472-.569.074.538-.59 1.405-1.1 1.42-3.602 4.134-6.058 5.002-1.416.571-2.254.156-2.366-.839-1.076 1.349-2.547 3.05-4.038 3.652-1.196.487-2.119.038-2.107-1.036z" fill="#fff" stroke="#fff" stroke-width=".5"/><path d="M45.78 66.157a290.549 290.549 0 011.85-5.408 321.986 321.986 0 012.179-6.037c-3.034 1.444-5.88 2.78-8.888 4.43-.712.38-1.152-.243-.5-.63 2.678-1.485 5.296-2.792 9.788-4.918a890.535 890.535 0 013.041-7.99c.155-.554 1.469-.904 1.342-.234-.838 1.882-1.97 4.746-3.03 7.582.321-.13.688-.308 1.056-.49 3.094-1.436 7.253-3.398 10.739-4.808 2.027-.821 3.84-1.463 5.027-1.695a.738.738 0 01.583.382c-.059.272-.285.486-.554.565-1.495.328-3.449 1.028-5.585 1.89-3.806 1.54-8.082 3.58-10.859 4.887-.297.153-.555.286-.84.401L48.9 60.169c-.79 2.294-2 5.686-3.073 8.926-1.2 3.635-2.212 7.067-2.305 8.555-.164.777-1.02.475-1.02-.171.019-1.084 1.703-6.55 3.278-11.322z" fill="#fff" stroke="#fff" stroke-width=".5"/><path d="M51.48 61.7c.374-1.127.964-2.343 1.568-3.122.096-.196.471-.38.87-.447.35-.015.472.185.377.384-.388.407-2.47 4.813-2.084 5.066.22.102.546.064.945-.097 2.253-.91 7.063-5.378 8.513-6.91.193-.203.483-.132-.217.844-1.113 1.552-5.364 5.763-7.904 6.887-.922.403-1.83.582-2.267.096-.354-.365-.199-1.499.199-2.7zm3.085-6.478c.108-.139.604-.968.737-1.179l.252-.576c.073-.218.496-.451.81-.454.435-.082.63.091.497.302a2.51 2.51 0 01-.313.663c-.133.21-.689 1.13-.857 1.355-.156.188-.594.366-.86.316-.388.03-.498-.208-.266-.427z" fill="#fff" stroke="#fff" stroke-width=".5"/><path d="M69.724 61.123a124.938 124.938 0 00-4.247 1.812 111.515 111.515 0 00-1.839 5.186c-.467 1.42-.889 2.787-1.26 4.102.011.248-.34.452-.592.459-.303-.035-.11-.43-.098-.653.602-2.29 1.322-4.663 2.127-7.1l.467-1.42a150.558 150.558 0 00-4.428 2.17c-.291.117-.594.083-.645-.15-.146-.226-.061-.479.242-.633a65.491 65.491 0 015.216-2.554 145.303 145.303 0 012.44-6.534c-1.703 1.822-4.385 4.611-6.046 5.063-.761.213-1.465-.036-1.745-.617a1.34 1.34 0 01-.005-1.039c.181-.64.785-1.42 1.52-2.127a12.12 12.12 0 013.704-2.349A10.05 10.05 0 0167.453 54l1.075-1.348c.436-.554 1.03-.448.983.076-.034.485-.385 1.164-.912 2.481a160.728 160.728 0 00-2.684 6.599c1.536-.654 3.134-1.3 4.805-1.978 1.185-.447 1.213.423.388.725l-1.384.568zm-3.237-6.002l.132-.116-.374.09c-.375.09-.837.244-1.272.42a11.174 11.174 0 00-3.3 2.092c-.872.824-1.692 1.976-1.096 2.365 1.21.14 4.169-3.01 5.91-4.85zm5.413-.3c-.002-.376.083-.82.24-1.292.193-.58.506-1.244.966-1.872.3-.437.627-.855.99-1.096.316-.188.654-.169.836.039.195.173.05.422-.17.603-.614.534-1.291 1.72-1.605 2.667-.217.655-.263 1.178.051 1.27 1.153.415 4.859-4.423 5.584-5.85.276-.554 1.33-.414 1.078.162-.12.268-.349.867-.566 1.522-.142.814-.176 1.586.804 1.282 2.54-1.124 5.357-3.933 6.951-5.619.472-.569.075.539-.59 1.405-1.099 1.423-3.601 4.134-6.058 5.002-1.416.572-2.254.157-2.366-.838-1.075 1.348-2.548 3.046-4.038 3.651-1.193.483-2.115.038-2.107-1.036z" fill="#fff" stroke="#fff" stroke-width=".5"/><path d="M86.36 47.33c.818-1.906 2.473-3.585 4-4.202.363-.147.677-.244.992-.244.426.05.632.28.523.702-.323 1.265-2.449 3.418-4.434 4.094-.517 1.846.936 1.92 2.68 1.216 4.649-1.88 16.365-10.406 17.596-11.565.231-.219.57-.293.401.027-1.109 2.12-11.533 9.582-17.318 12.051-3.002 1.279-5.922 1.45-4.44-2.08zm1.463-.624c.7-.033 2.61-1.908 3.008-2.732-1.463.438-2.563 1.764-3.008 2.732z" fill="#fff" stroke="#fff" stroke-width=".5"/><path d="M44.548 56.637h-9.18l-1.53 3.87h-5.49l9.06-21h5.49l8.85 21h-5.7l-1.5-3.87zm-1.56-4.05l-3-7.77-3.06 7.77h6.06zm16.036 3.45h8.91v4.47h-14.25v-21h5.34v16.53zm16.787 0h8.91v4.47h-14.25v-21h5.34v16.53z" fill="#191918" fill-opacity=".8"/></svg>