<svg width="100" height="100" fill="none" xmlns="http://www.w3.org/2000/svg"><circle cx="49.691" cy="49.57" r="49.57" fill="#022C55"/><path fill-rule="evenodd" clip-rule="evenodd" d="M33.63 67.179l6.753-.306v.707l-13.064.591-.149-.025-8.606-3.432-.186-.17-4.499-9.024-.036-.182.652-9.088.03-.12 2.214-4.87-1.428-2.967.002-.308 1.109-2.225.123-.138 2.543-1.653.365-.014 2.13 1.152 7.962-6.954.25-.088 10.588.42v.707l-10.303-.41-2.32 13.922 12.623-9.019v.87L27.74 43.587l.038.066 12.605 6.09v.785L28.425 44.75l3.743 6.352h4.404l.253.105 2.868 2.88.103.248v3.315l-.028.137-2.434 5.752-.079.115-3.626 3.525zM17.45 41.413l-1.783 3.922 5.85-3.728-.21-5.292-2.1 1.93-1.757 3.168zM28.357 30.13l-6.365 5.558.195 4.888 6.17-10.446zm-1.37 12.9l2.13-12.793-6.706 11.354 4.575 1.438zm-.108 18.199l3.863-4.332.16-.103 6.52-2.034.392.127 1.272 1.697V54.48l-2.662-2.673h-4.409l-4.087 1.19-4.08 6.02 3.055 6.998-.113-4.543.09-.242zm55.454-6.015l3.119 2.127.089.494-5.347 7.5-.166.126-6.716 2.478-.126.023c-2.845-.02-6.964-.04-8.312-.021.104.339.26.89.507 1.8l-.305.443-8.345.89-.152-.017-11.086-3.728-5.11.231v-.706l4.382-.199-3.687-3.964-.094-.224-.512-11.908-.089-.043v-.784l.258.124 4.56-10.301 1.671-9.668-6.489 4.637v-.869l5.942-4.246-5.942-.236v-.706l7 .279.208.076 9.786 7.736.593-1.285.188-.179 3.738-1.525.365.057 1.65 1.39 1.855-2.035.264-.116h3.964l.174.045 2.412 1.346.181.307v3.774l6.457 5.296.103.142 2.673 6.673.025.107.314 4.659zm-6.342-6.111l5.102 1.003-2.18-5.439-2.922 4.436zm-.829-.032l3.358-5.095-6.003-4.925-10.557 19.85 6.409-6.596.103-.074 6.69-3.159zm-18.1-11.859l-9.05-7.155 3.573 12.554 5.44-1.34-1.238-.938-.1-.44 1.374-2.68zm.852 4.568l-6.136 1.51 1.101 3.872 6.276.653L71.5 38.558l-7.318-2.592-1.143 4.07-.238.242-4.868 1.497-.022-.004.003.01zm-4.918 6.103v7.852l6.968 4.455-1.035-11.69-5.933-.617zm18.513-8.449l-11.88 8.91 1.018 11.513L71.51 39.435zm-7.391 28.33l-.038.022a.34.34 0 00.057.075l-.02-.096zm3.789-13.97l-6.99 7.196 3.334 5.685 4.395-5.359-1.887-2.988-.042-.282 1.19-4.251zm5.136 13.461l.083.001 6.184-2.282-3.99-3.889-6.133.71-.012-.006-4.47 5.45.057-.001h.004c.23-.004.57-.007 1.005-.008.732-.003 1.75-.002 3.027.003 1.85.006 3.716.019 4.245.022zm6.842-2.709l3.068-4.302-.881-2.24.3-.48 1.86-.16L81.79 55.7l-.153-.267-.307-4.56-5.142-1.011 1.925 2.807.06.184.197 4.639-.066.22-2.237 3.114 3.82 3.722z" fill="url(#paint0_linear)"/><defs><linearGradient id="paint0_linear" x1="49.692" y1="28.065" x2="63.925" y2="71.075" gradientUnits="userSpaceOnUse"><stop stop-color="#0F87FF"/><stop offset="1" stop-color="#369"/></linearGradient></defs></svg>