<svg width="100" height="100" fill="none" xmlns="http://www.w3.org/2000/svg"><circle cx="49.895" cy="49.57" r="49.57" fill="#022C55"/><path d="M59.09 48.037h-4.86a4.62 4.62 0 00-2.802-2.802v-4.861a1.533 1.533 0 00-3.066 0v4.861a4.605 4.605 0 00-3.065 4.335 4.603 4.603 0 004.598 4.598 4.606 4.606 0 004.335-3.065h4.861a1.533 1.533 0 000-3.066zm-9.196 3.066a1.534 1.534 0 01-1.533-1.533c0-.845.688-1.533 1.533-1.533s1.533.688 1.533 1.533-.688 1.533-1.533 1.533z" fill="#0F87FF"/><path d="M71.025 49.57c2.643-1.946 4.138-4.592 4.218-4.735a1.533 1.533 0 00-.456-1.998c-.134-.094-2.629-1.83-5.855-2.436 1.537-2.899 1.736-5.932 1.746-6.095a1.533 1.533 0 00-1.278-1.602c-.16-.027-3.162-.508-6.33.345.126-3.279-1.01-6.098-1.073-6.25a1.533 1.533 0 00-1.846-.888c-.157.045-3.07.914-5.555 3.058-1.308-3.01-3.555-5.056-3.677-5.165a1.533 1.533 0 00-2.05 0c-.12.109-2.368 2.155-3.677 5.165-2.484-2.144-5.397-3.013-5.554-3.058a1.532 1.532 0 00-1.846.889c-.062.15-1.2 2.97-1.073 6.25-3.168-.854-6.17-.373-6.33-.346a1.533 1.533 0 00-1.278 1.602c.01.163.208 3.196 1.745 6.096-3.225.606-5.72 2.341-5.854 2.435a1.533 1.533 0 00-.456 1.998c.08.143 1.575 2.79 4.218 4.735-2.643 1.945-4.139 4.592-4.218 4.735a1.533 1.533 0 00.456 1.997c.134.095 2.629 1.83 5.854 2.436-1.537 2.9-1.736 5.933-1.745 6.096a1.533 1.533 0 001.277 1.602c.161.027 3.163.508 6.331-.346-.126 3.28 1.01 6.099 1.073 6.25a1.533 1.533 0 001.846.889c.157-.046 3.07-.915 5.554-3.058 1.309 3.01 3.556 5.056 3.678 5.165a1.529 1.529 0 002.049 0c.121-.109 2.369-2.156 3.677-5.165 2.485 2.143 5.398 3.012 5.555 3.058a1.532 1.532 0 001.846-.89c.062-.15 1.199-2.97 1.072-6.248 3.169.853 6.17.372 6.331.345a1.533 1.533 0 001.278-1.602c-.01-.163-.209-3.196-1.746-6.096 3.225-.606 5.72-2.341 5.854-2.436.64-.451.837-1.313.456-1.997-.079-.143-1.574-2.79-4.217-4.735zm-3.631-13.956c-.193.932-.544 2.175-1.17 3.356a19.615 19.615 0 00-2.365-2.959c1.292-.349 2.583-.416 3.535-.397zm-7.791-6.21c.229.924.45 2.196.4 3.526a19.4 19.4 0 00-3.4-1.644c1.008-.87 2.137-1.487 3-1.881zm-9.71-2.215c.605.732 1.354 1.78 1.886 2.998a19.597 19.597 0 00-3.774 0c.532-1.221 1.28-2.268 1.887-2.998zm-9.711 2.218c.863.395 1.992 1.015 3 1.88a19.421 19.421 0 00-3.4 1.645c-.051-1.334.17-2.603.4-3.525zM28.075 54.552c.578-.753 1.433-1.717 2.501-2.507.162 1.268.447 2.499.84 3.68-1.308-.247-2.494-.744-3.34-1.173zm2.5-7.455c-1.072-.79-1.926-1.754-2.503-2.508.847-.43 2.035-.927 3.345-1.174a19.324 19.324 0 00-.841 3.682zm5.354-11.086a19.619 19.619 0 00-2.363 2.957c-.627-1.18-.979-2.422-1.172-3.354.953-.02 2.244.048 3.535.397zm-3.531 27.514c.194-.931.547-2.174 1.17-3.351a19.604 19.604 0 002.362 2.955c-1.29.35-2.58.417-3.532.397zm7.785 6.211c-.23-.922-.452-2.194-.4-3.528a19.4 19.4 0 003.402 1.645c-1.01.87-2.14 1.49-3.002 1.883zm9.713 2.214c-.606-.731-1.355-1.779-1.887-2.997a19.61 19.61 0 003.773 0c-.53 1.221-1.28 2.268-1.886 2.997zm9.71-2.214c-.863-.394-1.993-1.012-3.002-1.883a19.484 19.484 0 003.402-1.645c.052 1.335-.17 2.606-.4 3.528zm2.405-11.4l1.26.727a16.55 16.55 0 01-3.883 3.884l-.728-1.26a1.533 1.533 0 10-2.655 1.533l.73 1.263a16.279 16.279 0 01-5.308 1.424v-1.46a1.533 1.533 0 10-3.065 0v1.46a16.279 16.279 0 01-5.308-1.424l.73-1.263a1.533 1.533 0 00-2.655-1.533l-.728 1.26a16.548 16.548 0 01-3.884-3.884l1.26-.727a1.533 1.533 0 10-1.532-2.655l-1.264.73a16.277 16.277 0 01-1.423-5.308h1.46a1.533 1.533 0 100-3.066h-1.46a16.279 16.279 0 011.423-5.307l1.264.73a1.533 1.533 0 001.532-2.656l-1.26-.727a16.544 16.544 0 013.884-3.884l.728 1.26a1.533 1.533 0 102.654-1.533l-.73-1.263a16.279 16.279 0 015.308-1.424v1.46a1.533 1.533 0 003.066 0v-1.46c1.878.175 3.666.667 5.308 1.423l-.73 1.264a1.533 1.533 0 102.655 1.533l.727-1.26a16.544 16.544 0 013.884 3.884l-1.26.727a1.533 1.533 0 101.533 2.655l1.264-.73a16.277 16.277 0 011.423 5.308h-1.46a1.533 1.533 0 000 3.065h1.46a16.281 16.281 0 01-1.423 5.308l-1.264-.73a1.533 1.533 0 10-1.533 2.656zm1.848 4.793a19.612 19.612 0 002.363-2.958c.627 1.18.98 2.423 1.172 3.354-.952.02-2.244-.047-3.535-.396zm7.857-18.54c-.576.754-1.43 1.718-2.503 2.508-.162-1.27-.447-2.5-.842-3.682 1.311.246 2.499.745 3.345 1.174zm-3.343 11.133a19.31 19.31 0 00.84-3.68c1.072.79 1.924 1.752 2.501 2.506-.848.428-2.036.926-3.341 1.173z" fill="url(#paint0_linear)" fill-opacity=".8"/><defs><linearGradient id="paint0_linear" x1="49.894" y1="23.411" x2="49.894" y2="75.729" gradientUnits="userSpaceOnUse"><stop stop-color="#369"/><stop offset="1" stop-color="#0F87FF"/></linearGradient></defs></svg>