<svg width="101" height="100" fill="none" xmlns="http://www.w3.org/2000/svg"><circle cx="50.488" cy="49.57" r="49.57" fill="#022C55"/><path d="M74.01 37.7c-.01-.102-.016-.202-.056-.3-.011-.026-.033-.043-.045-.07a1.093 1.093 0 00-.097-.147 1.046 1.046 0 00-.252-.252c-.026-.017-.037-.05-.065-.065L51.02 24.023a1.068 1.068 0 00-1.062 0L27.48 36.866c-.026.018-.036.047-.062.065-.103.07-.19.156-.265.263-.03.043-.06.081-.084.128-.015.028-.038.047-.051.078-.047.117-.062.24-.067.36 0 .012-.01.025-.01.038v23.547c0 .021.015.04.017.062.009.15.032.3.105.437.004.008.013.01.017.019.028.049.077.081.114.126.079.099.156.195.26.261.011.007.016.02.024.024l22.477 12.844a1.08 1.08 0 001.064 0l22.477-12.844c.01-.007.015-.02.025-.026.099-.06.167-.15.242-.24.043-.05.1-.09.133-.147.004-.007.01-.011.015-.017.058-.112.069-.234.085-.354.007-.049.039-.094.039-.145V37.798c0-.035-.024-.065-.026-.099zm-3.503-.074l-7.852 3.14-8.635-12.56 16.487 9.42zm-20.02-10.784l9.74 14.167h-19.48l9.74-14.167zm-3.538 1.366l-8.633 12.559-7.85-3.14 16.483-9.42zm-17.868 11.17l8.105 3.242-8.105 14.591V39.377zm9.63 4.912l9.865 17.939-18.835-1.794 8.97-16.145zm10.706 28.053L32.85 62.877l16.569 1.563v7.903zm1.07-11.08L40.526 43.15H60.45l-9.962 18.114zm1.071 11.08V64.46l16.56-1.578-16.56 9.462zm.835-10.095l9.875-17.951 8.967 16.14-18.842 1.811zm19.501-5.033L63.785 42.62l8.11-3.243v17.838z" fill="url(#paint0_linear)" fill-opacity=".8"/><defs><linearGradient id="paint0_linear" x1="50.488" y1="23.881" x2="50.488" y2="75.259" gradientUnits="userSpaceOnUse"><stop stop-color="#369"/><stop offset="1" stop-color="#0F87FF"/></linearGradient></defs></svg>