<svg width="100" height="100" fill="none" xmlns="http://www.w3.org/2000/svg"><circle cx="50.098" cy="49.57" r="49.57" fill="url(#paint0_linear)"/><path d="M63.328 43.008c-3.831-4.231-6.108-7.956-7.343-10.335-1.338-2.578-1.777-4.176-1.78-4.189l-.398-1.505-1.423.634c-.166.074-4.096 1.867-6.298 6.27-1.105 2.211-1.326 4.673-1.317 6.348a2.046 2.046 0 01-1.643 2.014 2.04 2.04 0 01-1.845-.56l-2.65-2.649-.911 1.257c-.095.13-2.322 3.202-2.728 3.816a18.01 18.01 0 00-2.986 10.098c.036 4.82 1.931 9.334 5.337 12.714 3.405 3.379 7.935 5.24 12.755 5.24 9.976 0 18.091-8.116 18.091-18.092 0-3.617-1.771-7.648-4.861-11.061zM50.098 69.51c-4.116 0-7.983-1.588-10.888-4.471-2.906-2.884-4.523-6.738-4.554-10.853a15.37 15.37 0 012.547-8.617c.206-.313 1.034-1.467 1.752-2.463l.452.452a4.684 4.684 0 004.24 1.284 4.7 4.7 0 003.772-4.626c-.008-1.387.166-3.406 1.037-5.149 1.061-2.12 2.646-3.507 3.748-4.278.997 2.535 3.523 7.771 9.16 13.996 1.255 1.387 4.176 5.068 4.176 9.283 0 8.515-6.927 15.442-15.442 15.442z" fill="url(#paint1_linear)"/><path d="M52.782 49.457l-8.308 12.167h2.938l8.307-12.167h-2.937z" fill="url(#paint2_linear)"/><path d="M54.555 55.02c-1.843 0-3.233 1.233-3.233 3.388 0 2.173 1.39 3.39 3.233 3.39 1.842 0 3.233-1.217 3.233-3.39 0-2.155-1.39-3.389-3.233-3.389zm0 4.9c-.383 0-.765-.347-.765-1.512 0-1.164.382-1.512.765-1.512.382 0 .764.348.764 1.512 0 1.165-.382 1.512-.764 1.512z" fill="url(#paint3_linear)"/><path d="M48.871 52.673c0-2.155-1.39-3.39-3.232-3.39-1.843 0-3.233 1.235-3.233 3.39 0 2.172 1.39 3.389 3.233 3.389 1.842 0 3.232-1.217 3.232-3.39zm-3.997 0c0-1.165.382-1.512.765-1.512.382 0 .764.347.764 1.512 0 1.164-.382 1.512-.764 1.512-.383 0-.765-.348-.765-1.512z" fill="url(#paint4_linear)"/><defs><linearGradient id="paint0_linear" x1="50.098" y1="0" x2="50.098" y2="99.14" gradientUnits="userSpaceOnUse"><stop stop-color="#272424"/><stop offset="1" stop-color="#828282"/></linearGradient><linearGradient id="paint1_linear" x1="50.098" y1="26.979" x2="62.16" y2="72.161" gradientUnits="userSpaceOnUse"><stop stop-color="#369"/><stop offset="1" stop-color="#0F87FF"/></linearGradient><linearGradient id="paint2_linear" x1="50.097" y1="49.457" x2="50.097" y2="61.624" gradientUnits="userSpaceOnUse"><stop stop-color="#666D74"/><stop offset="1" stop-color="#0F87FF"/></linearGradient><linearGradient id="paint3_linear" x1="54.555" y1="55.019" x2="54.555" y2="61.798" gradientUnits="userSpaceOnUse"><stop stop-color="#666D74"/><stop offset="1" stop-color="#0F87FF"/></linearGradient><linearGradient id="paint4_linear" x1="45.639" y1="49.284" x2="45.639" y2="56.062" gradientUnits="userSpaceOnUse"><stop stop-color="#666D74"/><stop offset="1" stop-color="#0F87FF"/></linearGradient></defs></svg>