<svg width="30" height="165" fill="none" xmlns="http://www.w3.org/2000/svg"><path d="M25.707 164.049c-.12.073-.21.005-.252-.029-.293-.005-.86-.326-1.551-.691l-2.797-1.701a305.634 305.634 0 01-7.936-5.879l-1.414-1.089C6.5 150.62 1.263 146.317-.385 144.328c-.233-.345-.274-.934-.05-1.318.234-.267.65-.282.925.097 1.597 1.897 7.446 6.613 13.235 11.067 2.874 2.207 5.698 4.322 7.932 5.762-1.881-2.393-5.817-8.981-5.648-11.3.01-.496.178-1.031.499-1.23l.155-.156c.75-.593 1.785-.19 2.801.593.664.511 1.296 1.162 1.84 1.804l.737.953c-.558-3.155-2.879-9.394-4.394-12.506-.485-.928.911.477 1.524 1.449 2.367 3.876 4.339 9.346 4.75 14.563l.033.471.06.268c.2 1.045.306 4.356-.266 5.139l-.037.083.454.515 1.263 1.303c.306.18.535.467.672.628.005.058.096.184.151.335.005.058.16.457-.023.875-.192.248-.476.36-.521.326zm-2.77-6.695c-.191-2.708-2.168-6.457-4.246-8.052-.618-.477-1.048-.637-1.29-.491l-.166.039.01.116c.627 2.373 2.503 5.266 5.514 10.026l.037-.082c.133-.443.183-.963.142-1.556z" fill="#369"/><path d="M18.325 131.156c.558.204 1.217.656 1.89 1.342 2.247 2.227 3.524 5.489 3.584 8.096.064 2.11-1.2 2.528-2.417 1.872-1.826-1.017-4.055-4.177-4.508-5.801-.009-.117-.055-.209-.064-.326-.636-.71-1.149-1.497-1.19-2.64.064-1.454.55-2.305 1.282-2.577.027-1.371-.037-2.864-.133-4.22-.197-2.767-.536-5.198-.572-5.728-.165-1.741.44-.885.892.797.449 1.566 1.117 5.699 1.236 9.185zm2.778 9.151c1.263.69 1.702.418 1.579-.734-.27-2.66-2.883-5.889-4.407-6.171-.083 1.216-.266 2.135-.61 2.65l.097.185c.499 1.104 2.123 3.413 3.34 4.07z" fill="#369"/><path d="M19.648 123.27c-.512-.171-1.08-.496-1.652-.939a10.158 10.158 0 01-2.123-2.246c-.462-.632-.884-1.293-1.057-1.926-.12-.539.054-1.016.416-1.181.32-.199.595.121.746.52.458 1.128 1.776 2.645 2.924 3.53.797.613 1.488.919 1.749.511 1.066-1.464-3.895-9.005-5.52-10.702-.631-.652.019-2.101.691-1.473.316.296 1.026.899 1.822 1.512 1.043.578 2.073.982 2.091-.564-.42-4.162-3.011-9.496-4.608-12.56-.568-.938.764.142 1.652 1.493 1.45 2.232 4.05 7.07 4.16 10.994.16 2.295-.769 3.306-2.17 3.01 1.365 2.163 3.035 5.056 3.204 7.473.142 1.94-.87 3.058-2.325 2.548z" fill="#369"/><path d="M19.13 101.637a417.277 417.277 0 01-6.544-5.139c-2.037-1.62-4.6-3.7-7.254-5.903.64 5.018 1.218 9.715 2.151 14.791.206 1.196-.833 1.541-1.075.428-.852-4.527-1.488-8.883-2.421-16.308a1284.367 1284.367 0 01-9.533-8.037c-.687-.477-.59-2.524.265-2.033 2.192 2.067 5.593 5.008 8.984 7.833a26.146 26.146 0 00-.206-1.74c-.604-5.1-1.46-11.971-1.858-17.621-.234-3.287-.316-6.185-.115-7.994.138-.384.527-.632.774-.66.343.208.535.631.526 1.054-.206 2.295-.105 5.422.138 8.884.434 6.17 1.345 13.244 1.913 17.83.077.495.146.928.178 1.39l7.3 5.995c2.773 2.188 6.856 5.485 10.791 8.514 4.417 3.394 8.641 6.423 10.623 7.24.984.593.201 1.682-.678 1.386-1.464-.526-8.16-5.456-13.958-9.91z" fill="#369"/><path d="M15.557 91.407c-1.369-1.055-2.764-2.46-3.56-3.685-.225-.229-.312-.851-.23-1.454.133-.51.458-.593.687-.365.384.744 5.464 5.757 5.977 5.32.233-.268.325-.754.28-1.401-.257-3.651-4.234-12.608-5.685-15.394-.192-.37.032-.754 1.053.7 1.624 2.31 5.496 10.347 5.917 14.51.147 1.507-.005 2.892-.856 3.296-.65.34-2.123-.404-3.583-1.527zm-7.46-7.405c-.142-.219-1.053-1.313-1.282-1.6l-.672-.627c-.266-.204-.398-.919-.266-1.371.078-.661.398-.86.627-.574.179.136.485.374.765.754.228.287 1.235 1.507 1.469 1.852.187.311.238 1.021.055 1.381-.129.57-.5.618-.696.185z" fill="#369"/><path d="M22.714 64.962c.16 2.294.37 4.623.613 6.928 2.046 1.74 4.17 3.428 6.247 5.023a145.43 145.43 0 005.026 3.695c.343.097.466.696.366 1.06-.179.418-.632-.039-.93-.16-2.85-1.916-5.761-4.04-8.722-6.316l-1.726-1.323a239.38 239.38 0 001.02 7.352c.033.471-.146.89-.484.856-.371.107-.678-.132-.755-.637-.54-2.922-.911-5.767-1.2-8.66a209.518 209.518 0 01-7.816-6.506c1.734 3.282 4.357 8.412 4.247 11.004-.042 1.19-.687 2.085-1.598 2.222a1.844 1.844 0 01-1.414-.472c-.791-.554-1.588-1.78-2.228-3.16a19.078 19.078 0 01-1.58-6.394c-.091-1.294-.105-2.64.266-4.527l-1.364-2.164c-.563-.88-.16-1.682.531-1.376.645.273 1.414 1.09 2.975 2.45 2.416 2.247 5.043 4.547 7.798 6.886-.22-2.504-.402-5.096-.595-7.804-.091-1.906 1.103-1.546 1.154-.224l.17 2.247zm-9.565 1.886l-.1-.243-.042.579c-.041.578-.032 1.312.018 2.017.151 2.12.71 4.109 1.405 5.699.742 1.629 1.95 3.335 2.737 2.66.719-1.673-2.274-7.367-4.018-10.712zm1.95-7.906c-.513-.17-1.08-.496-1.652-.938a10.17 10.17 0 01-2.124-2.247c-.462-.632-.888-1.293-1.057-1.925-.12-.54.055-1.016.416-1.182.32-.199.595.122.746.52.458 1.129 1.776 2.646 2.925 3.53.796.613 1.487.92 1.748.511 1.066-1.463-3.895-9.005-5.52-10.702-.631-.651.019-2.1.692-1.473.31.297 1.025.9 1.821 1.512 1.043.579 2.078.983 2.092-.564-.421-4.162-3.012-9.496-4.61-12.559-.567-.938.765.141 1.653 1.493 1.455 2.232 4.05 7.07 4.16 10.993.16 2.295-.769 3.307-2.17 3.01 1.365 2.164 3.03 5.057 3.205 7.473.137 1.936-.87 3.054-2.325 2.548z" fill="#369"/><path d="M11.213 34.747C8.98 32.696 7.42 29.55 7.245 27.075c-.041-.589-.036-1.085.1-1.537.253-.588.655-.778 1.182-.428 1.579 1.046 3.579 5.086 3.634 8.247 2.283 1.59 3.016-.462 2.819-3.287C14.449 22.533 7.964 1.8 6.925-.5c-.197-.432-.151-.952.21-.563 2.399 2.567 8 20.956 8.838 30.394.43 4.896-.609 9.165-4.76 5.416zm-.21-2.387c.26-1.021-1.456-4.624-2.403-5.572-.041 2.3 1.281 4.488 2.403 5.572z" fill="#369"/></svg>