<svg width="255" height="219" fill="none" xmlns="http://www.w3.org/2000/svg"><path d="M132.742 159.902c0 4.411 2.233 30.371-4.983 29.607-7.137-.756-4.936-25.7-4.805-30.449-4.657 9.966-10.155 19.626-15.249 29.383-4.454 8.53-8.786 20.507-16.427 26.81-7.622 6.288-14.6 3.219-22.919 1.135-4.45-1.115-8.674-2.348-12.694-4.611-4.191-2.36-6.502-5.644-9.86-8.846-2.634-2.513-5.061-5.324-7.846-7.564-3.518-2.829-3.622-5.902-5.553-9.777-4.263-8.556-6.055-15.999-5.544-25.626.531-9.975 1.023-20.97 7.763-29.017 5.833-6.964 13.556-10.967 20.722-16.229-7.937-.527-20.471.697-26.845-4.723-3.37-2.866-3.95-7.505-5.972-11.213-1.89-3.466-2.71-7.273-3.837-11.057-1.296-4.35-.732-9.07-2.14-13.476-.68-2.131-1.989-4.026-2.64-6.142-.631-2.049-.393-4.207-.74-6.296-.801-4.806-4.195-8.56-5.495-13.183-1.328-4.718-3.117-8.972-4.574-13.766C1.85 30.732.188 26.482.37 22.134.55 17.843-.845 12.676.85 8.7 4.925-.858 16.77.68 24.754 3.75 35.04 7.7 44.504 13.013 53.74 18.919c9.3 5.947 16.168 13.63 23.686 21.527 8.736 9.18 16.833 18.735 24.784 28.581 4.022 4.98 8.074 9.947 12 15 .866 1.115 8.933 11.69 8.25 12.472 1.115-1.278.496-4.49.446-5.892-.067-1.872.674-3.34.249-5.034-2.886-11.487-4.299-12.182-5.835-16.57-.323-.922-3.265-3.705-.266-3.97 1.584-.14 2.328 4.765 2.871 6.007 1.388 3.165 3.593 12.273 7.246 13.04 4.733.996 6.382-9.49 7.686-12.742.511-1.276 1.068-6.03 2.137-6.565 3.024-1.517 1.696 2.197 1.239 3.31-1.912 4.662-5.752 12.696-5.818 17.846-.024 2.012.745 2.277.591 4.56-.04.595-.848 5.778.39 5.884 4.121-9.417 11.167-17.188 17.436-25.244 6.43-8.261 13.214-16.219 20.147-24.072 14.041-15.905 29.249-30.359 48.603-39.85 8.091-3.969 18.796-9.658 27.94-6.067 4.152 1.63 6.609 4.46 7.248 8.805.27 1.83.026 3.415-.136 5.203-.238 2.599.496 4.937.346 7.481-.272 4.606-2.366 9.782-3.593 14.254-.616 2.242-1.798 3.768-2.682 5.793-.927 2.128-1.083 4.39-2.032 6.577-1.691 3.895-3.829 7.538-4.533 11.794-.395 2.381-.298 4.467-1.145 6.75-.825 2.228-2.007 4.264-2.658 6.586-1.474 5.269-1.464 10.691-2.859 15.994-1.335 5.076-3.343 10.542-5.897 15.172-5.267 9.546-19.27 7.66-28.63 8.384 1.808 2.909 7.896 5.057 10.706 7.179 3.82 2.889 7.734 6.2 10.601 10.042 5.639 7.561 6.191 18.775 6.454 27.821.148 5.082.411 11.059-1.029 15.992-1.204 4.125-3.607 7.71-5.348 11.566-1.9 4.207-2.259 6.126-5.874 9.336-1.487 1.32-2.192 3.097-3.579 4.446-1.658 1.612-3.446 2.488-4.997 4.333-5.762 6.857-12.991 8.971-21.449 11.05-5.23 1.285-8.546 3.355-14.155 2.238-4.29-.853-7.604-2.507-10.377-5.891-6.33-7.727-10.345-17.274-14.832-26.067-2.47-4.841-4.962-9.673-7.596-14.429-.808-1.463-5.829-11.763-6.734-11.647zm7.569-50.734c8.062-2.708 15.852-2.376 24.257-2.859 8.78-.504 17.515-1.577 26.269-2.393 4.74-.443 9.487-.817 14.23-1.224 3.61-.309 9.07.121 12.391-1.629 5.325-2.81 7.475-11.33 2.325-15.27-2.775-2.124-7.262-1.78-10.559-1.917-4.353-.182-8.706-.328-13.056-.554-7.834-.408-17.121-2.873-24.118 1.306-6.812 4.067-13.224 8.876-19.999 13.037-5.694 3.498-14.109 7.345-17.323 13.506 1.79 0 3.93-1.398 5.583-2.003zm-21.654.949a4.088 4.088 0 001.76.487c-2.437-5.661-11.804-9.19-16.741-12.242-7.177-4.437-14.102-11.286-22.105-14.113-7.802-2.757-16.159-.353-24.157.065-5.933.31-18.656-1.565-22.94 3.633-2.431 2.947-2.392 5.263-.868 8.403 1.433 2.955 2.2 4.99 5.44 6.105 7.514 2.586 17.511 1.649 25.408 2.214 9.017.646 17.937 1.716 26.99 1.789 9.574.078 18.372-.516 27.213 3.659zm-50.55-61.589c-1.758-.072-8.955.014-9.498 1.982-.417 1.503 3.226 6.511 3.949 7.965 3.396 6.812 10.372 12.66 15.947 17.788 6.276 5.773 13.219 10.797 20.264 15.613 3.374 2.307 6.798 4.54 10.222 6.778 3.33 2.175 6.868 5.701 10.447 7.283.743-3.961-5.143-11.194-7.299-14.307a205.385 205.385 0 00-13.642-17.59c-4.552-5.255-9.332-10.426-14.504-15.098-4.768-4.304-9.126-10.414-15.886-10.414zm128.687 1.027c-.49-1.2-7.721-1.433-8.798-1.482-3.833-.175-5.943.522-8.59 3.243-5.477 5.626-11.655 10.498-17.056 16.224-5.732 6.077-10.916 12.635-15.804 19.383-3.519 4.856-10.938 12.844-10.938 19.244 2.676-.706 5.059-3.935 7.352-5.494 2.939-1.998 5.967-3.86 8.89-5.882 6.5-4.5 12.894-9.215 19.066-14.14 10.292-8.212 21.227-18.647 25.878-31.096zm-13.557 142.142c-.406-3.928-1.51-8.361-3.548-11.806-1.541-2.604-4.201-3.645-5.386-6.542-2.731-6.678-2.359-13.566-6.703-19.826-2.486-3.58-30.71-33.146-33.414-30.635-.885.823 10.667 18.949 11.922 21.17 4.62 8.164 9.215 16.308 13.452 24.676 4.329 8.546 8.214 17.306 12.536 25.853 1.418 2.804 3.014 7.34 6.865 5.542 2.632-1.23 4.304-5.858 4.276-8.432zm-110.822 1.299c.118 2.562 2.647 8.581 6.075 8.528 3.73-.058 5.365-6.912 6.505-9.397a941.186 941.186 0 0111.756-24.659c4.082-8.268 8.557-16.338 13.088-24.372 3.747-6.646 8.209-12.88 11.854-19.525-7.01 1.162-13.66 8.954-18.329 13.748-5.06 5.192-11.96 10.674-15.512 17.017-1.813 3.238-3.19 6.843-4.196 10.398-.916 3.238-.836 7.036-2.429 10.032-1.5 2.818-4.484 3.768-5.835 6.735-1.35 2.96-3.164 8.231-2.977 11.495zm66.003-73.183c-2.468.234-4.611-.546-2.796 1.953 1.665 2.295 5.528 3.843 7.849 5.448 5.368 3.714 9.735 8.811 14.59 13.142 5.094 4.546 10.44 8.848 16.238 12.498 2.745 1.728 13.577 8.945 16.718 4.933 2.195-2.803-5.228-11.464-7.039-13.875-1.868-2.486-4.49-4.272-5.984-7.034-1.33-2.462-1.582-5.259-3.427-7.49-3.794-4.592-11.222-5.027-16.674-6.313-6.445-1.515-12.845-2.832-19.475-3.262zm-71.212 39.44c5.08.663 13.178-5.176 17.09-7.858 5.75-3.938 10.592-9.049 15.609-13.822 4.528-4.307 9.035-8.728 14.323-12.134.914-.588 6.999-3.735 6.36-4.785-1.187-1.954-7.32-.514-9.082-.193-6.77 1.236-13.483 2.883-20.122 4.665-5.456 1.465-9.883 3.242-12.217 8.674-1.268 2.953-1.822 5.406-4.154 7.794-2.3 2.355-4.715 4.198-6.64 6.938-2.24 3.193-7.685 10.038-1.167 10.721zm69.129-28.886c2.063 15.027 6.327 28.352 12.075 42.363 2.964 7.226 5.774 14.479 8.363 21.838 1.508 4.286 5.078 11.011 10.827 8.963 5.618-2 2.035-9.009.317-12.65-3.296-6.985-6.713-13.919-10.186-20.819-3.426-6.806-6.939-13.569-10.612-20.25-1.697-3.087-3.401-6.162-5.011-9.294-1.478-2.876-3.041-8.145-5.773-10.151zm-74.881-49.45c2.707 0 10.744 1.223 12.875-.512 2.938-2.395-2.75-6.574-4.551-8.502-4.232-4.528-6.94-6.03-13.048-6.62-6.092-.587-12.243-1.602-18.385-1.493-5.244.093-4.344 2.405-7.06 5.887-.826 1.057-3.303 1.935-2.857 3.427.291.977 3.186 1.637 3.994 2.51 1.526 1.646 1.464 3.227 3.755 4.271 2.246 1.024 5.084 1.133 7.51 1.279 5.93.358 11.844-.532 17.767-.246zm136.111-1.002c0 .502 13.442.304 15.187.21 5.383-.292 7.08-1.484 10.123-5.41.614-.792 3.427-1.895 3.625-2.344.94-2.146-1.316-1.398-2.475-2.567-3.129-3.16-.243-6.525-6.172-6.855-5.5-.308-11.296.68-16.778 1.129-6.32.516-9.031.864-13.614 5.193-1.614 1.526-9.872 7.928-6.671 10.478 1.198.953 6.13.172 7.357.175 3.14.007 6.278-.009 9.418-.009zm-79.229 52.136c-8.64 11.548-14.423 25.844-20.703 38.716-3.402 6.973-6.876 13.966-9.814 21.144-1.524 3.723-5.283 12.375 2.058 12.3 6.121-.063 8.284-7.731 9.945-12.259 2.646-7.208 5.137-14.447 7.957-21.594 2.593-6.572 5.461-13.021 6.952-19.946 1.322-6.137 1.76-12.322 3.605-18.361zm76.654 64.102c.261-3.836 4.154-5.883 3.586-9.608-.754-4.937-5.195-10.68-7.261-15.237-1.984-4.379-3.099-8.538-7.708-10.867-1.877-.948-11.883-6.874-13.051-6.041 2.089 4.552 3.588 8.984 6.468 13.14 2.352 3.393 3.759 6.827 4.985 10.779 1.166 3.756 1.625 10.678 3.978 13.908 2.118 2.911 6.097 1.152 9.003 3.926zm-133.933.234c2.263-3.152 6.787-.544 8.881-4.398 2.233-4.111 2.82-9.533 4.011-14.005 1.254-4.709 2.97-8.409 5.807-12.356.956-1.329 6.604-9.365 4.267-10.561-.834-.427-9.867 5.234-11.26 5.942-4.367 2.217-5.901 4.911-7.783 9.297-2.216 5.16-4.91 10.194-6.915 15.433-2.132 5.572 2.696 5.523 2.992 10.648zm-21.89-43.25c-.055 4.337 3.616 1.003 5.757.014 4.362-2.014 9-3.489 13.39-5.467 4.22-1.902 8.827-3.811 12.66-6.392 1.885-1.269 6.845-5.62 5.983-8.282-1.187-3.666-19.606 3.278-23.245 4.439-3.582 1.143-8.01 1.815-10.603 4.733-2.6 2.926-3.355 7.263-3.942 10.955zm177.317-1.387c-.068-3.482-1.704-7.805-4.09-10.452-2.697-2.994-6.916-3.21-10.603-4.295-4.752-1.4-9.493-2.694-14.321-3.83-2.935-.691-8.472-3.51-8.486.834-.021 7.303 14.504 11.461 19.657 13.306 4.235 1.517 8.269 3.162 12.329 5.108 2.399 1.148 5.708 3.659 5.514-.671zm.309-107.106c-7.721.518-14.547 2.553-19.286 8.932-1.283 1.724-4.95 6.314-2.359 8.031 1.582 1.05 9.813-1.152 11.875-1.404 3.695-.455 8.489-.178 11.876-1.635 2.884-1.24 3.845-4.247 6.504-5.814 1.236-.728 2.358.11 2.427-1.473.031-.72-2.752-1.743-3.279-2.216-3.137-2.804-2.939-4.036-7.758-4.42zM56.213 62.18c3.608 0 5.341.398 4.027-3.635-.984-3.02-3.46-5.982-5.91-7.998-4.657-3.831-15.398-7.395-20.816-3.508-.674.483-6.393 5.368-6.382 5.253-.102 1.115 4.819 2.978 6.041 4.22 5.45 5.54 15.507 4.767 23.04 5.668zm162.965 102.714c.4-7.662-10.661-11.409-16.348-13.859-3.66-1.576-7.452-2.858-11.102-4.451-3.014-1.315-5.613-2.463-3.161 1.493.909 1.466 2.216 2.66 3.094 4.154.93 1.58 1.247 3.55 2.406 4.957 2.201 2.672 6.452 4.291 9.324 6.319 1.815 1.282 3.572 2.634 5.237 4.1 1.256 1.104 3.059 3.893 4.669 4.344 3.745 1.055 5.69-4.153 5.881-7.057zM68.255 145.378c-2.67-.499-7.378 3.259-9.853 4.337-3.974 1.731-8.038 3.222-11.9 5.197-6.123 3.129-13.401 8.581-8.182 15.891 2.387 3.341 4.195 2.266 7.008-.246 3.103-2.771 5.587-5.94 9.058-8.358 3.45-2.402 6.539-3.215 8.482-7.071.994-1.968 1.68-4.047 2.884-5.92.593-.924 2.766-2.611 2.503-3.83zm137.256-9.948c8.162.252.281-9.638-3.018-11.341-6.579-3.394-15.746-4.295-22.879-2.234-2.789.806-6.638 1.889-4.863 4.978 1.353 2.355 6.759 3.334 9.108 3.843 3.417.741 6.901 1.126 10.303 1.955 3.712.906 7.46 2.835 11.349 2.799zM67.894 121.52c-6.21.214-13.905 1.197-18.336 5.994-1.275 1.382-4.237 5.549-3.064 7.554 1.766 3.02 6.68.189 9.044-.518 7.205-2.16 16.438-2.284 22.953-5.961 9.582-5.406-6.542-7.201-10.597-7.069zm-6.456 39.436c-5.119.247-11.758 7.13-14.538 10.939-3.136 4.298-2.207 12.103 3.087 13.932 6.875 2.376 7.625-4.967 10.045-9.968 1.64-3.392 9.963-15.037 1.406-14.903zm141.29 24.963c4.921-.968 9.696-6.414 7.826-11.619-1.728-4.814-8.449-10.573-12.908-12.91-1.935-1.014-5.648-2.2-7.273.238-1.458 2.192 1.487 5.94 2.465 7.919 1.606 3.254 5.727 16.41 9.89 16.372zM100.394 197.59c3.215-4.683 5.376-10.472 8.048-15.496 3.103-5.833 6.267-11.644 9.105-17.609 5.042-10.598 5.742-23.533 4.44-35.111-3.171 3.555-3.535 9.325-4.161 13.808-.885 6.342-2.152 12.254-4.461 18.257-4.434 11.534-11.255 23.863-12.971 36.151zm54.769-.938c-.958-11.922-9.279-23.495-13.097-34.637-1.867-5.445-3.842-10.939-4.604-16.651-.725-5.436-.884-11.996-4.108-16.675.46 12.577-.658 24.208 4.803 35.97 2.602 5.605 5.768 10.962 8.766 16.364 2.713 4.892 4.694 11.32 8.24 15.629zm-65.171-78.6c-1.999 0-12.055-1.629-13.129.353-2.004 3.698 9.61 5.582 11.448 5.496 5.177-.243 10.537-2.172 15.542-3.41 5.581-1.382 11.465-1.545 16.959-3.175-2.885-2.87-10.447-.705-14.001-.186-5.8.848-10.935 1.101-16.82.922zm77.541 5.167c2.079-.066 13.081-2.379 11.352-5.717-.905-1.745-12.001.006-13.919.09-5.277.232-10.306.021-15.52-.811-4.703-.75-10.502-2.142-14.914.419 4.988 1.886 11.139 1.563 16.415 2.515 5.537.999 10.961 3.02 16.586 3.504zM25.825 31.877c-2.642.169-8.633.108-9.366 3.507-.815 3.773 5.357 6.27 8.066 6.477 3.436.264 7.407-1.115 8.46-4.746 1.245-4.291-3.662-5.129-7.16-5.238zm202.993-1.072c-2.983-.424-7.665 1.88-6.633 5.399.882 3.01 5.684 5.248 8.538 5.051 2.779-.191 7.565-2.921 7.706-6.05.187-4.186-6.544-4.295-9.611-4.4zm3.885-2.52c2.158 0 6.857.802 6.79-2.439-.073-3.464-6.65-4.965-9.1-4.965-2.382 0-7.7 1.455-6.297 4.995 1.188 2.995 6.156 2.191 8.607 2.409zM20.59 29.444c2.448-.118 7.387.079 9.27-1.838 3.34-3.4-1.677-5.29-4.439-5.414-5.754-.258-15.374 6.43-4.831 7.252zm68.421 79.583c4.85 1.7 10.608 2.007 15.709 2.395 5.252.4 10.741 1.949 15.992 1.684-2.676-3.705-8.433-4.418-12.668-4.776-3.096-.262-6.234-.123-9.337-.114-2.855.005-7.23-.88-9.696.811zM24.197 18.271c1.894.125 7.505 1.428 6.422-1.834-.825-2.492-6.161-2.824-8.049-2.794-1.98.032-7.214.258-7.893 2.74-1.074 3.938 7.3 1.773 9.52 1.888zm207.76-5.75c-1.12.083-8.574 1.46-7.56 3.887.771 1.844 6.957.576 8.576.675 1.672.102 7.696 1.643 7.751-1.336.058-3.052-7.16-3.02-8.767-3.226zm-172.88 28.01c6.042-.029-.302-9.335-4.077-8.618-5.486 1.039.92 8.21 4.076 8.619zm75.538 72.143c1.893 1.844 13.199-1.32 16.048-1.482 2.702-.153 5.145-.529 7.782-1.096 1.992-.428 6.595-.295 8.082-1.736-11.13-.241-21.482.23-31.912 4.314zm61.791-73.303c3.665.121 8.906-7.411 3.769-8.112-3.684-.502-9.929 8.27-3.769 8.112zm-146.365-.363c-6.849.966 1.346 7.067 4.356 6.784 1.859-.175 2.45-1.784 1.82-3.485-.806-2.177-4.054-3.238-6.176-3.3zm158.093 1.19c.535-2.733-8.484-1.643-8.581 2.766-.103 4.691 8.525-.399 8.581-2.766zM35.262 27.375c-.06 4.457 6.443 4.351 5.91-.131-.477-4.02-5.852-4.274-5.91.131zm182.034-4.401c-3.572.017-4.172 6.962-.215 7.035 3.753.07 4.192-7.055.215-7.035zm.284-6.866c-3.445.04-5.338 5.507-1.106 5.686 2.776.117 4.96-5.731 1.106-5.686zm-179.942.729c-3.592-.01-1.732 5.584 1.081 5.647 3.916.086 2.416-5.637-1.081-5.647zm168.431 105.41c4.416-.048-3.825-5.619-5.46-4.811-2.741 1.352 3.874 4.791 5.46 4.811zM19.27 46.193c-2.451-.485-2.384 5.051.697 4.783 3.63-.318 2.819-4.71-.697-4.783zm29.004 77.344c1.993-.007 9.162-4.331 5.667-4.863-1.331-.202-8.463 3.987-5.667 4.863zM237.893 46.43c-.334-2.587-4.278-1.568-4.391.79-.174 3.66 4.477 2.886 4.391-.79zm-47.816 68.893c-4.194.102-2.559 2.836.54 2.996.989.051 3.011-.23 3.323-1.456.503-1.961-2.506-1.422-3.863-1.54zm-125.175.993c-.05-.956-6.94 2.026-.707 3.046 2.896.474 5.456-3.046.707-3.046zM13.677 7.036c-.065 2.386 3.549 3.355 4.17.85.645-2.597-3.874-4.622-4.17-.85zm223.635.126c.267 2.465 5.525.299 3.754-2.354-1.746-2.615-3.78.41-3.754 2.354zM12.128 14.005c-.054-2.973-3.782-2.434-3.76.165.023 2.802 3.773 2.739 3.76-.165zM89.833 209.61c1.999.046 6.008-2.692 2.463-3.146-2.461-.316-5.918 2.173-2.463 3.146zm71.842-3.661c.508 1.582 4.166 5.592 6.018 3.199 1.845-2.382-5.221-2.823-6.018-3.199zM7.05 24.601c-.063 2.258 2.711 3.877 3.53 1.156.763-2.536-3.082-4.358-3.53-1.156zm32.6 155.076c2.53.024 2.867-3.5.31-3.756-2.596-.262-3.183 3.868-.31 3.756zm44.44 29.629c3.13-.163 2.967-3.719-.138-3.174-2.407.425-2.757 3.424.138 3.174zm-7.387-.937c3.085.024.617-3.53-.942-3.616-3.179-.175-1.1 3.976.942 3.616zM248.07 22.928c-.458-2.374-3.393-1.547-3.383.604.016 2.721 3.465 1.905 3.383-.604zm-29.808 153.995c-.021-2.266-3.259-3.278-3.545-.547-.205 1.949 3.242 3.099 3.545.547zM245.13 14.317c1.907-.528 2.032-3.389-.198-3.687-2.511-.334-2.114 3.805.198 3.687zM25.668 67.802c-.037-2.948-3.708-3.075-3.064-.086.381 1.764 3.124 2.46 3.064.086zm26.45 125.468c2.469-.69 1.502-3.87-.872-3.295-2.877.697-.691 2.565.871 3.295zM245.536 33.844c.125-2.614-3.29-2.014-3.2.309.092 2.367 3.276 2.133 3.2-.31zM25.349 56.793c-2.306.43-1.501 3.855.62 3.712 2.167-.146 1.408-3.593-.62-3.712zm167.958-25.888c-2.431.409-4.59 2.848-5.246 5.883 2.118-1.65 4.152-2.98 5.246-5.883zM179.46 207.844c1.813-.048 3.477-3.138 1.124-3.614-1.586-.321-3.777 3.566-1.124 3.614zm53.697-142.376c-.358-2.461-3.549-.974-3.424.927.175 2.655 3.429 1.075 3.424-.927zM9.731 35.122c.155 2.283 3.436 2.221 3.427-.068-.008-2.223-3.37-2.22-3.427.068zm41.252-11.05c3.311-.142-1.153-3.832-2.619-3.021-1.944 1.078 1.279 2.8 2.62 3.022zm152.45 168.24c1.443.012 4.856-2.009 2.11-3.126-1.979-.806-4.673 3.024-2.11 3.126zM22.639 7.794c2.38-.632-.799-3.183-2.122-3.28-3.309-.242.438 3.172 2.122 3.28zM200.154 195.07c-1.51 0-3.651 3.621-1.617 4 1.688.314 3.831-3.284 1.617-4zm-119.24 18.91c-1.84.118-3.943 1.876-1.42 2.704 1.904.625 4.938-2.479 1.42-2.704zM67.455 37.271c-.241-.892-4.062-6.948-5.296-5.747-.962.931 4.748 5.44 5.297 5.747zm163.874 20.236c.084-1.97-2.316-2.303-2.973-.598-.896 2.324 2.768 3.406 2.973.598zm-190.1 78.621c-1.648.023-3.327 3.396-1.213 3.863 1.516.336 3.24-3.987 1.213-3.863zm173.585-5.966c1.898.321.245-4.497-1.561-3.986-1.815.511.247 4.012 1.561 3.986zm-174.22.801c1.496.021 3.904-3.157 1.926-3.812-1.582-.525-3.533 3.959-1.926 3.812zm131.58 74.805c-2.209-.008-3.123 2.717-.53 3.071 2.108.288 2.352-2.813.53-3.071zM233.765 3.656c-1.238.065-4.873 1.6-3.039 2.834.84.563 5.886-1.98 3.039-2.834zm-18.979 131.393c-3.015-.065.681 6.073 1.75 3.546.5-1.183-.912-3.03-1.75-3.546zM58.157 198.582c.042-1.509-2.993-3.396-3.103-1.261-.07 1.363 2.861 3.712 3.103 1.261zm163.55-56.623c.14 1.525 2.045 3.465 2.438 1.072.317-1.942-2.272-3.74-2.438-1.072zM34.198 143.22c-.37-2.261-3.023-1.675-2.849.411.177 2.128 2.719 1.401 2.85-.411zM203.885 23.158c.845-.053 3.949-1.175 3.512-2.51-.565-1.723-6.017 2.048-3.512 2.51zm26.354 63.303c-.282-2.632-3.058-1.01-2.817.89.267 2.091 2.842.39 2.817-.89zM13.991 52.07c-.074-1.5-2.718-3.757-2.618-.976.052 1.396 2.382 3.635 2.618.976zM27.9 88.718c.081-1.856-2.037-4.056-2.166-1.376-.065 1.34 1.616 3.478 2.166 1.376zm-5.461-8.649c-.159-2.033-2.223-2.388-2.277-.198-.053 2.017 2.339 2.242 2.277.198zm-6.53-19.995c-.088 2.163 2.433 1.216 2.291-.582-.178-2.287-2.252-1.267-2.29.582zm211.636 18.462c-.305 1.342 2.727 1.28 2.31-.987-.421-2.305-2.185-.444-2.31.987zm15.963-28.45c-.023-2.152-2.233-.98-2.535.511-.464 2.306 2.242 1.068 2.535-.51zM19.085 70.716c.085-1.573-2.64-3.8-2.408-1.49.097.967 2.161 3.37 2.408 1.49zm156.817 144.911c1.914-.293.738-1.84-.596-2.128-2.944-.641-1.182 1.472.596 2.128zM239.02 58.259c-.231-1.935-2.237-1.637-2.076.318.178 2.165 2.247 1.922 2.076-.318zM25.708 78.75c.34 1.45 1.648 2.67 2.227.611.4-1.424-1.976-3.081-2.226-.61zm209.251-.335c-.079-1.917-1.848-2.29-2.058-.188-.21 2.084 1.82 2.398 2.058.188zm-47.508 129.758c-1.704 0-2.283 3.085-.394 2.6 1.075-.275 2.175-2.762.394-2.6zm15.287-3.206c.131-2.225-2.864-1.424-2.735.04.142 1.633 2.4 1.331 2.735-.04zM40.329 191.941c-2.121.142-.132 2.981.965 2.823 1.921-.273.046-2.519-.965-2.823zm174.734 1.431c1.065.153 2.4-2.365 1.04-2.725-1.266-.332-3.247 2.823-1.04 2.725zM51.717 20.305c.18.182 3.63 4.024 3.96 2.791.413-1.532-2.834-2.848-3.96-2.791zm20.63 191.925c-1.59-.636-.678 2.361.528 2.507 2.06.246 1.088-2.451-.527-2.507zm-16.47-6.263c-.32-1.138-3.133-2.481-2.542-.869.282.77 2.099 3.023 2.541.869zm31.34 7.369c-1.677.023-1.841 2.621-.57 2.23 1.392-.43 2.602-1.731.57-2.23zm108.206-5.468c-.338-1.448-2.393-1.13-2.36.392.046 2.047 2.059.864 2.36-.392zM27.353 101.373c1.94-.029.848-2.298-.498-2.516-1.09-.177-.931 2.474.497 2.516zm41.682 109.97c2.1.225-.093-2.044-.608-2.344-.794-.464-1.558 2.53.608 2.344zM250.713 7.445c-.434-1.772-2.011-1.045-2.438.263-.326 1 2.251 1.344 2.438-.263zM5.6 10.193c1.32-.21 1.309-2.6-.196-2.51-1.547.097-1.342 2.476.196 2.51zM228.613 98.06c-.55.416-2.983 1.696-.91 2.397 1.652.558 2.18-2.483.91-2.397zm9.608-30.025c.002-2.314-1.828.085-2.067 1.045-.454 1.809 1.873.146 2.067-1.045zm-16.313 113.382c.295-2.056-1.774.546-1.958.902-.573 1.108 1.579.774 1.958-.902zm4.167-8.383c-.044-1.726-2.56.46-2.008 1.693.757 1.687 1.842-1.017 2.008-1.693zM30.919 156.385c-.303-1.982-1.603-1.553-2.023.027-.418 1.578 1.676 1.199 2.023-.027zm144.548-48.062c1.996.841 2.903.69 4.009-.592-1.699-.514-2.297-.437-4.009.592zM31.374 176.161c1.254.206 0-3.257-1.305-2.589-1.383.705.755 2.196 1.305 2.589zm176.998 19.815c-.767.306-2.261 2.981-.963 2.588.871-.263 2.815-2.449.963-2.588zm-23.763 16.373c-.58-1.914-1.963-.23-2.348.613-.774 1.698 1.946.17 2.348-.613zm-122.564-2.268c1.961-.007-.3-1.983-.62-2.193-.756-.504-1.463 2.015.62 2.193zM252.17 18.519c.074-2.483-2.237.24-1.981.205-.018.002 2.147 2.46 1.981-.205zM7.685 38.216c-.051-2.007-2.17-1.891-1.662-.79.237.513 1.833 3.008 1.662.79zm.669-32.803c-.5-2.742-1.71-.112-1.944-.14.063.007 1.892 2.59 1.944.14zM3.598 27.986c1.662-.25 1.07-1.896.01-2.491-.897-.504-1.278 2.08-.01 2.491zm223.085 126.947c.05-2.493-1.695.127-1.672.123.088-.014 1.312 2.825 1.672-.123zm13.951-114.578c-.409-2.43-2.02.116-2.134.12.502-.022 1.712 2.236 2.134-.12zm-55.431-5.414c1.854-.976 2.322-1.524 2.69-3.043-1.504.381-2.023.94-2.69 3.043zM71.286 200.943c-2.122.367-.083 1.853-.096 2.239.013-.36 2.258-1.7.096-2.239zM3.443 14.435c-1.992.167.354 2.295.339 2.202.017.105 1.686-2.36-.34-2.202zm73.664 94.281c-1.517-1.085-2.135-1.138-3.616-.288 1.2.631 2.344 1.108 3.616.288zm-67.33-66.84c-2.083.608.21 1.98.25 2.33-.003-.027 1.932-2.27-.25-2.33zm26.039 141.577c-.16-.955-2.043-2.163-1.756-.742.186.918 1.749 2.737 1.756.742zM67.753 32.876c.451 1.39 1.035 2.638 2.603 3.008-.628-1.698-.753-1.85-2.603-3.008zM185.28 201.107c.118-2.585-1.797.36-1.693.34.402-.077 1.067 2.056 1.693-.34zm67.129-186.87c-.713-2.39-1.389.07-1.882.09.199-.008 1.381 2.33 1.882-.09zm-4.572-9.802c2.03-.818-.152-1.04-.276-1.875.046.313-1.903 1.512.276 1.875zM35.908 134.323c-.371-2.475-1.652.28-1.906.306.436-.044 1.355 1.756 1.905-.306zM248.814 36.06c-.014-2.012-1.589.535-1.746.618.112-.062.984 2.03 1.746-.618zM48.512 199.024c1.226.295-.171-2.367-1.441-1.689-1.125.599 1.129 1.694 1.441 1.689zM3.686 21.386c2.022-.335-.245-1.892-.263-2.028.022.151-1.83 1.955.263 2.028zM226.2 162.246c-.669-2.437-.968-.036-1.605-.043.076.001 1.337 2.624 1.605.043zm6.032-75.738c-1.995.568-.045 1.753-.065 2.132.007-.137 1.956-1.807.065-2.132zM10.902 19.617c.13-1.727-2.048-.372-2.157-.39.482.074 1.182 2.195 2.157.39zm234.895 21.725c-.043-2.388-1.635.646-1.699.671.088-.035 1.928 1.554 1.699-.67zM23.01 88.11c-2.015.344-.027 1.754-.018 2.038.002.02 2.334-1.965.018-2.038zm180.078-68.56c-1.618.1-2.219.542-2.634 1.996 1.168-.225 1.983-.899 2.634-1.996zm42.026-.722c2.263-.792-.242-.867-.354-1.543 0 .001-1.692 1.352.354 1.543zm6.188 7.125c1.829-.133-.016-2.033-.018-2.08.013.41-2.034 1.947.018 2.08zM15.439 42.948c1.937-.467-.17-1.354-.236-1.882.047.386-1.697 1.52.236 1.882zm153.976 8.475c.418-.16 2.82-2.51 2.012-2.354-.977.188-1.767 1.503-2.012 2.354zM51.096 106.235c-1.025-.741-1.843-.939-3.009-.449 1.018.767 1.843.908 3.01.449zm92.945-22.383c-.905.212-1.409.774-1.515 1.682-.026.26 1.535-.544 1.515-1.682zm78.158 65.082c-.12-1.842-1.598.382-1.435.333.322-.1.85 1.756 1.435-.333zM63.715 202.102c.233 1.724 1.536.128 1.662.139.033.003-1.651-1.882-1.662-.139zm143.664-97.005c-.977-.316-1.739-.563-2.577.209.908.589 1.667.766 2.577-.209zM5.542 32.525c2.095-.633-.496-1.748-.434-1.46.076.356-.997 1.272.434 1.46z" fill="#000"/></svg>