<svg width="360" height="310" fill="none" xmlns="http://www.w3.org/2000/svg"><path d="M187.4 226.346c0 6.243 3.153 42.99-7.035 41.909-10.075-1.071-6.967-36.379-6.783-43.102-6.574 14.107-14.336 27.782-21.528 41.593-6.288 12.075-12.404 29.028-23.191 37.95-10.76 8.901-20.612 4.556-32.356 1.606-6.282-1.578-12.246-3.323-17.922-6.527-5.916-3.34-9.178-7.988-13.92-12.521-3.718-3.557-7.144-7.536-11.076-10.707-4.966-4.005-5.113-8.354-7.84-13.839-6.018-12.112-8.548-22.648-7.826-36.275.75-14.12 1.444-29.684 10.96-41.074 8.234-9.858 19.137-15.524 29.254-22.973-11.206-.746-28.901.987-37.898-6.686-4.759-4.056-5.578-10.623-8.432-15.872-2.667-4.906-3.825-10.295-5.416-15.651-1.83-6.159-1.034-12.839-3.02-19.075-.962-3.018-2.81-5.7-3.729-8.694-.891-2.9-.555-5.956-1.046-8.913-1.13-6.803-5.921-12.117-7.757-18.66-1.875-6.68-4.4-12.701-6.457-19.486C2.612 43.502.266 37.486.522 31.332c.255-6.075-1.715-13.39.678-19.016C6.952-1.215 23.674.962 34.947 5.306 49.467 10.902 62.83 18.42 75.87 26.782c13.128 8.418 22.825 19.292 33.438 30.471 12.334 12.994 23.764 26.52 34.99 40.458 5.678 7.049 11.398 14.08 16.941 21.233 1.223 1.578 12.61 16.548 11.647 17.654 1.573-1.809.699-6.355.63-8.341-.095-2.65.951-4.727.351-7.126-4.074-16.26-6.069-17.244-8.238-23.455-.456-1.305-4.609-5.244-.376-5.62 2.236-.198 3.287 6.746 4.054 8.503 1.96 4.482 5.073 17.373 10.23 18.46 6.681 1.409 9.009-13.434 10.85-18.037.722-1.807 1.509-8.535 3.018-9.293 4.268-2.148 2.393 3.11 1.748 4.685-2.699 6.599-8.121 17.972-8.213 25.262-.035 2.848 1.051 3.223.835 6.454-.058.843-1.198 8.18.55 8.329 5.817-13.329 15.765-24.33 24.616-35.733 9.076-11.694 18.654-22.958 28.443-34.075 19.822-22.513 41.292-42.973 68.615-56.41 11.422-5.617 26.535-13.67 39.445-8.587 5.862 2.31 9.33 6.313 10.232 12.465.381 2.59.037 4.834-.192 7.364-.336 3.678.7 6.99.488 10.59-.383 6.52-3.339 13.847-5.072 20.177-.869 3.174-2.538 5.334-3.785 8.2-1.31 3.012-1.529 6.213-2.869 9.31-2.388 5.513-5.406 10.67-6.4 16.695-.558 3.37-.421 6.323-1.616 9.554-1.166 3.154-2.834 6.037-3.753 9.323-2.082 7.458-2.067 15.133-4.037 22.639-1.885 7.186-4.718 14.923-8.324 21.477-7.436 13.513-27.206 10.844-40.419 11.868 2.553 4.118 11.146 7.158 15.113 10.163 5.394 4.088 10.92 8.776 14.966 14.214 7.962 10.702 8.741 26.577 9.112 39.382.209 7.192.58 15.653-1.452 22.637-1.701 5.838-5.092 10.913-7.55 16.371-2.682 5.955-3.19 8.672-8.292 13.215-2.1 1.869-3.096 4.385-5.053 6.293-2.341 2.282-4.866 3.522-7.055 6.134-8.135 9.706-18.34 12.699-30.281 15.641-7.383 1.82-12.065 4.75-19.984 3.169-6.056-1.208-10.735-3.549-14.649-8.338-8.938-10.939-14.606-24.452-20.941-36.899-3.486-6.852-7.005-13.692-10.722-20.425-1.141-2.071-8.231-16.65-9.508-16.486zm10.685-71.817c11.383-3.832 22.38-3.362 34.246-4.046 12.396-.713 24.728-2.232 37.086-3.388 6.692-.626 13.393-1.155 20.089-1.732 5.097-.437 12.804.172 17.494-2.306 7.517-3.977 10.553-16.036 3.282-21.614-3.917-3.007-10.253-2.52-14.907-2.714-6.146-.258-12.291-.465-18.432-.785-11.059-.577-24.17-4.066-34.049 1.849-9.617 5.756-18.669 12.564-28.234 18.454-8.038 4.951-19.919 10.397-24.456 19.118 2.528 0 5.548-1.978 7.881-2.836zm-30.569 1.345a5.739 5.739 0 002.485.688c-3.442-8.013-16.665-13.008-23.635-17.328-10.132-6.281-19.909-15.976-31.207-19.978-11.014-3.902-22.813-.499-34.103.092-8.377.44-26.34-2.214-32.388 5.142-3.431 4.173-3.377 7.452-1.225 11.896 2.025 4.183 3.108 7.063 7.68 8.642 10.608 3.661 24.723 2.333 35.871 3.134 12.73.914 25.323 2.428 38.103 2.532 13.517.11 25.938-.73 38.419 5.18zM96.151 68.693c-2.482-.102-12.642.02-13.41 2.806-.587 2.127 4.555 9.216 5.576 11.273 4.794 9.644 14.643 17.92 22.514 25.18 8.86 8.173 18.662 15.283 28.608 22.101 4.763 3.266 9.597 6.427 14.43 9.594 4.702 3.079 9.697 8.07 14.75 10.309 1.048-5.607-7.262-15.844-10.305-20.251a290.669 290.669 0 00-19.259-24.899c-6.427-7.439-13.176-14.759-20.477-21.372-6.731-6.092-12.884-14.741-22.427-14.741zm181.676 1.454c-.692-1.698-10.9-2.029-12.421-2.098-5.412-.249-8.39.738-12.128 4.59-7.732 7.964-16.452 14.86-24.077 22.966-8.094 8.602-15.412 17.885-22.313 27.436-4.968 6.875-15.441 18.181-15.441 27.241 3.777-.999 7.141-5.57 10.379-7.777 4.148-2.829 8.424-5.463 12.55-8.326 9.177-6.37 18.204-13.044 26.917-20.015 14.53-11.625 29.967-26.396 36.534-44.017zm-19.14 201.205c-.573-5.56-2.132-11.836-5.008-16.712-2.176-3.686-5.931-5.16-7.605-9.261-3.855-9.452-3.329-19.202-9.463-28.063-3.508-5.068-43.354-46.92-47.172-43.365-1.25 1.165 15.059 26.822 16.832 29.966 6.522 11.558 13.009 23.085 18.99 34.931 6.111 12.096 11.597 24.496 17.698 36.595 2.002 3.969 4.256 10.389 9.692 7.844 3.715-1.74 6.076-8.291 6.036-11.935zm-156.455 1.839c.167 3.626 3.738 12.146 8.577 12.072 5.267-.082 7.575-9.785 9.184-13.302 5.349-11.709 10.909-23.353 16.597-34.905 5.762-11.704 12.08-23.127 18.477-34.501 5.289-9.407 11.59-18.23 16.734-27.638-9.896 1.646-19.284 12.676-25.875 19.461-7.145 7.35-16.884 15.109-21.899 24.089-2.56 4.583-4.505 9.686-5.924 14.719-1.293 4.583-1.181 9.959-3.429 14.199-2.117 3.989-6.331 5.334-8.238 9.534-1.905 4.19-4.467 11.652-4.204 16.272zm93.181-103.592c-3.483.33-6.509-.773-3.947 2.763 2.351 3.249 7.805 5.441 11.082 7.713 7.578 5.256 13.743 12.471 20.596 18.603 7.192 6.435 14.74 12.524 22.925 17.691 3.875 2.446 19.167 12.661 23.602 6.982 3.098-3.967-7.381-16.227-9.938-19.64-2.637-3.519-6.338-6.047-8.447-9.957-1.877-3.484-2.234-7.443-4.838-10.602-5.357-6.5-15.843-7.116-23.54-8.936-9.099-2.144-18.134-4.009-27.495-4.617zM94.879 225.426c7.172.94 18.604-7.327 24.128-11.122 8.118-5.575 14.953-12.81 22.035-19.565 6.393-6.097 12.755-12.355 20.221-17.177 1.29-.833 9.881-5.287 8.979-6.773-1.675-2.766-10.334-.728-12.822-.273-9.557 1.749-19.035 4.081-28.408 6.603-7.702 2.073-13.952 4.589-17.247 12.278-1.79 4.181-2.572 7.653-5.864 11.033-3.248 3.333-6.657 5.943-9.374 9.82-3.162 4.521-10.85 14.209-1.648 15.176zm97.594-40.888c2.913 21.271 8.932 40.133 17.047 59.966 4.184 10.228 8.151 20.495 11.807 30.912 2.129 6.067 7.169 15.586 15.284 12.688 7.932-2.831 2.874-12.753.449-17.908-4.655-9.887-9.478-19.702-14.381-29.469-4.836-9.634-9.797-19.208-14.981-28.665-2.396-4.369-4.801-8.721-7.075-13.155-2.087-4.071-4.293-11.53-8.15-14.369zM86.758 114.541c3.823 0 15.168 1.73 18.176-.725 4.149-3.391-3.882-9.306-6.424-12.035-5.974-6.41-9.797-8.535-18.42-9.37-8.602-.833-17.285-2.27-25.956-2.115-7.403.132-6.133 3.405-9.968 8.334-1.165 1.496-4.662 2.739-4.032 4.851.411 1.382 4.498 2.317 5.638 3.552 2.154 2.331 2.067 4.568 5.302 6.047 3.17 1.449 7.177 1.603 10.603 1.809 8.37.507 16.72-.753 25.081-.348zm192.157-1.419c0 .711 18.978.43 21.441.296 7.6-.413 9.995-2.1 14.291-7.658.867-1.121 4.838-2.682 5.117-3.318 1.328-3.037-1.857-1.978-3.493-3.633-4.418-4.472-.344-9.236-8.714-9.704-7.764-.434-15.947.962-23.686 1.599-8.923.73-12.75 1.222-19.22 7.352-2.278 2.159-13.938 11.221-9.418 14.83 1.691 1.35 8.654.244 10.387.249 4.432.009 8.862-.013 13.295-.013zm-111.853 73.8c-12.197 16.347-20.362 36.583-29.227 54.804-4.804 9.869-9.707 19.769-13.856 29.929-2.151 5.269-7.458 17.517 2.907 17.411 8.641-.09 11.694-10.944 14.039-17.354 3.736-10.202 7.252-20.45 11.234-30.565 3.66-9.303 7.709-18.432 9.814-28.235 1.867-8.686 2.485-17.443 5.089-25.99zm108.217 90.738c.369-5.431 5.865-8.329 5.063-13.6-1.063-6.989-7.334-15.119-10.25-21.569-2.801-6.198-4.375-12.086-10.882-15.382-2.65-1.342-16.776-9.731-18.425-8.553 2.948 6.445 5.065 12.718 9.132 18.601 3.319 4.802 5.306 9.664 7.037 15.258 1.646 5.317 2.293 15.114 5.615 19.688 2.991 4.12 8.609 1.63 12.71 5.557zm-189.08.331c3.194-4.462 9.581-.771 12.537-6.226 3.153-5.819 3.982-13.494 5.663-19.824 1.77-6.666 4.193-11.903 8.198-17.49 1.349-1.882 9.323-13.257 6.024-14.95-1.178-.604-13.931 7.409-15.895 8.411-6.166 3.139-8.333 6.951-10.99 13.16-3.127 7.305-6.93 14.43-9.761 21.847-3.011 7.886 3.805 7.817 4.223 15.072zm-30.904-61.222c-.078 6.139 5.105 1.42 8.128.02 6.158-2.85 12.705-4.938 18.903-7.739 5.956-2.692 12.46-5.394 17.872-9.047 2.662-1.797 9.664-7.956 8.447-11.724-1.676-5.19-27.679 4.64-32.816 6.283-5.058 1.618-11.308 2.57-14.969 6.701-3.67 4.141-4.736 10.28-5.565 15.506zm250.33-1.963c-.097-4.929-2.406-11.048-5.775-14.796-3.807-4.237-9.764-4.543-14.968-6.079-6.709-1.981-13.403-3.813-20.218-5.421-4.144-.979-11.961-4.968-11.981 1.181-.03 10.337 20.477 16.222 27.751 18.834 5.979 2.148 11.674 4.477 17.407 7.23 3.386 1.626 8.058 5.18 7.784-.949zm.436-151.611c-10.9.733-20.537 3.614-27.228 12.643-1.811 2.44-6.988 8.938-3.33 11.369 2.234 1.486 13.853-1.63 16.765-1.989 5.216-.644 11.985-.25 16.766-2.314 4.072-1.754 5.429-6.012 9.181-8.229 1.746-1.031 3.33.154 3.427-2.085.045-1.02-3.885-2.468-4.629-3.137-4.428-3.97-4.149-5.714-10.952-6.258zM79.36 88.017c5.092 0 7.54.564 5.685-5.145-1.39-4.275-4.886-8.468-8.345-11.321-6.574-5.423-21.737-10.469-29.387-4.966-.95.683-9.024 7.598-9.01 7.436-.143 1.579 6.804 4.216 8.53 5.973 7.695 7.841 21.891 6.748 32.527 8.023zm230.067 145.395c.566-10.847-15.05-16.15-23.079-19.618-5.167-2.232-10.521-4.046-15.673-6.3-4.256-1.862-7.924-3.487-4.463 2.112 1.283 2.076 3.128 3.766 4.368 5.881 1.313 2.237 1.761 5.026 3.397 7.016 3.108 3.783 9.109 6.075 13.163 8.945 2.563 1.815 5.043 3.729 7.394 5.804 1.773 1.563 4.318 5.51 6.591 6.149 5.287 1.494 8.034-5.878 8.302-9.989zM96.361 205.786c-3.77-.706-10.417 4.613-13.91 6.139-5.611 2.451-11.349 4.561-16.802 7.357-8.644 4.429-18.918 12.147-11.55 22.493 3.37 4.73 5.922 3.209 9.894-.348 4.38-3.922 7.886-8.408 12.787-11.83 4.87-3.4 9.231-4.551 11.975-10.009 1.403-2.786 2.371-5.729 4.072-8.381.837-1.307 3.905-3.696 3.534-5.421zm193.772-14.082c11.523.358.396-13.643-4.26-16.053-9.289-4.805-22.23-6.08-32.301-3.162-3.937 1.141-9.37 2.674-6.865 7.046 1.91 3.333 9.542 4.72 12.859 5.441 4.824 1.049 9.742 1.593 14.545 2.766 5.24 1.283 10.531 4.014 16.022 3.962zM95.85 172.014c-8.765.304-19.63 1.695-25.886 8.486-1.8 1.956-5.981 7.854-4.325 10.692 2.493 4.275 9.43.268 12.767-.733 10.173-3.057 23.206-3.234 32.405-8.438 13.527-7.653-9.236-10.193-14.96-10.007zm-9.114 55.823c-7.227.351-16.6 10.093-20.524 15.484-4.428 6.085-3.116 17.132 4.358 19.722 9.706 3.363 10.765-7.031 14.181-14.11 2.316-4.801 14.065-21.285 1.985-21.096zm199.468 35.335c6.948-1.369 13.688-9.079 11.049-16.446-2.441-6.815-11.928-14.967-18.223-18.275-2.732-1.434-7.974-3.114-10.268.338-2.059 3.102 2.1 8.408 3.479 11.209 2.269 4.606 8.086 23.229 13.963 23.174zm-144.472 16.521c4.54-6.629 7.59-14.823 11.363-21.934 4.38-8.256 8.848-16.483 12.854-24.926 7.117-15.002 8.106-33.312 6.268-49.701-4.477 5.033-4.99 13.2-5.874 19.545-1.25 8.977-3.038 17.346-6.298 25.844-6.26 16.326-15.89 33.779-18.313 51.172zm77.321-1.327c-1.352-16.876-13.099-33.258-18.49-49.03-2.634-7.708-5.423-15.484-6.499-23.57-1.024-7.694-1.248-16.98-5.8-23.604.65 17.803-.929 34.267 6.781 50.917 3.673 7.933 8.143 15.516 12.376 23.164 3.83 6.924 6.627 16.024 11.632 22.123zm-92.006-111.26c-2.821 0-17.018-2.307-18.534.499-2.829 5.235 13.566 7.901 16.161 7.78 7.309-.343 14.877-3.075 21.941-4.827 7.879-1.956 16.187-2.187 23.944-4.494-4.074-4.063-14.75-.999-19.768-.263-8.187 1.2-15.436 1.558-23.744 1.305zm109.47 7.314c2.936-.094 18.467-3.368 16.027-8.092-1.278-2.471-16.944.007-19.65.126-7.451.329-14.551.03-21.912-1.148-6.639-1.061-14.826-3.032-21.054.594 7.042 2.67 15.725 2.212 23.173 3.559 7.817 1.415 15.475 4.275 23.416 4.961zM36.459 45.123c-3.73.239-12.187.152-13.223 4.964-1.15 5.34 7.563 8.875 11.387 9.168 4.851.373 10.457-1.578 11.943-6.718 1.758-6.074-5.17-7.26-10.107-7.414zm286.577-1.518c-4.21-.6-10.819 2.662-9.363 7.642 1.245 4.26 8.024 7.43 12.053 7.15 3.924-.27 10.68-4.135 10.88-8.564.264-5.925-9.239-6.08-13.57-6.228zm5.486-3.567c3.046 0 9.68 1.136 9.585-3.452-.102-4.904-9.388-7.029-12.847-7.029-3.362 0-10.87 2.06-8.89 7.071 1.679 4.24 8.691 3.102 12.152 3.41zm-299.454 1.64c3.456-.166 10.429.112 13.088-2.602 4.714-4.812-2.368-7.488-6.268-7.662-8.123-.366-21.704 9.101-6.82 10.264zm96.595 112.653c6.848 2.405 14.976 2.84 22.178 3.39 7.413.566 15.162 2.758 22.576 2.383-3.778-5.244-11.906-6.253-17.885-6.76-4.37-.371-8.8-.174-13.181-.162-4.031.008-10.207-1.245-13.688 1.149zM34.16 25.864c2.675.176 10.596 2.02 9.067-2.598-1.165-3.526-8.698-3.996-11.363-3.954-2.796.045-10.185.365-11.143 3.88-1.517 5.572 10.307 2.508 13.44 2.672zm293.309-8.14c-1.581.117-12.105 2.065-10.673 5.503 1.088 2.61 9.821.815 12.107.954 2.361.144 10.865 2.326 10.942-1.891.083-4.32-10.107-4.275-12.376-4.566zM83.402 57.374c8.531-.042-.426-13.215-5.755-12.201-7.745 1.471 1.3 11.622 5.755 12.201zm106.643 102.119c2.672 2.609 18.634-1.869 22.655-2.098 3.815-.216 7.264-.748 10.987-1.551 2.812-.606 9.311-.417 11.41-2.458-15.713-.34-30.328.326-45.052 6.107zm87.234-103.762c5.175.172 12.573-10.49 5.322-11.483-5.203-.71-14.018 11.707-5.322 11.483zm-206.632-.514c-9.67 1.367 1.9 10.004 6.148 9.603 2.625-.248 3.459-2.525 2.57-4.933-1.138-3.082-5.723-4.583-8.718-4.67zm223.189 1.685c.755-3.87-11.978-2.327-12.115 3.914-.144 6.641 12.036-.564 12.115-3.914zM49.781 38.75c-.084 6.308 9.097 6.159 8.345-.187-.675-5.689-8.262-6.05-8.345.187zm256.989-6.23c-5.042.024-5.889 9.854-.303 9.959 5.299.1 5.919-9.987.303-9.96zm.401-9.718c-4.863.057-7.535 7.794-1.561 8.047 3.92.167 7.002-8.112 1.561-8.047zM53.136 23.833c-5.07-.015-2.446 7.904 1.526 7.993 5.528.122 3.412-7.978-1.526-7.993zm237.784 149.21c6.236-.067-5.398-7.953-7.707-6.81-3.87 1.914 5.469 6.783 7.707 6.81zM27.205 65.387c-3.461-.686-3.367 7.15.984 6.77 5.125-.45 3.98-6.666-.984-6.77zM68.152 174.87c2.814-.01 12.934-6.131 8-6.885-1.88-.285-11.947 5.645-8 6.885zM335.849 65.722c-.471-3.66-6.039-2.219-6.199 1.119-.246 5.182 6.321 4.086 6.199-1.118zm-67.505 97.521c-5.922.144-3.613 4.014.762 4.24 1.397.072 4.251-.325 4.692-2.06.709-2.776-3.539-2.013-5.454-2.18zm-176.717 1.405c-.07-1.353-9.8 2.868-.999 4.312 4.089.671 7.702-4.312.999-4.312zM19.309 9.959c-.093 3.378 5.01 4.75 5.886 1.203.912-3.676-5.468-6.541-5.886-1.203zm315.72.18c.376 3.489 7.8.422 5.299-3.334-2.465-3.7-5.336.582-5.299 3.333zM17.122 19.823c-.077-4.208-5.339-3.445-5.309.234.032 3.966 5.327 3.877 5.31-.234zm109.701 276.884c2.822.065 8.482-3.81 3.477-4.454-3.474-.447-8.355 3.077-3.477 4.454zm101.424-5.182c.717 2.24 5.882 7.916 8.496 4.529 2.605-3.373-7.371-3.997-8.496-4.529zM9.953 34.824c-.09 3.196 3.827 5.488 4.983 1.635 1.078-3.589-4.35-6.169-4.983-1.635zm46.024 219.513c3.57.035 4.047-4.954.438-5.317-3.665-.37-4.495 5.476-.438 5.317zm62.738 41.941c4.42-.231 4.189-5.264-.194-4.493-3.399.601-3.892 4.846.194 4.493zm-10.429-1.327c4.356.035.872-4.996-1.33-5.117-4.487-.249-1.551 5.627 1.33 5.117zM350.217 32.455c-.647-3.36-4.791-2.19-4.776.855.022 3.852 4.891 2.697 4.776-.855zM308.135 250.44c-.03-3.209-4.602-4.641-5.005-.776-.289 2.759 4.577 4.387 5.005.776zm37.931-230.173c2.692-.749 2.869-4.797-.279-5.22-3.546-.472-2.986 5.386.279 5.22zM36.237 95.975c-.052-4.173-5.234-4.352-4.325-.122.538 2.498 4.41 3.482 4.325.122zm37.34 177.604c3.487-.977 2.122-5.478-1.23-4.665-4.061.986-.976 3.631 1.23 4.665zM346.64 47.907c.176-3.7-4.645-2.85-4.518.437.13 3.35 4.625 3.02 4.518-.437zM35.786 80.391c-3.254.61-2.119 5.459.877 5.255 3.058-.207 1.987-5.085-.877-5.255zm237.118-36.645c-3.432.58-6.48 4.032-7.406 8.329 2.991-2.336 5.862-4.22 7.406-8.329zm-19.548 250.462c2.559-.067 4.908-4.442 1.586-5.115-2.239-.455-5.332 5.048-1.586 5.115zm75.806-201.536c-.505-3.485-5.01-1.38-4.833 1.312.246 3.758 4.841 1.521 4.833-1.312zM13.738 49.716c.22 3.231 4.851 3.144 4.838-.097-.012-3.146-4.758-3.141-4.838.097zm58.239-15.64c4.674-.202-1.63-5.426-3.699-4.278-2.744 1.526 1.806 3.964 3.698 4.277zM287.2 272.221c2.037.017 6.855-2.843 2.978-4.424-2.794-1.141-6.596 4.28-2.978 4.424zM31.961 11.033c3.36-.895-1.128-4.506-2.995-4.643-4.672-.343.617 4.489 2.995 4.643zm250.61 265.093c-2.132 0-5.155 5.125-2.284 5.662 2.383.445 5.409-4.647 2.284-5.662zm-168.338 26.769c-2.6.166-5.568 2.654-2.007 3.827 2.689.885 6.972-3.509 2.007-3.827zM95.23 52.759c-.341-1.263-5.735-9.835-7.478-8.135-1.357 1.317 6.704 7.7 7.478 8.134zm231.35 28.644c.12-2.789-3.27-3.26-4.196-.848-1.265 3.291 3.907 4.822 4.196.848zM58.206 192.693c-2.326.032-4.697 4.807-1.714 5.468 2.142.475 4.575-5.644 1.714-5.468zm245.061-8.445c2.679.454.346-6.366-2.204-5.642-2.563.723.349 5.679 2.204 5.642zm-245.958 1.133c2.112.03 5.511-4.469 2.72-5.396-2.234-.743-4.988 5.605-2.72 5.396zM243.07 291.27c-3.118-.012-4.408 3.845-.748 4.347 2.976.408 3.32-3.981.748-4.347zM330.022 5.175c-1.749.092-6.881 2.264-4.291 4.011 1.185.798 8.31-2.803 4.291-4.011zm-26.795 185.99c-4.256-.092.961 8.597 2.47 5.02.707-1.675-1.287-4.29-2.47-5.02zM82.104 281.097c.06-2.135-4.226-4.807-4.38-1.784-.1 1.928 4.039 5.254 4.38 1.784zm230.894-80.15c.197 2.158 2.887 4.904 3.442 1.516.448-2.749-3.207-5.294-3.442-1.516zM48.28 202.732c-.523-3.201-4.269-2.371-4.022.581.249 3.013 3.837 1.984 4.022-.581zM287.837 32.781c1.193-.075 5.576-1.663 4.958-3.552-.796-2.44-8.494 2.898-4.958 3.552zm37.207 89.607c-.399-3.726-4.318-1.429-3.977 1.26.376 2.96 4.011.552 3.977-1.26zM19.752 73.706c-.105-2.125-3.837-5.32-3.696-1.382.073 1.976 3.362 5.145 3.696 1.382zm19.638 51.876c.114-2.628-2.877-5.742-3.058-1.949-.092 1.896 2.28 4.924 3.058 1.949zm-7.71-12.244c-.224-2.878-3.138-3.38-3.215-.281-.075 2.856 3.302 3.174 3.215.281zm-9.219-28.304c-.124 3.062 3.434 1.723 3.235-.822-.252-3.239-3.18-1.795-3.235.822zm298.78 26.135c-.431 1.898 3.85 1.811 3.262-1.397-.595-3.264-3.085-.629-3.262 1.397zm22.536-40.272c-.032-3.047-3.152-1.387-3.578.723-.655 3.264 3.165 1.512 3.578-.723zM26.944 100.101c.12-2.227-3.728-5.381-3.4-2.11.137 1.37 3.051 4.769 3.4 2.11zm221.389 205.125c2.702-.415 1.041-2.605-.842-3.012-4.156-.908-1.668 2.082.842 3.012zm89.107-222.76c-.326-2.738-3.158-2.316-2.931.45.251 3.065 3.172 2.722 2.931-.45zM36.294 111.475c.481 2.053 2.326 3.781 3.143.865.565-2.015-2.789-4.362-3.143-.865zM331.707 111c-.112-2.715-2.609-3.241-2.906-.266-.296 2.95 2.57 3.395 2.906.266zm-67.071 183.675c-2.405 0-3.222 4.367-.555 3.681 1.516-.39 3.07-3.909.555-3.681zm21.583-4.538c.184-3.149-4.044-2.016-3.863.057.202 2.311 3.39 1.884 3.863-.057zm-229.283-18.44c-2.996.202-.187 4.221 1.362 3.997 2.712-.388.064-3.567-1.362-3.997zm246.682 2.026c1.504.216 3.389-3.348 1.469-3.857-1.788-.47-4.584 3.996-1.469 3.857zM73.012 28.742c.254.258 5.125 5.696 5.59 3.952.584-2.17-4-4.032-5.59-3.952zm29.126 271.675c-2.246-.9-.959 3.342.744 3.549 2.909.348 1.537-3.47-.744-3.549zm-23.254-8.866c-.45-1.611-4.422-3.512-3.588-1.23.398 1.091 2.963 4.28 3.588 1.23zm44.246 10.431c-2.368.033-2.599 3.711-.804 3.157 1.965-.609 3.673-2.451.804-3.157zm152.762-7.739c-.478-2.051-3.379-1.601-3.332.554.065 2.898 2.906 1.223 3.332-.554zM38.615 143.497c2.74-.043 1.198-3.254-.702-3.562-1.539-.251-1.315 3.502.702 3.562zm58.846 155.664c2.964.319-.132-2.893-.859-3.318-1.12-.656-2.199 3.582.86 3.318zM353.947 10.538c-.612-2.507-2.838-1.478-3.441.373-.461 1.415 3.177 1.902 3.441-.372zM7.906 14.428c1.863-.298 1.848-3.68-.276-3.551-2.184.136-1.895 3.504.276 3.551zm314.842 124.379c-.777.589-4.211 2.4-1.285 3.392 2.333.791 3.078-3.514 1.285-3.392zm13.564-42.501c.002-3.276-2.58.119-2.919 1.478-.64 2.561 2.645.207 2.919-1.478zM313.282 256.8c.416-2.911-2.505.773-2.764 1.277-.809 1.569 2.229 1.096 2.764-1.277zm5.882-11.866c-.062-2.443-3.613.652-2.834 2.396 1.069 2.389 2.6-1.439 2.834-2.396zM43.65 221.368c-.428-2.807-2.263-2.2-2.856.037-.59 2.234 2.366 1.697 2.856-.037zm204.068-68.034c2.819 1.19 4.099.977 5.66-.838-2.398-.728-3.242-.619-5.66.838zM44.293 249.361c1.77.291 0-4.611-1.843-3.666-1.952.999 1.066 3.109 1.843 3.666zm249.879 28.048c-1.083.432-3.192 4.22-1.359 3.663 1.23-.372 3.974-3.467 1.359-3.663zm-33.548 23.177c-.819-2.71-2.771-.326-3.314.867-1.093 2.403 2.747.241 3.314-.867zm-173.031-3.212c2.769-.01-.424-2.806-.874-3.104-1.069-.713-2.067 2.853.874 3.104zm268.411-271.16c.105-3.514-3.157.34-2.796.29-.025.003 3.03 3.483 2.796-.29zM10.849 54.096c-.072-2.841-3.063-2.677-2.345-1.119.333.726 2.587 4.258 2.345 1.119zm.944-46.433c-.704-3.882-2.413-.16-2.744-.199.09.01 2.672 3.666 2.744.199zM5.08 39.616c2.345-.356 1.511-2.685.015-3.527-1.268-.714-1.806 2.945-.015 3.527zm314.943 179.696c.07-3.529-2.393.179-2.36.174.124-.02 1.852 3.999 2.36-.174zm19.695-162.19c-.577-3.439-2.851.165-3.013.172.71-.032 2.418 3.164 3.013-.171zm-78.254-7.662c2.617-1.382 3.277-2.157 3.797-4.307-2.124.54-2.856 1.33-3.797 4.307zM100.639 284.44c-2.996.52-.117 2.622-.135 3.169.018-.509 3.188-2.406.135-3.169zM4.86 20.433c-2.811.236.501 3.248.479 3.117.025.149 2.38-3.34-.479-3.117zm103.996 133.458c-2.141-1.536-3.013-1.611-5.104-.408 1.695.892 3.309 1.568 5.104.408zM13.803 59.275c-2.941.863.296 2.804.353 3.299-.005-.038 2.727-3.212-.353-3.299zm36.76 200.408c-.226-1.352-2.883-3.062-2.477-1.051.26 1.299 2.467 3.874 2.477 1.051zM95.651 46.538c.637 1.966 1.462 3.733 3.675 4.257-.886-2.403-1.063-2.62-3.675-4.258zM261.573 284.67c.167-3.658-2.537.51-2.39.483.567-.11 1.506 2.91 2.39-.483zm94.77-264.519c-1.006-3.383-1.96.1-2.657.13.281-.013 1.95 3.295 2.657-.13zM349.888 6.28c2.867-1.159-.214-1.474-.388-2.655.065.442-2.687 2.14.388 2.655zM50.693 190.138c-.523-3.504-2.331.395-2.69.433.615-.063 1.913 2.485 2.69-.433zM351.268 51.044c-.02-2.849-2.244.758-2.465.874.159-.087 1.389 2.874 2.465-.874zm-282.78 230.68c1.73.417-.242-3.351-2.035-2.391-1.588.847 1.594 2.398 2.035 2.391zM5.204 30.273c2.854-.475-.346-2.68-.37-2.87.029.213-2.586 2.765.37 2.87zm314.137 199.391c-.944-3.45-1.367-.052-2.266-.062.107.002 1.887 3.715 2.266.062zm8.517-107.209c-2.817.803-.065 2.48-.093 3.017.01-.194 2.762-2.557.093-3.017zM15.392 27.767c.181-2.445-2.892-.526-3.046-.551.68.104 1.668 3.107 3.046.551zM347.007 58.52c-.06-3.38-2.308.914-2.398.95.125-.05 2.722 2.199 2.398-.95zM32.484 124.722c-2.844.487-.037 2.483-.025 2.885.003.028 3.295-2.781.025-2.885zm254.228-97.049c-2.284.142-3.133.768-3.718 2.826 1.649-.318 2.799-1.272 3.718-2.826zm59.331-1.021c3.195-1.121-.341-1.228-.5-2.185 0 .002-2.388 1.914.5 2.185zm8.736 10.085c2.582-.189-.022-2.878-.025-2.945.018.582-2.871 2.756.025 2.945zM21.796 60.794c2.735-.661-.239-1.916-.333-2.664.067.546-2.396 2.152.333 2.664zM239.174 72.79c.59-.226 3.982-3.554 2.841-3.333-1.379.266-2.495 2.128-2.841 3.333zM72.136 150.38c-1.447-1.049-2.602-1.33-4.248-.637 1.436 1.087 2.602 1.285 4.248.637zm131.216-31.685c-1.277.301-1.989 1.097-2.139 2.381-.037.368 2.167-.77 2.139-2.381zm110.341 92.125c-.169-2.607-2.256.542-2.027.473.456-.142 1.2 2.485 2.027-.473zM89.951 286.081c.329 2.44 2.169.181 2.346.196.047.005-2.331-2.664-2.346-.196zm202.82-137.313c-1.38-.447-2.456-.798-3.639.296 1.283.833 2.354 1.084 3.639-.296zM7.824 46.04c2.958-.897-.7-2.475-.613-2.068.107.505-1.407 1.803.613 2.068z" fill="#000"/></svg>