<svg width="443" height="485" fill="none" xmlns="http://www.w3.org/2000/svg"><g filter="url(#filter0_d)"><path d="M414.706 133.803c-4.679-3.698-10.173-5.74-15.962-6.839-22.365-4.258-44.471-1.714-66.362 3.223-5.381 1.215-9.41.204-12.92-3.614-8.621-9.371-19.263-16.062-30.033-22.552-14.736-8.876-14.191-8.675-10.727-25.813 6.663-32.947-.117-49.957-22.628-66.94-11.274-8.506-17.879-8.352-29.095.446-9.826 7.708-17.646 17.3-25.284 27.066-9.078 11.607-13.282 24.968-13.235 39.425.02 6.006-1.769 10.278-6.284 13.626-3.479 2.582-4.356 5.916-3.444 9.815.883 3.774 2.04 7.489 3.179 11.199.944 3.083 1.651 6.236.958 9.392a31.561 31.561 0 01-1.99 6.03c-4.084 1.378-7.688 3.115-10.823 5.143-.23-.035-.78.519-.78.519-15.624 10.619-19.158 28.581-13.393 43.65a23.718 23.718 0 00-.247 2.763c-.411 13.757-5.652 25.682-13.588 36.68-2.686 3.721-4.938 7.748-7.452 11.595-6.118 9.372-9.958 19.399-9.894 30.802.05 8.803-2.461 17.094-6.435 24.91-8.018 15.771-16.507 31.283-28.035 44.854-12.224 14.387-22.2 30.097-29.742 47.409-2.598 5.971-5.972 11.622-9.217 17.293-5.134 8.969-12.146 15.5-22.899 17.21-4.597.732-8.611 3.165-12.582 5.508-5.687 3.354-7.033 6.53-4.711 12.834 4.038 10.965 11.834 18.227 22.957 21.87 8.964 2.935 18.19 2.675 27.367 1.6 9.084-1.067 10.293-2.157 12.213-11.161 1.788-8.384 6.193-15.107 13.908-18.248 7.152-2.914 10.001-8.11 12.42-14.591 4.168-11.17 10.574-14.824 22.586-13.793 3.636.312 5.247 1.912 4.148 5.549a59.105 59.105 0 01-2.144 5.965c-2.339 5.531-5.028 10.925-7.091 16.555-5.034 13.743 1.442 24.374 15.767 26.431 2.083.3 4.134.935 6.15 1.574 13.322 4.21 25.812 2.051 37.817-4.625 4.702-2.614 6.649-6.367 6.55-11.7-.199-10.634-1.702-21.098-3.412-31.557-1.084-6.624 1.13-9.223 7.878-9.165 1.928.017 3.883.291 5.771.702 5.148 1.116 5.832 2.795 3.143 7.306-4.463 7.495-4.667 9.133 2.185 14.553 7.881 6.236 12.696 14.017 15.473 23.435.996 3.378 2.517 6.735 5.937 8.469 6.313 3.194 12.516 6.746 19.117 9.2 6.939 2.578 13.911 2.109 19.892-3.25 5.847-5.239 6.747-11.607 4.979-18.834-.935-3.829-2.546-7.326-4.478-10.703-3.557-6.222-2.578-8.979 4.288-11.295 2.162-.729 4.458-1.306 6.724-1.437 4.889-.283 6.695 2.174 5.445 6.889-1.177 4.435-2.511 8.844-3.405 13.338-2.203 11.065.69 16.234 11.434 19.708 10.873 3.517 22.13 4.939 33.547 4.211 5.914-.376 11.589-2.174 16.09-6.195 8.597-7.682 11.272-15.285 5.337-25.228-2.173-3.64-4.186-7.381-6.494-10.934-3.851-5.927-5.133-12.32-3.968-19.224 1.649-9.756 4.006-19.355 6.934-28.803 5.238-16.911 9.984-33.9 9.465-51.839 0-1.058.038-2.119-.005-3.176-.729-17.485-4.33-34.69-5.204-52.145-.139-2.81-.305-5.604-.565-8.373 5.737-8.223 8.064-19.44 4.574-32.512 4.781-.738 9.9-1.524 12.323-6.12 2.815-5.336 7.281-7.679 12.478-9.905 18.421-7.892 35.464-17.925 47.58-34.419 8.964-12.186 7.924-25.848-2.086-33.757zM108.702 375.977c-1.008.98-2.138 1.892-3.353 2.585-11.303 6.461-15.347 15.935-12.404 28.596 1.086 4.669-.842 8.206-5.215 10.453-3.45 1.772-6.651 3.299-7.907-2.894-3.374 3.605-4.416 7.507-5.678 11.29-1.672 5.015-3.085 10.129-5.64 14.806-1.707 3.124-4.19 5.001-7.825 3.515-6.823-2.792-14.051-3.363-21.23-4.278-3.705-.472-7.286-1.448-10.677-3.002-2.858-1.308-5.092-3.147-5.261-6.658-.096-2.002-.752-3.387-3.024-4.322-3.49-1.44-2.529-3.794-.02-5.519 3.414-2.349 7.452-3.287 11.425-4.06 14.885-2.896 24.414-11.915 30.17-25.516 8.44-19.941 18.826-38.684 33.862-54.581 4.993-5.277 8.664-11.578 12.946-17.403.88-1.198 1.609-3.13 3.581-2.547 1.649.487 1.221 2.401 1.556 3.66 2.313 8.684 4.518 17.397 6.686 26.117 3.178 12.772-3.601 21.608-11.992 29.758zm63.132-228.34a25.55 25.55 0 011.375-1.335c19.973 3.785 42.108 12.365 64.631 25.064a217.269 217.269 0 01-3.464 3.506c-22.671-12.711-44.212-21.18-64.235-25.251a23.685 23.685 0 011.693-1.984zm104.062 63.539c15.429 9.713 30.596 21.442 48.705 37.641a22.41 22.41 0 01-2.08 1.318c-.263.145-.531.285-.799.422a2018.776 2018.776 0 01-5.733-4.607c-11.539-9.287-28.807-23.182-40.165-31.041.087-1.245.11-2.495.072-3.733zm5.565-36.033c9.797 6.044 19.111 12.198 27.015 17.866 12.611 9.049 17.832 14.177 18.872 15.672a58.758 58.758 0 013.575 7.35c-9.227-7.839-18.121-14.568-29.387-22.232a14.835 14.835 0 00-2.156-1.751l-.186-.12c-3.359-2.06-6.572-4.167-9.681-6.207-2.447-1.606-4.979-3.267-7.557-4.887l-.42.662c.213-2.101.228-4.24-.075-6.353zm1.337 20.751c3.146 2.063 6.398 4.197 9.867 6.33.161.113.309.259.653.603l.408.405.475.323c11.589 7.866 20.559 14.676 29.992 22.765l.038.033c1.054.888 2.106 1.748 3.126 2.581 1.911 1.562 3.72 3.043 5.52 4.68.222.26.437.484.641.688a23.237 23.237 0 01-1.354 4.922c-20.323-18.134-37.139-30.849-54.782-41.441.388-1.288.793-2.565 1.197-3.835.07-.219.14-.443.213-.668 1.317.851 2.64 1.72 4.006 2.614zm21.657 56.426c-4.072-1.029-8.014-3.031-11.635-5.942-3.22-2.587-6.177-5.883-8.784-9.791-.189-.286-.379-.571-.565-.863 7.103 5.47 14.616 11.476 20.984 16.596zm-11.498 8.603c-2.96 7.856-8.906 11.673-17.148 12.504-6.188.624-12.181 1.818-18.065 3.987-14.168 5.222-17.227 2.911-16.187-12.082.321-4.622-.949-8.323-4.326-11.383-2.785-2.524-4.993-5.496-6.765-8.777-2.997-5.56-2.228-7.991 3.301-11.167 5.378-3.092 11.315-3.748 17.346-4.374 6.925-.72 11.385-4.677 12.387-10.24a41.927 41.927 0 001.483 5.563c6.415 18.769 16.775 30.274 27.974 35.969zm-59.146-56.98c.081-1.649 1.87-1.996 3.149-2.401 1.667-.531 3.441-.723 4.478-.927 7.117.14 13.261 4.593 14.744 10.24.21.796.492 1.897.125 2.448-.751 1.131-1.852.359-2.817-.046-5.532-2.32-11.091-4.581-16.594-6.971-1.186-.513-3.178-.507-3.085-2.343zm28.941 7.358c-3.858-11.653-17.865-20.469-30.118-19.032 4.195-2.917 7.697-6.12 10.762-9.162.603.289 1.194.557 1.777.799 7.752 3.214 18.63-4.398 18.881-13.07.498.218 1.005.478 1.523.798 10.348 6.376-2.732 20.265-2.825 39.667zm-1.18-39.183c-2.94 5.642-7.916 6.959-13.801 6.944-.134 0-.265-.005-.399-.005 4.95-5.097 8.857-8.985 13.279-8.982.857 0 1.736.152 2.642.464-.824.177-1.345.856-1.721 1.579zm-14.363-9.433c-14.496-8.41-34.31-18.309-55.967-24.566a63.246 63.246 0 016.441-.894c.219-.021.469-.03.749-.03 2.549 0 10.432.851 28.521 8.734 8.084 3.523 17.159 7.99 26.779 13.175-2.351.853-4.501 2.098-6.523 3.581zm-81.581-1.539c18.147 3.407 37.803 10.806 58.633 22.063a44.57 44.57 0 01-6.121 3.322c-12.064-6.845-35.705-16.377-52.392-19.326a25.339 25.339 0 01-.12-6.059zm35.102 30.328a42.914 42.914 0 01-4.792.276c-11.146 0-18.158-4.613-22.083-8.483a28.102 28.102 0 01-2.013-2.214c9.361 2.515 20.087 6.507 28.888 10.421zm55.073 252.411c-2.49 3.269-5.182 6.259-8.984 8.019-6.427 2.973-10.208 1.551-12.079-5.242-1.349-4.899-2.724-6.898-8.192-4.062-5.841 3.03-9.037-.618-8.964-10.36 1.247-6.624-3.275-11.511-8.035-16.071-3.607-3.456-3.184-5.718.69-8.696 5.865-4.502 12.003-7.116 19.578-6.388 5.675.545 10.173 2.737 13.448 7.35 4.285 6.041 8.332 12.262 12.818 18.152 4.571 5.991 4.099 11.551-.28 17.298zm82.149-148.512c.848 28.888-4.075 56.927-12.445 84.477-1.227 4.042-1.876 8.256-2.817 12.385-2.232 9.792-.994 18.758 5.244 27.072 3.909 5.214 7.347 11.027 6.709 17.977-.306 3.317.265 8.221-6.133 5.899-2.01-.729-2.187 1.876-3.079 3.021-3.505 4.511-5.017 4.567-8.379.117-4.064-5.379-4.064-5.379-9.465-.661-3.816 3.333-5.847 2.89-8.023-1.764-.224-.477-.385-.987-.591-1.474-3.729-8.827-3.729-8.827-10.605-2.617-3.95 3.567-7.368 2.611-8.306-2.672-1.101-6.187-.923-12.475.63-18.426 5.06-11.129 22.534-4.733 24.716-6.842.504-.487.417-1.315-.297-1.656-2.185-1.049-14.916-2.273-20.915-2.348 2.657-9.795 3.056-19.653 1.638-30.027-1.845-13.49.311-26.766 6.63-39.111.536-1.046 1.713-2.197.332-3.249-.941-.717-2.036.169-2.916.656-2.96 1.641-4.687 4.123-5.223 7.527-.714 4.54-1.804 9.005-3.549 13.274-4.3 10.514-11.615 17.528-23.076 19.816-7.636 1.524-15.202 3.403-22.858 4.805-25.584 4.689-48.567-8.293-57.954-32.577-1.081-2.797-2.147-5.604-3.324-8.36-1.031-2.413-2.826-4.252-5.474-4.514-2.552-.254-5.742-1.186-7.438 1.355-1.78 2.663.904 4.689 2.509 6.268 11.554 11.371 12.367 25.088 9.261 39.824-1.896 8.999-1.888 17.849.551 26.539-6.96-2.069-17.815-4.91-19.994-4.322-.81.219-1.064 1.067-.632 1.673 1.8 2.53 18.916 4.526 23.839 11.82 1.431 5.082 1.026 10.158-1.701 15.319-3.802 7.201-3.511 7.352-9.99 3.328-3.219 7.425-5.559 8.946-11.84 8.786-8.323-.213-9.165-6.029-9.016-13.154-2.986 2.319-3.097 5.012-4.425 6.965-1.801 2.646-3.77 5.172-7.284 3.205-3.405-1.909-6.123-4.73-4.212-9.066 1.491-3.386 4.361-6.46-1.757-8.375-1.902-.594-1.381-3.121-.554-4.727 10.678-20.783 8.877-42.237 3.989-64.046-4.825-21.521-5.949-43.356-3.557-65.287.643-5.899.008-12.607 6.974-16.031 1.652-.813.926-2.838.591-4.386-2.4-11.184-.515-21.724 4.813-31.743 8.367-15.73 15.563-32.146 27.19-45.967.262-.312.527-.641.775-.979 7.236 6.556 17.223 10.828 29.427 10.828 8.023 0 17.014-1.85 26.797-6.108.329-.142.652-.288.975-.437-.9 1.836-1.031 4.071-.206 6.554 1.847 5.563 1.614 11.112 1.383 16.739 0 2.293.05 4.59-.008 6.88-.181 7.224-.959 8.087-8.16 8.576-7.074.478-14.072 1.475-21.069 2.579-19.007 3.002-25.634-2.005-28.032-18.723-.172-1.189-.227-2.815-1.731-2.899-1.882-.105-2.173 1.698-2.185 3.042-.104 11.586 1.979 20.492 15.4 23.66 5.83 1.375 9.028 4.353 10.561 9.651 3.601 12.44 12.874 18.021 24.754 20.279 2.721.516 6.945 2.125 7.828-1.667.932-3.992-3.612-4.385-6.441-5.545-.163-.067-.335-.152-.507-.157-10.328-.202-13.763-7.828-17.057-15.655-1.469-3.485-.134-5.741 2.913-7.425 5.995-3.316 20.308-1.757 25.028 3.261 6.141 6.533 10.832 13.781 10.782 23.412-.058 10.895 4.417 14.818 15.152 13.853 11.866-1.063 23.292-4.318 34.735-7.41 1.949-.528 3.607-1.621 4.72-3.255 2.266-3.337 4.515-6.679 6.939-9.879 4.108 1.381 8.262 2.04 12.312 2.04 8.705 0 16.935-3.037 23.251-8.425.533 9.73-2.342 19.44-8.224 29.118-1.445 2.378-4.903 5.105-2.016 7.807 2.508 2.348 5.054-1.011 7.455-2.244 1.678-.863 3.28-2.614 5.296-1.501 2.086 1.148 1.311 3.468 1.366 5.324zm50.383-160.197c-.248 1.547-1.197 2.649-2.788 2.757-1.932.131-3.886.043-5.827-.044-9.957-.449-19.755-.236-29.267 3.573-13.622 5.455-16.984 10.266-16.18 24.86.3 5.461.737 10.916 1.151 16.368.416 5.491.23 10.844-.598 16.048-2.1-2.168-5.031-4.75-8.629-7.635-1.503-4.286-5.319-7.183-10.086-7.62-33.197-23.91-94.084-58.466-117.679-58.466-.635 0-1.241.027-1.821.076a73.71 73.71 0 00-9.314 1.402c-.096-3.264.528-6.286 2.048-9.031.21-.379.437-.749.679-1.116.621-1.113 1.451-1.967 2.392-2.687.315-.239.641-.466.976-.682.303-.157.618-.315.935-.478.321-.16.647-.326.982-.495.737-.443 1.512-.848 2.29-1.256.39-.204.78-.408 1.168-.615 1.739-.609 5.363-2.008 8.399-3.992 2.724-1.402 5.037-3.413 8.204-3.762a20.44 20.44 0 011.378-.391c.387-.21.818-.198 1.238-.181.419.018.833.041 1.186-.148.378-.061.76-.126 1.147-.198.388-.073.781-.152 1.192-.239.454-.123.903-.266 1.346-.429 1.765-.658 3.429-1.652 4.993-2.92 5.122-4.155 9.005-9.444 13.177-14.457 1.017-1.22 2.978-2.625 1.232-4.505-1.613-1.737-3.74-1.777-5.858-.717-3.304 1.656-5.588 4.421-7.283 7.504-1.361 2.477-2.937 4.447-4.924 5.709-.396.253-.81.478-1.241.67-2.13.974-4.513.822-6.762 1.177-.375.059-.745.135-1.11.228a17.41 17.41 0 00-1.803.685c-1.917 1.358-4.469 2.325-6.584 3.689-2.036.78-4.044 1.821-4.58 2.232-.32.178-4.906 2.46-5.229 2.634a15.1 15.1 0 01-.97.484c-.941.233-1.879.469-2.82.469-.469 0-.941-.058-1.396-.122-.454-.064-.897-.131-1.311-.149a3.315 3.315 0 01-1.098-.495c-.452-.347-.816-.679-1.092-1.005-1.67-1.95-.356-3.585 3.994-6 4.906-2.725 6.668-6.196 6.164-12.042-2.325-26.961 10.028-47.208 30.444-63.446 3.103-2.468 12.242-4.394 12.807-2.8.542 1.524-4.594 7.617-7.111 8.88-9.789 4.912-16.245 12.891-20.962 22.458-.678 1.378-2.505 3.238.027 4.48 1.844.905 3.901-.097 4.448-1.822 4.507-14.2 20.929-17.686 27.216-30.269 1.276-2.556 3.458-1.011 5.081-.166 6.753 3.526 11.158 9.293 14.013 16.086 8.163 19.408 9.459 38.959.213 58.463-1.311 2.765-1.871 4.715 1.908 6.084 17.255 6.245 31.988 16.5 45.334 28.888 2.202 2.046 4.53 3.96 6.668 6.064 4.667 4.593 9.62 6.525 15.493 2.092.414-.311.944-.594 1.445-.644 15.816-1.599 30.523-10.756 47.137-6.906 1.197.277 2.409.498 3.601.804 1.567.411 2.488 1.379 2.217 3.066z" fill="url(#paint0_linear)"/></g><defs><linearGradient id="paint0_linear" x1="128.752" y1="61.364" x2="324.553" y2="487.414" gradientUnits="userSpaceOnUse"><stop stop-color="#252632"/><stop offset="1" stop-color="#785131"/></linearGradient><filter id="filter0_d" x="-.001" y="0" width="442.914" height="484.324" filterUnits="userSpaceOnUse" color-interpolation-filters="sRGB"><feFlood flood-opacity="0" result="BackgroundImageFix"/><feColorMatrix in="SourceAlpha" values="0 0 0 0 0 0 0 0 0 0 0 0 0 0 0 0 0 0 127 0"/><feOffset dx="5" dy="10"/><feGaussianBlur stdDeviation="7.5"/><feColorMatrix values="0 0 0 0 0.415686 0 0 0 0 0.415686 0 0 0 0 0.352941 0 0 0 0.5 0"/><feBlend in2="BackgroundImageFix" result="effect1_dropShadow"/><feBlend in="SourceGraphic" in2="effect1_dropShadow" result="shape"/></filter></defs></svg>