<svg width="24" height="23" fill="none" xmlns="http://www.w3.org/2000/svg"><path d="M8.194 7.537a5.11 5.11 0 013.57-1.442 5.11 5.11 0 013.57 1.442A4.838 4.838 0 0116.804 11c0 1.295-.527 2.54-1.47 3.461a5.11 5.11 0 01-3.57 1.443 5.11 5.11 0 01-3.57-1.443A4.838 4.838 0 016.724 11c0-1.295.527-2.54 1.47-3.462zm.387 6.595a4.557 4.557 0 003.183 1.289 4.56 4.56 0 003.184-1.29 4.38 4.38 0 001.327-3.133 4.38 4.38 0 00-1.327-3.134 4.557 4.557 0 00-3.184-1.29c-1.19 0-2.336.462-3.183 1.29a4.38 4.38 0 00-1.328 3.134 4.38 4.38 0 001.328 3.134zm9.803-8.994a.584.584 0 01-.6.568.584.584 0 01-.6-.568c0-.297.252-.568.6-.568s.6.27.6.568z" stroke="#369" stroke-width="1.5"/><path d="M16.384.815h.017a7.696 7.696 0 012.49.467 5.03 5.03 0 011.734 1.104l.524-.537-.524.537a4.87 4.87 0 011.126 1.685 7.13 7.13 0 01.476 2.45v.016l.001.017c.069 1.143.069 1.5.069 4.491 0 2.982-.016 3.342-.07 4.502v.02a7.139 7.139 0 01-.473 2.415 4.88 4.88 0 01-1.127 1.685 5.04 5.04 0 01-1.733 1.104 7.708 7.708 0 01-2.49.466h-.028c-1.17.067-1.54.067-4.603.067-3.05 0-3.421-.016-4.61-.066H7.16h0-.008a7.664 7.664 0 01-2.491-.502l-.003-.001A5.037 5.037 0 012.92 19.63a4.877 4.877 0 01-1.127-1.685 7.149 7.149 0 01-.473-2.417v-.014l-.001-.015c-.069-1.144-.069-1.5-.069-4.492 0-2.981.016-3.342.07-4.502v-.02a7.137 7.137 0 01.473-2.414 4.868 4.868 0 011.126-1.686 5.025 5.025 0 011.734-1.103A7.629 7.629 0 017.14.816h.014l.013-.001C8.34.75 8.71.75 11.771.75c3.053 0 3.423.015 4.613.065zm5.241 15.39h.03l.033-.716c.054-1.186.054-1.525.054-4.48v-.022c0-2.976-.013-3.322-.068-4.494a6.833 6.833 0 00-.437-2.28h0l-.004-.012a4.4 4.4 0 00-1.019-1.529 4.505 4.505 0 00-1.557-.99h0l-.009-.004a7.091 7.091 0 00-2.321-.425c-1.219-.067-1.565-.067-4.575-.067h-.026c-3.047 0-3.4.014-4.598.067a7.156 7.156 0 00-2.323.425h0l-.008.003A4.447 4.447 0 002.21 4.2h0l-.004.01a6.783 6.783 0 00-.437 2.303c-.067 1.192-.067 1.53-.067 4.469v.026c0 2.973.012 3.321.067 4.492.014.779.162 1.55.437 2.28h0l.004.013a4.393 4.393 0 001.024 1.53c.446.434.979.77 1.564.988h0l.006.003a7.11 7.11 0 002.32.425c1.22.067 1.564.067 4.576.067h.026c3.044 0 3.4-.013 4.597-.067a7.125 7.125 0 002.324-.425h0l.01-.003a4.5 4.5 0 001.557-.99 4.396 4.396 0 001.019-1.529h0l.004-.01a6.8 6.8 0 00.388-1.578z" stroke="#369" stroke-width="1.5"/></svg>