<svg width="166" height="41" fill="none" xmlns="http://www.w3.org/2000/svg"><path d="M31.832 13.846a26.364 26.364 0 00-.814-4.918c-.419-1.55-.968-2.747-1.66-3.596-.688-.845-1.648-1.586-2.881-2.217-1.233-.63-2.674-1.055-4.326-1.27-1.652-.214-3.691-.327-6.12-.327H.799v37.957H16.03c2.429 0 4.468-.11 6.12-.324 1.648-.214 3.093-.639 4.326-1.27 1.233-.63 2.193-1.371 2.88-2.216.689-.846 1.242-2.047 1.661-3.596a26.42 26.42 0 00.814-4.919c.126-1.727.191-3.948.191-6.65 0-2.702-.065-4.922-.19-6.654zM19.294 28.012c-.508 1.08-1.632 1.622-3.373 1.622h-3.154V11.359h3.154c1.741 0 2.865.542 3.373 1.622.509 1.08.761 3.588.761 7.515 0 3.928-.252 6.436-.76 7.516zm42.481 1.622H47.304v-4.272h12.888v-9.841H47.304v-4.162H62.21V1.518H43.332c-3.479 0-5.685.72-6.608 2.164-.924 1.44-1.388 4.453-1.388 9.028v15.573c0 4.578.464 7.588 1.388 9.028.923 1.44 3.129 2.164 6.608 2.164h19.151v-9.841h-.708zm68.863-19.707c-.509-2.54-1.4-4.547-2.829-5.865a21.956 21.956 0 00-.818-.704C124.839 1.627 120.92.87 115.406.87c-5.547 0-9.486.757-11.643 2.488-.211.17-.618.517-.814.704-1.399 1.31-2.266 3.324-2.775 5.865-.509 2.54-.76 6.063-.76 10.569 0 4.542.243 8.082.736 10.626.488 2.54 1.355 4.57 2.799 5.865.208.186.652.53.871.704 2.145 1.662 6.039 2.43 11.586 2.43 5.514 0 9.441-.723 11.585-2.43.212-.166.619-.522.818-.704 1.425-1.319 2.32-3.325 2.829-5.865.508-2.54.761-6.084.761-10.626 0-4.506-.257-8.03-.761-10.57zm-11.533 16.976c-.216 1.315-.59 2.209-1.115 2.678-.525.469-1.388.704-2.584.704-1.197 0-2.059-.235-2.584-.704-.525-.47-.895-1.36-1.115-2.678-.216-1.314-.326-3.45-.326-6.407s.11-5.093.326-6.407c.22-1.315.59-2.209 1.115-2.678.525-.47 1.387-.704 2.584-.704 1.196 0 2.059.235 2.584.704.525.47.899 1.36 1.115 2.678.216 1.314.325 3.45.325 6.407s-.109 5.093-.325 6.407zm43.989 7.811l-2.706-6.379c1.815-1.043 3.035-2.524 3.67-4.433.635-1.91.953-4.595.953-8.057 0-2.957-.2-5.279-.599-6.974-.398-1.695-1.212-3.135-2.445-4.324-1.233-1.189-2.894-1.99-4.977-2.407-2.084-.412-4.904-.622-8.461-.622h-13.547V39.47h.713l-.004.004h10.551l-.004-.004h.713v-9.295h2.339l3.101 8.704.212.595h12.538l-2.047-4.761zm-10.731-15.27c-.452.595-1.404.895-2.857.895h-2.555v-8.98h2.555c1.449 0 2.401.3 2.857.894.452.594.679 1.792.679 3.596 0 1.8-.223 3-.679 3.596zM95.88 23.85H84.616v.8c-.045 2.217-.33 3.71-.867 4.474-.545.776-1.505 1.16-2.88 1.16-1.596 0-2.63-.578-3.102-1.73-.472-1.153-.708-3.84-.708-8.058 0-4.219.236-6.905.708-8.057.472-1.153 1.506-1.732 3.101-1.732 1.38 0 2.34.389 2.881 1.161.525.748.814 2.205.863 4.348v.923h11.976V15.58c0-5.695-1.107-9.57-3.316-11.625C91.058 1.898 86.923.87 80.864.87c-3.443 0-6.165.271-8.16.813-1.993.542-3.58 1.606-4.76 3.192-1.18 1.585-1.95 3.551-2.312 5.893-.362 2.342-.545 5.586-.545 9.732 0 4.146.183 7.39.545 9.732.362 2.342 1.136 4.308 2.312 5.893 1.18 1.586 2.763 2.65 4.76 3.192 1.995.542 4.717.809 8.16.809 6.055 0 10.19-1.028 12.403-3.082 2.21-2.055 3.317-5.93 3.317-11.625v-.797l.004-.769h-.708v-.004z" fill="#191918"/><path d="M13.386 30.701c-.06-.105-.003-.186.025-.222.004-.26.273-.76.578-1.371l1.424-2.472a269.034 269.034 0 014.92-7.014l.912-1.25c3.381-4.647 6.983-9.275 8.647-10.73.289-.207.781-.243 1.103-.045.224.206.236.574-.082.817-1.587 1.412-5.534 6.58-9.262 11.698-1.847 2.54-3.617 5.036-4.822 7.01 2.002-1.663 7.516-5.142 9.457-4.992.416.008.863.158 1.03.441l.13.137c.497.664.159 1.578-.496 2.476-.427.586-.973 1.145-1.51 1.626l-.798.651c2.642-.493 7.863-2.544 10.467-3.883.777-.429-.399.805-1.213 1.347-3.243 2.091-7.821 3.835-12.188 4.199l-.394.028-.224.053c-.875.178-3.646.27-4.302-.235l-.069-.032-.431.4-1.09 1.116c-.151.271-.391.474-.526.595-.048.004-.154.085-.28.134-.05.004-.383.141-.733-.02-.207-.17-.301-.421-.273-.462zm5.604-2.447c2.267-.17 5.404-1.917 6.739-3.754.399-.546.533-.926.411-1.14l-.032-.146-.098.008c-1.986.554-4.407 2.213-8.391 4.874l.069.033c.37.117.806.161 1.302.125z" fill="#369"/><path d="M40.917 24.177c-.171.493-.55 1.076-1.123 1.67-1.864 1.986-4.595 3.115-6.776 3.167-1.766.057-2.116-1.06-1.567-2.135.851-1.614 3.496-3.584 4.855-3.985.098-.008.175-.048.273-.056.594-.562 1.253-1.015 2.21-1.052 1.216.057 1.929.485 2.156 1.133a38.029 38.029 0 003.533-.118c2.315-.173 4.35-.473 4.794-.505 1.456-.146.74.388-.668.788-1.31.397-4.77.988-7.687 1.093zm-7.659 2.455c-.578 1.116-.35 1.505.615 1.395 2.226-.238 4.928-2.548 5.164-3.895-1.017-.073-1.787-.234-2.218-.538l-.155.085c-.923.441-2.856 1.877-3.406 2.953z" fill="#369"/><path d="M47.517 25.346c.143-.453.415-.954.786-1.46a8.726 8.726 0 011.88-1.877c.529-.408 1.082-.78 1.611-.934.452-.105.85.048.99.368.166.283-.103.526-.436.66-.944.404-2.214 1.569-2.955 2.584-.513.704-.769 1.314-.427 1.545 1.225.943 7.536-3.442 8.957-4.878.545-.558 1.758.016 1.233.61-.248.28-.753.907-1.266 1.61-.484.923-.822 1.833.472 1.85 3.484-.373 7.948-2.662 10.512-4.074.785-.502-.118.675-1.25 1.46-1.868 1.282-5.917 3.58-9.2 3.677-1.922.142-2.768-.68-2.52-1.917-1.81 1.205-4.232 2.681-6.254 2.831-1.624.125-2.56-.768-2.133-2.055z" fill="#369"/><path d="M65.622 24.889a367.372 367.372 0 014.301-5.784 406.55 406.55 0 014.94-6.412c-4.2.567-8.13 1.076-12.379 1.901-1.001.183-1.29-.736-.358-.95 3.789-.752 7.435-1.315 13.649-2.14A1108.88 1108.88 0 0182.5 3.08c.4-.607 2.112-.522 1.701.234-1.729 1.938-4.191 4.943-6.555 7.94.435-.032.944-.105 1.456-.182 4.27-.534 10.02-1.29 14.748-1.642 2.751-.206 5.176-.279 6.69-.101a.93.93 0 01.554.684c-.175.303-.529.473-.883.465-1.921-.182-4.538-.093-7.435.121-5.164.384-11.085 1.19-14.923 1.69-.415.07-.777.13-1.164.159l-5.017 6.451c-1.831 2.451-4.59 6.06-7.126 9.538-2.84 3.903-5.375 7.637-6.06 9.388-.495.87-1.407.178-1.159-.598.44-1.295 4.566-7.212 8.294-12.337z" fill="#369"/><path d="M74.183 21.73c.883-1.21 2.06-2.443 3.085-3.147.191-.198.712-.275 1.217-.202.427.117.496.404.305.606-.623.34-4.818 4.83-4.452 5.283.224.206.63.287 1.172.247 3.056-.227 10.552-3.742 12.884-5.024.309-.17.63.028-.586.93-1.933 1.436-8.66 4.858-12.144 5.23-1.261.13-2.42-.004-2.758-.756-.285-.574.337-1.877 1.277-3.167zm6.198-6.593c.183-.126 1.099-.93 1.339-1.133l.525-.595c.17-.234.769-.351 1.147-.234.554.069.72.352.48.554a3.166 3.166 0 01-.63.676c-.24.202-1.262 1.092-1.55 1.298-.261.166-.855.21-1.156.049-.477-.114-.517-.441-.155-.615z" fill="#369"/><path d="M96.316 28.056c-1.92.141-3.87.327-5.799.542a140.367 140.367 0 00-4.203 5.521 128.306 128.306 0 00-3.093 4.441c-.082.304-.582.413-.887.324-.35-.158.032-.558.134-.821 1.603-2.52 3.382-5.093 5.286-7.71l1.107-1.525c-2.006.263-4.09.563-6.153.902-.395.029-.745-.13-.716-.428-.09-.328.11-.599.533-.668 2.446-.477 4.826-.805 7.247-1.06a183.322 183.322 0 015.445-6.908c-2.746 1.533-7.04 3.85-9.209 3.753-.997-.036-1.745-.606-1.86-1.411a1.69 1.69 0 01.395-1.25c.464-.7 1.49-1.404 2.645-1.97a15.287 15.287 0 015.352-1.396c1.082-.08 2.21-.093 3.788.235l1.811-1.205c.737-.498 1.408-.142 1.152.469-.228.57-.912 1.25-2.051 2.63-1.88 2.135-3.805 4.457-5.762 6.892 2.095-.195 4.264-.356 6.53-.526 1.596-.081 1.295.975.188 1.02l-1.88.149zm-1.579-8.454l.204-.089-.485-.036a11.89 11.89 0 00-1.689.016 14.097 14.097 0 00-4.769 1.242c-1.363.655-2.791 1.723-2.226 2.418 1.4.635 6.165-2.01 8.965-3.551zm6.618 1.723c.143-.453.416-.955.786-1.46a8.726 8.726 0 011.88-1.877c.529-.409 1.082-.785 1.611-.935.452-.105.851.049.989.369.167.283-.101.525-.435.659-.944.404-2.214 1.57-2.955 2.585-.512.703-.769 1.314-.427 1.545 1.225.942 7.537-3.443 8.957-4.878.545-.559 1.758.016 1.233.61a23.81 23.81 0 00-1.266 1.61c-.484.922-.822 1.837.472 1.849 3.484-.373 7.948-2.662 10.512-4.074.785-.501-.118.676-1.25 1.46-1.867 1.287-5.917 3.58-9.201 3.677-1.92.142-2.767-.68-2.519-1.917-1.81 1.206-4.232 2.678-6.254 2.832-1.62.12-2.556-.769-2.133-2.055z" fill="#369"/><path d="M121.604 17.891c1.717-1.974 4.35-3.353 6.421-3.507.493-.036.908-.032 1.286.089.493.222.652.578.359 1.044-.875 1.395-4.257 3.163-6.902 3.211-1.331 2.019.386 2.666 2.751 2.492 6.307-.47 23.659-6.2 25.584-7.12.362-.173.798-.133.472.187-2.149 2.12-17.539 7.07-25.438 7.81-4.098.38-7.671-.537-4.533-4.206zm1.998-.186c.855.23 3.87-1.286 4.664-2.124-1.925-.036-3.756 1.133-4.664 2.124z" fill="#369"/></svg>