<svg width="285" height="369" fill="none" xmlns="http://www.w3.org/2000/svg"><g filter="url(#filter0_d)"><path d="M263 198.41l-19.616-27.077 15.409 7.18-8.784-20.36-7.127-23.842-18.698-111.896-7.869-14.626-45.59 46.292-8.959-4.279-46.552-.335-9.016 4.172L61.231 6.8l-8.065 14.53-20.189 111.66-7.446 23.755L16.475 177l15.502-6.994-19.976 26.838 12.018-4.331-1.393 32.683 12.783-10.652 1.717 36.52 8.432-9.367 17.854 46.077 1.202-6.842 28.243 38.243-3.327-15.258 24.831 27.32 6.068-21.157 15.88 32.215 16.66-32.337 5.886 21.602 25.194-27.017-3.533 15.217 28.755-37.901 1.11 6.856 18.469-45.859 8.306 9.468 2.205-36.497L252 226.632l-.956-32.697L263 198.41zm-25.653-32.059l.053.072-9.505-4.294.032-.131 5.918-20.074 20.404 32.303-16.902-7.876zm-41.499-31.447l2.663 2.511-.263.046 3.917 22.336-1.475 6.238-5.984 23.644-14.724 8.468-.405.449-4.279 9.51-8.505-25.189 5.415-7.843 9.63-4.226.498-.492 10.924-23.905c.226-.447 2.782-5.624 2.588-11.547zm-118.546 1.727l2.696-2.478c-.272 5.919 2.214 11.126 2.434 11.575l10.603 24.034.494.498 9.572 4.342 5.308 7.906-8.841 25.086-4.15-9.56-.401-.454-14.609-8.645-5.668-23.715-1.39-6.254 4.214-22.287-.262-.048zm82.495 12.61l-.115.182.23.145.398 1.134.054-.008 10.076 23.479-11.889 17.22-3.79-24.077 3.47-22.539 1.566 4.464zm-5.208-26.593l10.238-23.818 9.714 7.382 6.555 11.371-14.272 7.625-8.536 13.08-3.699-15.64zm-40.99 85.613l-12.509.93 8.686-24.646 6.281 9.354-2.458 14.362zm3.4-8.211l.946-5.528 10.096-1.808 18.984.168 10.073 1.93.872 5.539-11.243-4.486-.67-.022-7.448 2.431-2.2-.07-7.438-2.518-.669.014-11.303 4.35zm41.995-5.837l6.405-9.278 8.356 24.748-12.496-1.081-2.265-14.389zm-6.201-27.044l.001.303 3.98 25.278-9.465-1.814-.177-.018-19.163-.169-.183.016-9.487 1.699 4.316-25.226.004-.303-3.279-23.355 18.512 21.15 18.527-20.842-3.586 23.281zm-32.143-.113l-4.112 24.032-11.657-17.362 10.389-23.356.053.008.413-1.13.231-.142-.112-.183 1.626-4.444 3.169 22.577zm-11.501-42.248l-14.168-7.798 6.707-11.291 9.812-7.264 9.918 23.937-3.908 15.596-8.361-13.18zm7.669 15.759l-2.275 6.219-9.583-15.618.053-.166-19.827-6.275a34.549 34.549 0 014.2-.653c4.107-.388 10.617-.298 18.425 2.295l9.007 14.198zm-32.374-1.028l13.105 8.117 15.706 2.404-9.989 22.458-8.582-3.893-10.461-23.711-.02-.04c-.03-.06-2.692-5.518-2.192-11.332l2.433 5.997zm9.296 59.571l10.711 24.668-15.16-19.139-7.046-12.331 11.495 6.802zm7.376 12.049l12.942-.961c.558.516 1.295.974 2.202 1.372 1.85 1.374 4.241 3.53 4.875 5.853 1.109 4.064.598 7.175.594 7.204l.835 1.143 9.023 1.239 1.957 3.488-8.343 2.775-16.149-3.839-7.936-18.274zm33.972 18.074l-1.346-2.4 3.489-.607.025.03 3.614.674-1.373 2.373h-2.185l-2.224-.07zm14.239 4.238l-8.285-2.912 1.982-3.426 9.04-1.131.849-1.131c-.006-.031-.482-3.117.69-7.197.664-2.313 3.091-4.443 4.961-5.797.91-.387 1.649-.835 2.213-1.343l12.926 1.118-8.178 18.178-16.198 3.641zm31.913-33.779l11.583-6.662-7.209 12.242-15.412 18.953 11.038-24.533zm10.26-54.119l-.02.042-10.777 23.584-8.634 3.789-9.688-22.576 15.738-2.215 13.212-7.958 2.513-5.967c.422 5.818-2.314 11.243-2.344 11.301zm-20.555-13.98l-9.808 15.528-2.191-6.244 9.196-14.089c7.843-2.498 14.352-2.512 18.453-2.073 1.659.177 3.066.44 4.185.702l-19.886 6.008.051.168zm15.955-8.823c-2.957-.323-7.103-.425-12.067.388l7.983-4.266 16.512-4.357 26.658 3.67 6.018 19.768L194.53 124.5c-.328-.136-3.063-1.231-7.63-1.73zm12.307-10.235l-16.276 4.295-6.283-10.898L196.99 94.89l26.923 21.046-24.706-3.401zm-23.825-8.152L153.23 87.549l8.916-15.272 11.537-1.476 21.803 22.67-20.104 10.912zm-12.168-6.778l-10.688 24.864 4.257 18.005-18.92 21.284-18.876-21.568 4.496-17.949-10.354-24.992 11.963-8.857 13.044-8.498 13.238 8.713 11.84 8.998zm-62.345 6.275L80.915 92.727l22.105-22.406 11.516 1.614 8.711 15.378-22.378 16.567zm-1.286 1.532l-6.428 10.822-16.218-4.491-24.744 3.101 27.2-20.716 20.19 11.284zm-22.791 8.331l16.452 4.555 7.927 4.363c-4.954-.873-9.103-.822-12.064-.534-4.576.444-7.326 1.507-7.654 1.638l-37.649 13.019 6.285-19.696 26.703-3.345zm5.02 11.978L98.493 131l-17.54-.065.082.2-.408-.23-31.343 28.814-5.815-20.738 38.345-13.26zm-6.603 12.834l-3.868 20.444 1.338 6.012-19.119 13.247-3.744-16.359 25.393-23.344zm-2.05 28.513l5.465 22.866 6.78 11.865-30.768-21.896 18.523-12.835zM87.79 205.91l3.075 3.882 4.332 46.391-21.763-26.173-2.217-19.768-11.366-18.623-4.299-8.649 32.238 22.94zm5.314 6.708l14.458 18.254 14.94 20.411.786.402 11.608.093-17.233 27.141-22.21-41.744-.053.028-2.296-24.585zm30.693 37.106l-11.337-15.49 9.639 6.495.759.145 13.58-2.963 1.559.057 13.569 3.134.761-.136 9.723-6.377-11.54 15.347-26.713-.212zm27.192 2.182l.793-.392 15.211-20.228 14.702-18.078-2.623 24.552-.057-.03-22.769 41.485-17.139-27.404 11.882.095zm32.982-41.498l3.128-3.845 32.539-22.55-4.413 8.595-11.497 18.301-.116.184-2.481 19.74-22.109 25.908 4.949-46.333zm5.569-7.929l6.936-11.778 5.77-22.8 18.351 13.057-31.057 21.521zm13.215-36.629l1.417-5.995-3.594-20.491 25.08 23.648-3.964 16.314-18.939-13.476zm-7.492-34.2l-.41.224.083-.198-17.593-.147 16.804-5.077 38.163 13.721-6.091 20.666-30.956-29.189zm52.879 27.121l.016.055 2.825 6.549-16.565-26.226-5.606-18.412 12.228 14.277 7.102 23.757zm-7.771-27.561l-12.646-14.765-.064-.075-22.771-17.8 19.344 9.323-.426-75.802 16.563 99.119zm-18.122-26.456l-24.227-11.676-2.845-35.57 20.198-36.327 6.417 2.466.457 81.107zm-.848-83.363l-6.914-2.656-21.317 38.339 2.719 33.98-20.573-21.39 40.657-58.36 5.428 10.087zm-49.68 34.482l36.929-37.499-35.159 50.47-10.095 1.29 8.325-14.261zm-56.081-4.436l45.674.328 8.233 3.932-17.931 30.716-13.474-8.868-13.271 8.646-17.515-30.922 8.284-3.832zm-10.461 3.98l8.135 14.362-10.079-1.412L68.749 17.47l36.43 37.947zm-43.651-45.1L101.4 69.162 80.544 90.303l3.172-33.943-20.81-38.605-7.017 2.722 5.639-10.16zM55.312 22.81l6.687-2.595L81.703 56.77l-3.32 35.533-24.385 11.385 1.314-80.88zm-2.12 9.432L51.98 106.8l19.459-9.085-22.926 17.462-.078.06-12.906 14.685 17.663-97.68zM27.349 157.495l.024-.053 7.435-23.724 12.42-14.131-5.853 18.342-16.91 26.019 2.884-6.453zm-6.271 15.271l20.833-32.054 5.648 20.143.03.132-9.559 4.178.054-.072-17.007 7.673zm-3.603 20.016l18.188-24.436 12.372-5.409 3.745 16.357-27.068 10.88-7.237 2.608zm18.178 18.999l-10.873 9.062 1.239-29.076 26.43-10.624 5.328 10.718-22.123 19.92zm9.5 27.428l-6.288 6.985-1.563-33.251 21.466-19.327 10.29 16.863-23.905 28.73zm17.542 41.276l-15.672-40.45 22.521-27.066 1.954 17.411-8.803 50.105zm2.389-2.225l7.51-42.758 16.383 75.111-23.893-32.353zm48.359 49.045l-24.752-27.233-14.382-65.936 21.331 25.655 23.496 47.665-5.693 19.849zm-16.01-68.324l-1.575-16.858 21.654 40.699 18.705-29.458-.824 82.623-37.96-77.006zm38.915 78.945l-.266-.541.542.006-.276.535zm1.011-1.963l.819-81.93 18.179 29.068 22.19-40.433-1.8 16.842-39.388 76.453zm22.465-8.325l-5.522-20.267 24.226-47.023 21.673-25.397-15.261 65.755-25.116 26.932zm24.688-16.398l17.385-74.904 6.94 42.843-24.325 32.061zm26.682-29.806l-8.131-50.204 2.185-17.389 22.158 27.336-16.212 40.257zm24.286-34l-6.193-7.061-23.521-29.015 10.516-16.739 21.205 19.584-2.007 33.231zm3.671-34.372l-21.855-20.184 5.471-10.654 26.287 10.941.85 29.09-10.753-9.193zm-15.69-32.678l3.963-16.311 12.299 5.557 17.861 24.655-7.205-2.696-26.918-11.205z" stroke="#191918" stroke-miterlimit="10"/><path d="M263 198.421l-19.616-27.078 15.409 7.181-8.784-20.36-7.127-23.842-18.699-111.895L216.314 7.8l-45.59 46.292-8.959-4.28-46.552-.334-9.016 4.171L61.23 6.812 53.167 21.34 32.974 133.002l-7.445 23.755-9.056 20.253 15.503-6.993L12 196.855l12.018-4.331-1.393 32.684 12.783-10.653 1.716 36.521 8.433-9.368 17.854 46.077 1.202-6.842 28.243 38.244-3.327-15.258 24.831 27.32 6.068-21.158 15.88 32.216 16.66-32.338 5.886 21.602 25.193-27.016-3.532 15.217 28.754-37.901 1.11 6.856 18.469-45.86 8.306 9.469 2.205-36.497 12.639 10.805-.956-32.698L263 198.421zm-25.653-32.059l.052.072-9.504-4.294.032-.131 5.917-20.075 20.405 32.304-16.902-7.876zm-41.5-31.447l2.663 2.51-.263.047 3.917 22.336-1.475 6.237-5.984 23.644-14.723 8.469-.406.449-4.279 9.51-8.505-25.19 5.415-7.843 9.63-4.225.498-.492 10.924-23.905c.226-.447 2.782-5.624 2.588-11.547zm-118.546 1.727l2.696-2.479c-.272 5.92 2.214 11.126 2.434 11.575l10.603 24.035.494.498 9.572 4.342 5.308 7.906-8.841 25.086-4.15-9.56-.401-.454-14.609-8.645-5.668-23.713-1.39-6.255 4.214-22.286-.262-.05zm82.495 12.61l-.115.183.23.144.398 1.135.054-.008 10.076 23.479-11.889 17.22-3.79-24.078 3.471-22.538 1.565 4.463zm-5.208-26.593l10.238-23.817 9.714 7.382 6.555 11.37-14.272 7.626-8.536 13.08-3.699-15.641zm-40.99 85.614l-12.509.93 8.686-24.646 6.281 9.354-2.458 14.362zm3.4-8.212l.946-5.527 10.096-1.809 18.984.169 10.073 1.93.872 5.539-11.243-4.487-.67-.022-7.448 2.431-2.199-.069-7.439-2.519-.669.014-11.303 4.35zm41.995-5.837l6.405-9.278 8.356 24.749-12.496-1.081-2.265-14.39zm-6.201-27.044l.001.302 3.98 25.278-9.465-1.814-.177-.017-19.163-.169-.183.015-9.487 1.7 4.316-25.227.004-.302-3.279-23.356 18.512 21.151 18.527-20.842-3.586 23.281zm-32.143-.113l-4.112 24.032-11.657-17.362 10.389-23.357.053.008.413-1.129.231-.142-.112-.183 1.626-4.444 3.169 22.577zm-11.501-42.248l-14.168-7.797 6.707-11.291 9.812-7.264 9.918 23.937L117.509 138l-8.361-13.181zm7.669 15.76l-2.275 6.218-9.583-15.617.053-.167-19.827-6.274a34.353 34.353 0 014.2-.653c4.107-.389 10.617-.299 18.425 2.295l9.007 14.198zm-32.374-1.028l13.105 8.117 15.706 2.404-9.989 22.458-8.582-3.893-10.461-23.711-.02-.041c-.03-.059-2.692-5.518-2.192-11.331l2.433 5.997zm9.296 59.571l10.711 24.667-15.16-19.139-7.046-12.331 11.495 6.803zm7.376 12.049l12.942-.962c.558.517 1.295.974 2.202 1.372 1.85 1.375 4.241 3.531 4.875 5.853 1.109 4.065.598 7.176.594 7.205l.835 1.142 9.023 1.24 1.957 3.488-8.343 2.774-16.149-3.838-7.936-18.274zm33.972 18.073l-1.346-2.399 3.488-.607.025.03 3.614.674-1.373 2.372h-2.185l-2.223-.07zm14.24 4.238l-8.285-2.911 1.982-3.426 9.04-1.131.848-1.131c-.005-.031-.481-3.117.691-7.197.664-2.313 3.091-4.443 4.961-5.798.91-.386 1.649-.834 2.212-1.342l12.927 1.118-8.178 18.177-16.198 3.641zm31.912-33.778l11.583-6.662-7.209 12.242-15.412 18.953 11.038-24.533zm10.261-54.119l-.021.041-10.776 23.584-8.634 3.789-9.688-22.576 15.738-2.214 13.212-7.959 2.513-5.967c.421 5.818-2.315 11.243-2.344 11.302zm-20.556-13.982l-9.808 15.528-2.191-6.243 9.196-14.089c7.843-2.499 14.352-2.512 18.453-2.073 1.659.177 3.066.44 4.185.702l-19.886 6.008.051.167zm15.955-8.821c-2.957-.324-7.103-.424-12.067.387l7.983-4.266 16.512-4.357 26.658 3.671 6.018 19.768-37.474-13.473c-.328-.136-3.063-1.231-7.63-1.73zm12.307-10.236l-16.276 4.294-6.283-10.897 20.342-11.042 26.923 21.046-24.706-3.401zm-23.825-8.152l-22.152-16.835 8.916-15.272 11.537-1.475 21.803 22.67-20.104 10.912zm-12.168-6.779l-10.688 24.864 4.257 18.006-18.92 21.284-18.876-21.568 4.496-17.95-10.354-24.99 11.963-8.858 13.044-8.498 13.238 8.713 11.84 8.997zm-62.345 6.276L80.914 92.738l22.105-22.407 11.516 1.614 8.711 15.379-22.378 16.567zm-1.285 1.533l-6.428 10.821-16.218-4.49-24.744 3.101 27.2-20.717 20.19 11.285zm-22.792 8.33l16.452 4.555 7.927 4.362c-4.954-.873-9.103-.821-12.064-.533-4.576.444-7.326 1.507-7.654 1.638l-37.649 13.019 6.285-19.696 26.703-3.345zm5.02 11.978l16.68 5.279-17.54-.065.082.2-.408-.23-31.343 28.814-5.815-20.738 38.345-13.26zm-6.603 12.834L71.34 159.01l1.337 6.011-19.119 13.247-3.744-16.358 25.393-23.344zm-2.05 28.514l5.466 22.866 6.78 11.865-30.768-21.896 18.523-12.835zm14.631 38.841l3.075 3.882 4.332 46.392-21.762-26.173-2.217-19.768L59.85 191.63l-4.299-8.648 32.237 22.939zm5.314 6.709l14.458 18.254 14.94 20.41.786.403 11.608.093-17.233 27.141-22.21-41.746-.054.029-2.295-24.584zm30.693 37.105l-11.337-15.489 9.639 6.495.759.145 13.58-2.963 1.559.057 13.569 3.133.761-.136 9.723-6.376-11.54 15.347-26.713-.213zm27.193 2.183l.793-.392 15.211-20.228 14.702-18.078-2.624 24.552-.056-.031-22.768 41.488-17.139-27.404 11.881.093zm32.982-41.498l3.128-3.845 32.539-22.55-4.413 8.594-11.497 18.301-.116.184-2.481 19.74-22.109 25.909 4.949-46.333zm5.569-7.93l6.936-11.779 5.77-22.799 18.351 13.057-31.057 21.521zm13.215-36.63l1.417-5.994-3.594-20.492 25.08 23.649-3.964 16.313-18.939-13.476zm-7.493-34.199l-.41.224.083-.198-17.593-.147 16.804-5.077 38.163 13.721-6.091 20.667-30.956-29.19zm52.879 27.122l.016.055 2.825 6.548-16.565-26.226-5.606-18.411 12.228 14.277 7.102 23.757zm-7.771-27.561l-12.646-14.766-.064-.074-22.771-17.8 19.344 9.322-.426-75.801 16.563 99.119zm-18.122-26.456l-24.226-11.675-2.845-35.57 20.198-36.328 6.417 2.466.456 81.107zm-.848-83.363l-6.914-2.657-21.317 38.338 2.719 33.981-20.573-21.391 40.657-58.36 5.428 10.089zm-49.68 34.48l36.929-37.498-35.16 50.47-10.095 1.291 8.326-14.263zm-56.081-4.436l45.674.329 8.233 3.932-17.931 30.715-13.475-8.868-13.271 8.646-17.514-30.92 8.284-3.834zm-10.46 3.98l8.135 14.363-10.079-1.412-34.486-50.896 36.43 37.945zM61.527 10.33L101.4 69.174 80.543 90.315l3.172-33.943-20.81-38.606-7.017 2.722 5.639-10.159zm-6.215 12.49l6.686-2.594 19.705 36.555-3.32 35.534-24.386 11.384 1.315-80.879zm-2.12 9.433L51.98 106.81l19.459-9.084-22.926 17.462-.078.06-12.906 14.684 17.663-97.68zM27.348 157.506l.024-.052 7.435-23.725 12.42-14.13-5.853 18.342-16.91 26.019 2.884-6.454zm-6.27 15.272l20.832-32.054 5.65 20.143.029.131-9.559 4.179.054-.072-17.007 7.673zm-3.603 20.016l18.188-24.437 12.372-5.408 3.745 16.357-27.068 10.879-7.237 2.609zm18.178 18.999l-10.874 9.061 1.239-29.076 26.43-10.623 5.328 10.718-22.123 19.92zm9.5 27.426l-6.29 6.986-1.562-33.252 21.466-19.326 10.29 16.863-23.904 28.729zm17.542 41.277l-15.672-40.449 22.521-27.066 1.953 17.411-8.802 50.104zm2.388-2.226l7.51-42.757 16.383 75.11-23.893-32.353zm48.359 49.046L88.69 300.083l-14.383-65.935 21.331 25.655 23.496 47.664-5.692 19.849zm-16.01-68.323l-1.574-16.858 21.654 40.7 18.705-29.459-.825 82.624-37.96-77.007zm38.915 78.945l-.266-.541.542.005-.276.536zm1.011-1.963l.819-81.931 18.179 29.068 22.19-40.432-1.8 16.841-39.388 76.454zm22.465-8.326l-5.522-20.268 24.226-47.023 21.673-25.396-15.261 65.755-25.116 26.932zm24.688-16.397l17.385-74.905 6.94 42.844-24.325 32.061zm26.682-29.807l-8.131-50.204 2.185-17.389 22.158 27.336-16.212 40.257zm24.287-33.999l-6.194-7.061-23.52-29.016 10.516-16.739 21.205 19.584-2.007 33.232zm3.67-34.372l-21.855-20.184 5.471-10.654 26.287 10.941.85 29.09-10.753-9.193zm-15.69-32.679l3.963-16.311 12.299 5.558 17.861 24.654-7.205-2.696-26.918-11.205z" fill="#191918"/></g><defs><filter id="filter0_d" x=".608" y=".965" width="283.769" height="367.441" filterUnits="userSpaceOnUse" color-interpolation-filters="sRGB"><feFlood flood-opacity="0" result="BackgroundImageFix"/><feColorMatrix in="SourceAlpha" values="0 0 0 0 0 0 0 0 0 0 0 0 0 0 0 0 0 0 127 0"/><feOffset dx="5" dy="10"/><feGaussianBlur stdDeviation="7.5"/><feColorMatrix values="0 0 0 0 0.416667 0 0 0 0 0.416667 0 0 0 0 0.354167 0 0 0 0.5 0"/><feBlend in2="BackgroundImageFix" result="effect1_dropShadow"/><feBlend in="SourceGraphic" in2="effect1_dropShadow" result="shape"/></filter></defs></svg>