<svg width="34" height="36" fill="none" xmlns="http://www.w3.org/2000/svg"><path d="M11.035 23.65c-1.452-1.521-2.274-3.592-2.274-5.758 0-2.165.822-4.236 2.274-5.757 1.452-1.52 3.413-2.368 5.45-2.368 2.038 0 3.999.847 5.45 2.368 1.453 1.521 2.275 3.592 2.275 5.757 0 2.166-.822 4.237-2.274 5.758-1.452 1.52-3.413 2.368-5.45 2.368-2.038 0-3.999-.847-5.45-2.368zm9.884-1.162a6.657 6.657 0 001.82-4.596c0-1.717-.65-3.37-1.82-4.595a6.133 6.133 0 00-4.435-1.92 6.134 6.134 0 00-4.436 1.92 6.657 6.657 0 00-1.82 4.595 6.66 6.66 0 001.82 4.596 6.132 6.132 0 004.436 1.92c1.67 0 3.265-.695 4.435-1.92zM7.701 7.345c.645 0 1.226.557 1.226 1.319 0 .762-.581 1.32-1.226 1.32-.644 0-1.225-.558-1.225-1.32s.58-1.32 1.225-1.32z" stroke="#369" stroke-width="1.5"/><path d="M.848 10.793v-.017a12.5 12.5 0 01.725-3.954 8.14 8.14 0 011.74-2.799 7.664 7.664 0 012.658-1.815c1.216-.479 2.5-.734 3.797-.754h.017l.017-.002c1.727-.106 2.271-.106 6.753-.106 4.472 0 5.018.025 6.765.107h.02c1.28.027 2.544.28 3.743.751A7.68 7.68 0 0129.74 4.02a8.156 8.156 0 011.742 2.798 12.47 12.47 0 01.723 3.954v.013l.001.014c.1 1.808.1 2.388.1 7.08 0 4.681-.024 5.255-.1 7.09h0v.007a12.406 12.406 0 01-.778 3.955l-.001.002a8.15 8.15 0 01-1.742 2.803 7.672 7.672 0 01-2.657 1.817 10.858 10.858 0 01-3.746.75h-.015l-.015.002c-1.727.106-2.273.106-6.753.106-4.472 0-5.018-.025-6.765-.107h-.02a10.842 10.842 0 01-3.743-.751 7.653 7.653 0 01-2.658-1.815 8.13 8.13 0 01-1.74-2.8A12.355 12.355 0 01.85 24.99v-.013l-.001-.013c-.098-1.81-.098-2.39-.098-7.08 0-4.683.022-5.257.098-7.09zm25.678-7.046a9.64 9.64 0 00-2.612-.61v-.024l-.714-.034c-1.77-.083-2.27-.083-6.709-.083h-.024c-4.461 0-4.971.02-6.723.104a9.69 9.69 0 00-3.304.646h0l-.012.005a6.228 6.228 0 00-2.161 1.473 6.524 6.524 0 00-1.399 2.249h0l-.003.008a10.67 10.67 0 00-.613 3.432c-.1 1.864-.1 2.376-.1 7.013v.025c0 4.674.021 5.205.1 7.037a10.77 10.77 0 00.613 3.432h0l.003.008c.623 1.705 1.91 3.069 3.56 3.737h0l.011.005a9.615 9.615 0 003.336.646c1.784.102 2.274.102 6.699.102h.026c4.46 0 4.972-.019 6.722-.102a9.69 9.69 0 003.304-.646h0l.012-.005a6.204 6.204 0 002.164-1.48 6.515 6.515 0 001.395-2.258h0l.002-.005c.39-1.1.597-2.26.613-3.43.1-1.866.1-2.376.1-7.015v-.026c0-4.67-.02-5.204-.1-7.035a10.723 10.723 0 00-.613-3.434h0l-.003-.009a6.518 6.518 0 00-1.397-2.249 6.207 6.207 0 00-2.162-1.473h0l-.01-.004z" stroke="#369" stroke-width="1.5"/></svg>