<svg width="271" height="296" fill="none" xmlns="http://www.w3.org/2000/svg"><path d="M270.896 84.94H168.729l-29.062-14.787-.74-.116-24.295 3.868-.765.449L103.78 87.06l-.271.779v17.294l-13.672 3.926C64.355 72.753 16.757 4.764 15.087 1.716A1.5 1.5 0 0013.971.77c-.932-.185-2.084.36-5.216 3.686a86.813 86.813 0 00-3.17 3.575l-.277.631L0 47.89l.005.368 2.124 13.26.039.166 10.087 33.15.055.15 15.926 35.361.024.05 15.717 31.079-7.853 32.147-.036.298v47.517l.062.39 17.518 53.593 2.17.319 10.617-15.47.189-.439 4.154-18.92 7.636-6.358.447-.959v-44.598l41.867-25.055.43-.432 18.987-32.218.126-.297 10.12-35.973 19.098-18.797L271 87.418l-.104-2.478zm-110.761-1.594l-3.428 5.867h-15.141l-1.078-15.863 19.647 9.996zm-18.333 14.332l5.562 14.927-17.978-4.361c-.198-3.169-.904-12.809-1.181-16.549h11.367l2.23 5.983zm-4.61 50.479l-30.993-17.322c2.121-1.849 6.454-5.638 10.746-9.441a632.354 632.354 0 008.319-7.478c.955-.877 1.735-1.611 2.335-2.192l9.593 36.433zm.795-75.458l1.121 16.514h-11.633l-10.382-13.187 20.894-3.327zm-34.524 35.027l-.53 19.641L91.36 111.2l12.103-3.474zm-13.179 6.201l12.138 16.958-14.662 13.437 2.524-30.395zm-23.896 48.637l-11.003 19.569-8.25-19.569h19.253zM48.07 160.08l19.203-21.142v21.142H48.069zm8.681 24.644l11.184-19.89 7.721 39.583-18.905-19.693zm29.411-35.705l29.013 30.441-44.254-18.469 15.241-11.972zm-16.437 9.769v-20.757l14.436 9.418-14.436 11.339zm15.505-13.595l-14.9-9.722 17.464-21.17-2.564 30.892zm-16.523-11.627l-17.37-31.842 35.825 9.474-18.455 22.368zM49.698 98.724L31.42 65.22l52.645 42.592-34.367-9.088zm-3.145-.628l-31.21-5.806L32.44 72.226l14.112 25.87zm4.292-40.412a42122.353 42122.353 0 0032.436 46.318L28.644 59.796l2.787-29.94c5 7.187 11.349 16.29 19.414 27.828zM26.29 60.948l3.857 7.071-23.622-7.047L27.13 49.601l-.989 10.629.148.718zM7.69 9.357c2.195-2.612 4.502-4.996 5.625-5.845 1.053 1.653 4.328 6.5 14.843 21.637H5.552L7.69 9.357zM2.454 48.04l2.604-19.237L26.413 47.17 4.27 59.389 2.454 48.04zm2.728 15.122l25.31 7.55L13.534 90.61 5.182 63.162zm25.272 66.126L14.89 94.733l32.062 5.963-16.362 28.86-.137-.267zm18.404-26.968l17.445 31.98-33.761-3.198 16.316-28.781zm-16.22 31.284l33.283 3.151-20.355 22.413-12.929-25.564zm12.949 31.614l8.058 19.109-14.507 7.289 6.449-26.398zm-7.047 33.077l13.343 21.902-13.343 17.584v-39.486zm.141 43.375l13.532-17.834 1.233 63.001-14.765-45.167zm13.673-25.428l-13.292-21.816 14.829-7.45-1.537 29.266zm16.564 43.019l-.42.691-4.194 19.098-8.322 12.126-1.31-67.026 21.31 29.23-7.064 5.881zm7.516-9.442L55.23 220.737l21.203-10.466v39.549zm1.599-46.029l-7.89-40.44 19.925 8.315-12.035 32.125zm2.013 1.624l11.58-30.909 7.231 19.65-18.811 11.259zm20.958-12.541l-7.237-19.662 23.621 9.857-16.384 9.805zm18.894-12.034l-31.856-33.424 16.193-14.842 33.18 18.544-17.517 29.722zm19.258-34.858l-9.23-35.051 17.871 4.335-8.641 30.716zm10.658-33.833l-5.876-16.494c.228.01 7.037-.183 7.037-.183l-.789-3.775h6.195l2.122 11.897-8.689 8.555zm18.307-18.02l-.006.002-7.493 7.377-1.93-10.819 3.639-6.226 5.555 2.825 4.711 2.467-4.476 4.374z" fill="#000"/></svg>