<svg width="225" height="284" fill="none" xmlns="http://www.w3.org/2000/svg"><path d="M225 162.646l-17.44-22.705 13.534 5.948-8.032-17.558-6.352-20.04-16.656-94.007-.029-.164-7.16-12.55-40.76 39.035-7.909-3.562-41.62-.283-7.958 3.473L44.414.736l-7.337 12.465-18.016 93.975-6.636 19.967-8.281 17.467 13.616-5.794L0 161.323l11.052-3.756-1.25 27.64 11.442-8.992 1.535 30.806 7.627-7.991 16.066 39.102 1.113-5.981 25.467 32.52-3.008-13.005 21.904 22.727 5.372-17.665 14.117 27.009 14.811-27.114 5.212 18.041 22.223-22.475-3.192 12.97 25.927-32.229 1.029 5.993 16.618-38.917 7.512 8.077 1.972-30.787 11.313 9.122-.858-27.652 10.996 3.88zm-8.848-21.152l-15.157-6.661.057.074-7.675-3.27 5.146-16.465 17.629 26.322zm-46.153-11.724l-1.306 5.21-5.319 19.82-13.066 7.087-.441.461-3.616 7.581-7.401-20.673 4.745-6.482 8.542-3.535.543-.504 9.745-20.111c.211-.394 2.37-4.537 2.336-9.368l1.94 1.725-.188.031 3.486 18.758zm-110.97-19.445l1.964-1.703c-.102 4.829 1.997 8.995 2.203 9.392l9.459 20.22.537.511 8.49 3.632 4.653 6.535-7.693 20.588-3.509-7.62-.436-.466-12.964-7.235-5.038-19.88-1.232-5.225 3.754-18.715-.188-.034zm66.929 25.937l3.507 21.015-8.177-1.478-.191-.017-17.098-.143-.199.015-8.195 1.385 3.805-20.973.005-.309-2.836-19.051 16.235 17.495 16.243-17.232-3.101 18.983.002.31zm3.86 23.13l.705 4.221-9.719-3.657-.728-.022-6.613 2.035-1.9-.056-6.611-2.111-.727.014-9.768 3.547.765-4.212 8.857-1.497 16.901.141 8.838 1.597zm-32.544-23.511l-3.582 19.748-10.074-14.15 9.167-19.436.058.009.505-1.304.107-.062-.052-.08 1.155-2.977 2.716 18.252zm-9.93-35.682l-12.51-6.493 5.864-9.31 8.525-5.952 8.73 19.873-3.361 12.656-7.248-10.774zm6.494 13.418l-1.861 4.797-8.429-12.955.028-.085-16.983-5.069c3.843-.699 10.713-1.181 19.296 1.495l7.949 11.817zm-28.826-.764l11.779 6.881 13.803 1.993-8.732 18.514-7.414-3.172-9.303-19.888-.021-.043c-.025-.046-2.133-4.103-1.987-8.643l1.875 4.358zm8.297 50.128l8.947 19.434-12.607-15.01-5.92-9.77 9.58 5.346zM87.82 151l5.348 7.511-2.155 11.873-10.718.751L87.82 151zm43.576 4.888l-3.302-19.785 2.975-18.221 1.113 2.989-.054.08.106.063.488 1.31.058-.007 8.89 19.537-10.274 14.034zm-3.447-57.355l9.013-19.773 8.44 6.05 5.73 9.374-12.602 6.351-7.398 10.69-3.183-12.691zm9.384 52.794l7.239 20.22-10.707-.873-1.986-11.897 5.454-7.45zm23.992 6.91l-6.056 9.699-12.815 14.863 9.22-19.328 9.651-5.234zm-.817-40.512l-.022.042-9.585 19.782-7.459 3.088-8.468-18.611 13.831-1.836 11.875-6.745 1.935-4.334c.077 4.527-2.081 8.568-2.107 8.614zm-18.242-11.911l-8.628 12.882-1.791-4.817 8.115-11.726c6.927-2.071 12.676-2.083 16.302-1.719 1.144.114 2.152.273 3.011.44l-17.037 4.855.028.085zm14.329-7.374c-2.428-.25-5.751-.344-9.713.171l6.12-3.084 14.673-3.651 23.625 3.068 5.222 16.178-33.07-11.214c-.322-.126-2.781-1.047-6.857-1.468zm10.947-8.617l-14.416 3.588-5.434-8.889 17.866-9.146 23.36 17.223-21.376-2.776zm-21.226-6.89l-19.531-13.997 7.822-12.635 10.103-1.218 19.211 18.839-17.605 9.011zm-11.11-5.43l-9.502 20.847 3.791 15.118-16.67 17.685-16.63-17.924 4.002-15.07-9.205-20.953 10.549-7.365 11.526-7.083 11.7 7.262 10.439 7.484zm-55.4 5.007l-17.474-9.212 19.477-18.62 10.084 1.334 7.64 12.723L79.807 82.51zm-1.399 1.573l-5.56 8.826-14.364-3.751-21.408 2.53 23.6-16.953 17.732 9.348zm-20.082 7.125l14.62 3.818 6.076 3.154c-3.956-.56-7.281-.504-9.713-.282-4.08.374-6.552 1.267-6.876 1.39l-33.224 10.835 5.453-16.119 23.664-2.796zm4.497 10.085l13.622 4.066-14.677-.051.053.124-.19-.101-27.733 24.045-5.055-17.001 33.98-11.082zm-6.192 11.112l-3.35 16.703 1.174 4.976-16.718 10.925-3.253-13.401 22.148-19.203zm-1.654 23.789l4.818 19.008 5.63 9.291-26.519-17.797 16.072-10.502zm13.041 32.515l2.692 3.205 3.802 38.4-18.982-21.532-1.977-16.619-10.157-15.699-3.492-6.624 28.114 18.869zm5.127 6.103l12.496 14.879 13.327 17.17.854.413 10.012.075-15.015 22.3-19.66-34.85-.034.016-1.98-20.003zm7.18-1.657l11.193-.784c.514.436 1.173.821 1.98 1.155 1.706 1.215 3.7 2.993 4.218 4.787.977 3.376.53 5.96.527 5.983l.907 1.171 7.956 1.032 1.586 2.665-7.172 2.249-14.261-3.197-6.934-15.061zm30.14 14.868l-1.015-1.707 2.786-.457.013.014 2.959.521-1.033 1.684h-1.836l-1.874-.055zm12.601 3.557l-7.122-2.361 1.605-2.616 7.971-.94.923-1.158c-.005-.026-.413-2.615.61-5.981.544-1.784 2.57-3.544 4.296-4.742.808-.324 1.47-.7 1.988-1.129l11.179.912-7.146 14.98-14.304 3.035zm15.903-1.541l12.705-14.735-2.264 19.977-.036-.018-20.156 34.637-14.932-22.517 10.252.077.863-.402 13.568-17.019zm15.18-17.605l2.738-3.173 28.379-18.548-3.584 6.582-10.379 15.581-2.212 16.596-19.286 21.314 4.344-38.352zm5.392-7.362l5.758-9.224 5.087-18.953 15.921 10.684-26.766 17.493zm11.397-30.28l1.244-4.962-3.113-16.742 21.873 19.453-3.442 13.365-16.562-11.114zm-6.767-28.832l-.191.098.055-.123-14.722-.116 13.724-3.91 33.82 11.467-5.296 16.943-27.39-24.359zm46.86 23.005l.018.056 1.552 3.395-13.454-20.09-4.726-14.641 10.287 11.327 6.323 19.953zm-7.052-23.855l-10.903-12.005-18.928-13.954 15.93 7.24-.367-61.814 14.268 80.533zM187.92 83.172l-21.238-9.653-2.525-29.772 17.912-30.381 5.447 1.974.404 67.832zm-.978-70.2l-5.841-2.116-19.127 32.445 2.387 28.141-17.873-17.526 36.004-48.743 4.45 7.8zm-43.754 29.47l31.344-30.017-30.029 40.65-8.535 1.03 7.22-11.664zM93.04 38.777l40.664.276 7.118 3.207-15.79 25.51-11.958-7.422-11.774 7.235-15.423-25.68 7.163-3.126zm-9.53 3.277L90.566 53.8l-8.523-1.127L52.59 11.68l30.922 30.376zM44.738 4.344L80.05 53.49 61.928 70.813l2.785-28.11L46.039 10.03l-5.924 2.167 4.622-7.853zm-5.372 10.29l5.687-2.082 17.472 30.57-2.946 29.743L38.2 82.278l1.165-67.645zm-2.31 10.03l-1.05 60.804 16.023-7.055L32.91 92.147l-11.072 11.881 15.217-79.364zM14.428 127.859l6.625-19.936L31.5 96.712l-4.935 14.586-13.734 19.93 1.597-3.369zm-5.28 12.412l18-26.119 4.911 16.521-7.718 3.183.059-.074-15.252 6.489zm-3.197 16.885l15.817-20.041 10.78-4.444L35.8 146.07l-23.993 9.096-5.855 1.99zm15.559 16.225l-9.367 7.361 1.082-23.941 23.302-8.833 4.61 8.747-19.627 16.666zm8.455 23.096l-5.296 5.549-1.368-27.454 18.913-16.059 8.989 13.893-21.238 24.071zm15.727 34.179L32 197.325l19.733-22.367 1.689 14.202-7.729 41.496zm2.404-1.247l6.518-34.996 14.217 61.476-20.735-26.48zM90.95 270.36l-21.818-22.638-12.653-54.709 18.514 21 20.92 40.025-4.963 16.322zm19.487 6.908l-33.495-64.085-1.312-13.253 19.025 33.724 16.504-24.514-.722 68.128zm-10.063-72.005l-9.41-12.125 7.69 4.887.826.148 12.092-2.488 1.348.047 12.089 2.633.827-.14 7.754-4.796-9.577 12.012-23.639-.178zm11.103 73.995l-.026-.051h.054l-.028.051zm1.099-2.011l.715-67.557 16.046 24.195 19.495-33.5-1.5 13.24-34.756 63.622zm19.938-6.605l-4.817-16.672 21.57-39.486 18.811-20.789-13.426 54.558-22.138 22.389zm22.322-14.221l15.087-61.307 6.022 35.066-21.109 26.241zm23.494-24.966l-7.14-41.577 1.891-14.184 19.414 22.588-14.165 33.173zm21.425-28.389l-5.216-5.608-20.896-24.311 9.187-13.791 18.682 16.272-1.757 27.438zm3.565-28.606l-19.392-16.89 4.737-8.692 23.174 9.097.742 23.952-9.261-7.467zm-13.9-27.469l3.442-13.363 10.716 4.566 15.533 20.22-5.828-2.057-23.863-9.366z" fill="#000"/></svg>