<svg width="395" height="197" fill="none" xmlns="http://www.w3.org/2000/svg"><path d="M341.982 106.176a431.542 431.542 0 01-8.15-3.87c-3.632-2.228-8.873-3.5-11.331-7.228-.488 1.225.096 2.921-.984 3.248-1.739.548-3.681-2.345-4.839-1.712-1.622.888.359 4.432-1.448 5.301-1.722.561-3.753-2.844-5.866-2.347-.873.363-.279 3.254-1.108 3.464-3.194.384-6.075-3.21-9.172-3.133-2.12.051-.258 4.397-1.744 4.395-4.912.179-9.068-5.337-13.417-4.415-1.681.456-.537 5.819-2.134 6.729-3.195 1.819-7.727-3.643-11.32-2.135-2.031.942.468 7.154-1.563 7.72-1.406.283-2.851-.799-4.297-1.789-1.172-1.035-3.203-2.353-4.297-.847-.782 1.13.312 2.824 0 4.33-.312.754-1.094.754-1.719.564-1.563-.564-3.125-2.448-4.688-1.318-1.25.942 0 3.578-1.562 3.954-4.844 1.13-7.344-4.896-9.843-8.85-.782 3.2-.782 6.778-1.563 9.98-1.562-2.072-2.187-4.708-4.218-6.59-1.563-1.318-2.814.376-3.751 1.694-1.094 1.882-4.166 6.089-4.166 6.089s-2.761-6.715-5.052-10.043c-1.116-1.621-2.656-4.518-4.375-2.448-2.656 3.2-3.282 7.908-4.376 12.05-.782 2.637-2.968 5.649-2.656 7.155 2.188 11.862 12.5 17.323 18.126 27.867 2.188 4.142 1.405 9.226 1.25 13.935-2.344-.188-4.062-2.26-6.249-3.2 1.874 5.836 3.907 11.674 5.001 17.889-3.751-3.201-7.656-6.403-11.742-9.017.177 2.616.648 5.108 1.195 7.58.547 2.472 1.172 4.92 1.64 7.461-4.844-3.2-9.219-7.533-13.124-12.239-.626 6.779.625 13.369.782 20.147-4.219-3.2-7.969-6.778-11.251-11.674-.312-.376-.782-.755-1.094-.564-4.062 4.33-7.5 10.168-12.344 12.428.625-6.778.782-13.556 1.25-20.337-4.062 4.897-8.594 9.603-13.75 12.617a167.095 167.095 0 001.679-7.649c.509-2.708.978-5.156 1.446-7.792-4.53 2.072-8.281 6.214-12.499 9.039 1.719-6.027 3.436-12.239 6.249-17.701-2.187 1.318-4.53 2.26-6.718 3.578-.782-4.518.469-8.851 2.5-12.805 5.781-10.356 13.907-17.323 17.969-28.433-4.376-6.591-5.938-14.687-9.689-22.031-.468-.754-1.25-.942-1.874-.376-2.656 2.448-6.145 13.619-6.145 13.619s-3.546-1.986-4.484-3.492c-1.405-2.26-1.557-2.785-3.276-4.667-.937-1.13-2.344-1.13-3.125.376-1.094 1.882-1.719 4.142-3.436 5.272-.783-3.578-2.345-6.966-2.969-10.732-1.405 3.578-2.968 7.908-6.406 9.038-2.5.754-4.687-.564-4.844-3.766-.157-.754-.937-.942-1.406-.942-1.719 0-3.125 1.882-4.844 1.13-1.562-.564-.312-2.636-.468-3.954-.157-.376-.157-.942-.621-.938-2.818-.756-5.629 3.95-7.974 2.822-1.562-.754.312-6.59-1.405-7.157-2.968-1.13-6.719 3.013-10.002 2.449-1.561-2.449.002-8.097-3.905-6.967-3.594 1.13-6.407 6.215-9.843 4.142-.626-.375.625-3.766-.782-3.954-2.969-.376-5.313 4.142-8.281 3.012-.312-.188 0-1.506-.157-2.26-.157-.188-.312-.564-.625-.564-2.188-.376-3.907 3.766-5.313 1.13-.782-1.318.157-3.2.312-4.896-1.874.564-3.282 2.636-5.156 2.636-.937 0-.312-1.694-.314-2.636-6.406 4.708-13.436 8.284-20.311 11.863 1.094-2.448 2.188-5.085 2.968-7.72-6.093 2.071-12.188 3.389-18.438 4.329 1.72-2.636 3.282-5.272 4.688-8.284-4.688 1.13-9.375 1.882-14.219 2.636 1.563-2.448 3.282-4.896 5-7.344-4.843-1.13-9.687-.188-14.374-1.694 2.03-1.694 3.75-3.767 5.469-5.837-5.625-.754-11.094-2.072-16.563-3.578 2.5-1.882 5.155-3.578 7.5-5.648-4.53-2.448-9.375-3.954-14.062-6.402 2.656-1.882 5.47-3.39 8.126-5.273C7.66 57.96 4.224 54.76.629 51.934c3.75-1.882 7.343-3.954 11.094-5.648C7.813 41.582 3.593 37.249 0 31.977c10.416-1.13 20.834-2.01 31.158-4.142a184.495 184.495 0 007.77-1.802c15.186-3.989 30.769-5.966 45.12-12.885-1.845-.494-3.28-1.977-5.33-1.977C90.2 7.217 101.475 1.534 113.61.901a84.344 84.344 0 016.231-.158c2.081.029 4.166.139 6.255.35 3.281.377 5.624 4.33 8.28 7.345 3.164 3.436 6.163 7.016 9.105 10.542 8.239 10.171 16.676 19.776 27.145 27.872.937.707 1.897 1.307 2.886 1.76.331.152.664.288 1.002.405 2.673.659 5.643 1.223 8.068-.771.223-.2.411-.422.538-.681a1.72 1.72 0 00.162-.903c0-.564-1.405 0-2.344-.188.468-1.694 2.344-3.012 1.874-4.896 0-.377-.625-.564-1.094-.377 8.906-9.98 22.031-9.602 30.937-.187-2.5.942.625 3.578.312 5.272-.157.376-.937 0-1.406.188-.469.188-.664.659-.664 1.13 0 .47.195.942.509 1.13 1.874 1.13 3.907 1.318 5.898.847.387-.08.772-.18 1.153-.3 3.816-1.208 7.441-4.43 10.763-7.137 9.063-7.155 15.624-16.005 22.813-24.7 2.344-2.982 4.649-6.37 7.168-9.123 2.518-2.753 5.253-4.872 8.456-5.343 8.594-1.413 17.11-.707 25.605.635 2.853.46 5.698.987 8.56 1.547 2.917.51 5.861 1.093 8.796 1.692 3.062.365 5.933 1.353 8.803 1.847a79.992 79.992 0 00-6.356 3.46c1.436.987 3.076 1.728 4.716 2.472 12.097 3.705 23.579 8.154 35.246 12.29 2.306.644 4.619 1.201 6.941 1.692 11.606 2.457 23.41 3.222 35.032 4.87-4.219 4.33-7.969 8.85-11.876 13.557 3.594 1.506 7.032 3.766 10.625 5.272-3.125 3.012-6.718 5.272-9.843 8.285 2.345 2.072 5.156 2.824 7.344 5.084-4.062 2.072-8.281 4.142-12.5 5.648 1.72 2.636 4.376 3.766 6.564 5.836-4.844 1.13-9.689 3.012-14.688 3.766 1.72 1.695 3.125 4.143 4.844 5.837-4.375.942-8.594.942-12.968 1.694 1.406 2.448 3.125 4.518 4.062 7.344-4.53-.376-8.906-1.13-13.281-2.072 1.094 2.824 2.499 5.272 3.593 8.096-5.781-.376-11.405-1.694-16.967-2.943a772.92 772.92 0 012.073 7.289zm-160.55-53.758c-2.994-1.798-5.493 1.59-7.108 4.296a26.08 26.08 0 00-.645 1.337c-2.034 4.542-3.055 9.73.072 13.092 6.563 7.533 15.664 17.466 23.125 16.947 6.248-.434 20.156-9.414 24.218-20.713 1.003-2.856.57-5.903-.524-8.807a23.259 23.259 0 00-.51-1.234c-1.155-3.706-4.123-6.906-6.623-4.646-.937.942.157 3.767 1.562 5.085-.625.376-1.874-.188-1.562 1.13.469 1.694 2.031 2.824 2.179 4.7.021.347-.017.667-.148.948-.312.847-1.172.518-2.188.14a11.01 11.01 0 00-1.054-.35c-.82-.356-1.445-.168-2.071.21-.292.235-.581.467-.865.698-1.993 1.603-4.702 2.588-6.478 4.511-1.753 1.898-1.874 3.83-3.282 6.09-.937 1.505-2.188 3.39-3.593 2.072-2.5-2.26-2.345-6.967-5.156-8.475-2.5-1.318-4.844-3.012-7.344-4.708-1.562-1.13-3.436 1.506-4.687 0-.782-1.035-.43-2.213.059-3.46.164-.414.343-.838.519-1.255.202-.745.984-1.497.673-2.44-.312-.563-1.094 0-1.563-.187.937-1.13 2.188-2.26 2.691-4.013.11-.313.209-.635.303-.968zm-93.52-40.685c5.566 5.616 13.563 2.651 19.647.22 2.132-.54 4.229-.922 6.22-.875 1.993.048 3.877.519 5.597 1.694 4.375 3.108 7.265 8.097 9.961 13.488 1.348 2.694 2.648 5.486 4.06 8.17 4.418 10.164 13.636 15.06 21.918 19.392.157-16.57-9.688-29.563-19.084-40.365-3.421-3.576-7.207-6.452-11.543-8.217-2.226-.847-4.53-1.247-6.884-1.342-2.353-.095-4.753.119-7.171.501-6.288 1.09-12.234 3.56-18.221 5.692a735.347 735.347 0 01-4.5 1.642zm150.29 41.997c10.862-5.182 21.799-13.656 26.41-27.448 2.891-5.696 6.016-10.78 10.858-12.946 3.047-1.318 6.445-1.223 10.026-.548 4.05 1.216 8.262 2.718 12.322 2.904 4.06.185 7.983-.94 11.437-4.983-3.468-.856-6.87-1.61-10.261-2.306a449.385 449.385 0 00-10.185-1.953c-3.349-.512-6.683-.838-10.003-.815-3.315.026-6.616.405-9.897 1.297-3.81 1.059-7.023 3.442-9.951 6.484-5.987 8.769-15.207 15.547-17.995 26.71-.561 4.652-1.617 9.027-2.761 13.604zm-63.398 24.358c-.115.024-.115.024-.27.024 1.094 4.33 2.031 8.474 2.813 12.992.312 2.01.596 4.013.881 6.02 2.087 12.999 4.9 26.368 11.463 37.291 5.938-6.403 5.938-16.571 1.868-24.322-.838-1.992-1.794-3.928-2.813-5.838-3.056-5.726-6.665-11.204-9.272-17.163a499.336 499.336 0 00-4.67-9.004zm43.239.614c-2.523 4.511-5.162 9.003-7.65 13.595a164.56 164.56 0 00-3.586 6.977c-3.681 7.647-7.274 15.931-7.274 24.782 0 3.766 2.499 10.356 4.687 8.662 9.22-7.344 7.344-23.725 10.051-35.955.58-3.111 1.184-6.16 1.813-9.166a455.65 455.65 0 011.959-8.895zM197.1 70.427a39.275 39.275 0 00-1.547-4.125 45.399 45.399 0 00-.604-1.32c-.418-.996-.887-1.75-1.322-2.578a64.78 64.78 0 00-.711-1.264 93.502 93.502 0 00-2.29-3.745c-.312-.563 1.562-.942 1.25-2.26-.156-.564-.625-1.13-.937-1.13-2.187-.754-3.75-2.072-5.156-3.954-.468-.754-.311-1.882.312-1.882 2.968.188 5.001 3.2 6.719 5.648.311-2.072 1.405-3.39 2.813-4.708-2.188-2.448-4.062-4.896-6.719-6.59-1.405-.943-4.844-.564-4.218 1.882 0 .188 1.25-.188 1.25.188-.116 1.341-.674 2.577-1.308 3.777-.211.4-.427.797-.613 1.208-.578 1.605-1.36 3.49-.892 5.183.625 1.506 2.5.376 3.564 1.223.244.199.422.471.5.85 1.406 7.72 6.927 12.553 9.895 18.452 1.016-2.54 3.073-5.084 4.635-7.225.262-.357.519-.713.774-1.07 1.571-2.061 2.665-4.322 3.405-6.925.148-.413.307-.804.474-1.174.66-2.247 2.691-2.813 4.253-3.755 1.251-.754.783-3.2.307-4.764-.176-.409-.39-.793-.599-1.176-1.059-1.908-2.012-3.805-.645-5.922-4.53-3.767-7.969 3.39-11.405 6.026 1.562.471 2.799 1.988 3.168 3.788a5.6 5.6 0 01.113 1.11c.215-.33.448-.693.697-1.07 1.745-2.64 4.224-6.039 5.865-4.392 1.777 1.813-2.308 3.336-4.613 5.076a6.272 6.272 0 00-.857.76c-.156.188-.313.376-.313.564.157 1.506 2.031 2.072 1.251 3.2-1.875 3.39-4.376 5.648-5.475 9.363l-.502 1.335c-.17.454-.343.923-.519 1.396zm-13.78 60.233c-3.945 9.588-11.132 15.424-16.287 24.462-1.406 2.824-2.188 5.836-1.875 9.039 9.22-3.767 13.907-14.875 18.57-24.49a239.374 239.374 0 00-.408-9.011zm46.341 33.82c-.286-4.083.339-8.604-2.472-11.992-5.47-7.344-11.406-13.746-16.095-21.465-2.344 12.429 7.187 22.219 13.82 30.409 1.463 1.095 3.066 2.013 4.747 3.048zM100.698 90.659c4.614-3.511 9.77-6.335 14.724-9.09 2.389-1.409 4.683-2.928 6.793-4.784 2.092-1.852 3.996-4.04 5.596-6.772 1.251-2.072.782-4.896-1.093-6.026-.938-.564-2.031-.564-2.969.188-6.718 6.214-12.656 13.556-18.662 20.875-1.465 1.806-2.916 3.69-4.389 5.61zm192.12 2.975c.152-.082.152-.082.307-.082-7.813-9.226-14.844-18.828-23.125-27.867-1.406-1.318-3.593-1.882-5.001-.376-1.251 1.506-1.719 3.578-.937 5.46 2.968 8.473 11.094 11.111 17.29 15.283a963.525 963.525 0 0111.466 7.582zM145.084 59.24c-4.146 4.37-8.208 8.891-10.864 14.723-1.094 2.828-2.031 6.407-1.251 9.23.312 1.13 2.813 1.13 3.75.377 4.531-3.766 7.656-9.227 10.368-14.806-.755-3.062-1.403-6.227-2.003-9.524zm103.087-.102c-.67 3.155-3.013 5.979-2.701 9.181.782 6.214 2.813 12.617 7.186 16.57 1.563 1.507 3.907.755 4.531-.941 2.344-5.836-.937-12.805-4.545-17.375-1.423-2.36-2.903-4.823-4.471-7.435zM140.138 93.81c1.763-1.288 3.299-2.844 4.7-4.558 1.402-1.713 2.668-3.584 3.889-5.507 2.444-3.846 4.71-7.894 7.522-11.284-7.501-5.272-13.75 4.33-16.407 11.854-1.094 2.269-2.968 7.73-.799 9.32.329 0 .66.099 1.095.174zm56.663 24.137c2.261-5.566 5.074-10.65 7.448-16.076.85-1.769 1.702-3.535 2.553-5.298 1.704-3.526 3.406-7.04 5.073-10.555-6.25 6.59-13.439 25.231-22.188 11.299-2.5-4.143-5.001-7.909-8.281-10.921 2.657 5.272 5.156 10.544 7.771 15.873 1.266 2.643 2.532 5.274 3.802 7.891a975.802 975.802 0 003.822 7.787zM10.824 50.013c12.128-2.174 24.222-5.233 36.033-9.46a202.98 202.98 0 003.535-1.303c8.435-3.37 16.842-6.089 25.044-10.043-10.457-4.942-21.528 1.977-31.491 5.808-2.41 1.113-4.821 2.215-7.23 3.313-7.23 3.29-14.466 6.532-21.75 9.81-1.434.652-2.807 1.279-4.141 1.875zm231.522 21.232c-2.189.276-4.22.652-6.408 1.218 1.719 4.143 3.634 8.05 5.722 11.887a180.29 180.29 0 003.264 5.724c1.794 1.972 2.888 7.623 5.7 5.74.782-2.214.928-4.355.656-6.438-.817-6.25-5.398-11.969-7.909-17.477-.206-.412-.396-.812-1.025-.654zm-84.011 2.288c-2.76 3.89-5.664 7.623-8.444 11.443a132.557 132.557 0 00-4.039 5.83c-1.162 3.31-5.849 6.325-3.35 9.713 3.594 4.708 6.875-3.2 9.498-6.299 1.601-2.442 3.087-4.97 4.578-7.578 1.015-1.713 2.01-3.46 2.996-5.22-.401-2.522-.782-5.013-1.239-7.889zm163.819-43.38a120.848 120.848 0 007.461 3.935c1.238.612 2.483 1.21 3.731 1.792 16.234 7.56 33.293 12.551 50.558 15.304-17.812-8.096-35.781-15.252-53.459-23.643a85.85 85.85 0 01-3.936 1.375c-.679.22-1.371.438-2.087.65-.724.205-1.479.4-2.268.588zm-88.513 43.773c-.359 2.68-2.078 5.126-1.453 7.574.625 2.024 1.346 4.462 2.209 6.957 2.322 6.411 6.54 18.274 12.01 13.566 2.187-1.882-.937-8.285-3.501-12.13-1.223-1.924-2.561-3.795-3.798-5.733-1.238-1.936-2.377-3.94-3.208-6.122-.685-1.275-1.392-2.53-2.259-4.112zm-46.56 117.461c3.545-2.368 7.295-6.134 7.92-10.654.652-4.709 1.139-9.514 1.251-14.309a79.622 79.622 0 00-.143-7.169 48.777 48.777 0 00-.677-6.344 61.871 61.871 0 00-1.37-6.07 43.02 43.02 0 00-2.442 6.152c-1.996 6.348-2.773 13.204-3.421 19.868-.252 3.04-.454 6.074-.686 9.051-.141 3.419-.242 6.552-.432 9.475zm-75.692-98.159c3.066-1.54 6.393-2.4 9.554-3.485 3.16-1.087 6.168-2.405 8.589-4.853 2.188-2.26 3.594-9.227 2.188-10.357-2.968-2.54-5.819-.14-8.624 3.477-2.804 3.62-5.565 8.455-8.357 10.789-1.031 1.294-2.042 2.66-3.35 4.43zm88.57 53.453c-1.209 3.358-1.678 7.124-2.143 10.849a69.83 69.83 0 00-.251 5.674c-.028 5.711.559 11.502 1.185 17.15.312 4.331 4.53 7.909 7.969 10.169a192.839 192.839 0 00-.819-13.872c-.218-2.301-.475-4.6-.772-6.893a222.38 222.38 0 00-3.741-20.335c-.23-1.136-.577-2.074-1.428-2.742zm79.335-51.62c-2.771-3.674-5.485-7.44-8.306-11.042-2.822-3.602-5.752-7.037-8.955-10.05-.626-.563-2.345-.38-2.345.374-.625 4.523-1.405 10.547 1.406 12.995 4.062 3.766 9.545 3.963 14.459 6.193 1.108.45 2.242.903 3.741 1.53zm-74.026 44.948c5.826 12.48 9.108 28.673 20.827 35.075-1.874-13.746-11.406-22.783-17.337-33.952-1.067-.302-2.133-.68-3.49-1.123zM87.438 85.696c.912-.985 1.833-1.947 2.762-2.895a175.015 175.015 0 012.93-2.998c8.745-9.978 21.247-16.38 26.559-29.937.782-2.072-1.406-3.2-2.968-2.824-1.874.564-3.593 1.506-4.687 3.39-5.938 11.299-13.907 19.395-20.512 29.37l-2.129 3.076a646.25 646.25 0 00-1.956 2.818zm221.337 2.8c-.587-.883-1.174-1.767-1.763-2.647a860.62 860.62 0 00-1.764-2.632c-7.434-11.134-14.935-21.678-23.529-32.035-1.406-1.506-2.813-3.954-5.063-3.373-.924.298-1.676 1.178-1.852 2.559-.19 1.073-.049 2.227.293 3.355.682 2.26 2.168 4.425 3.652 5.931 7.812 7.533 15.313 13.935 22.636 21.593 2.492 2.448 4.955 4.866 7.39 7.25zm-141.331 86.969c11.619-6.783 15.993-22.412 21.151-35.592-1.719.754-3.594 1.318-4.376 3.2-3.75 8.662-9.531 15.064-13.621 23.04-1.306 2.958-2.268 6.132-3.154 9.352zm8.524 6.214c11.688-6.783 14.97-25.802 14.188-40.112-2.345 6.59-5.47 12.804-8.281 19.207-1.719 3.954-3.125 7.908-4.236 12.277-.551 3.038-.957 6.016-1.671 8.628zM164.3 75.975c-.549-13.304 2.419-32.135-10.081-38.913 1.406 10.356 3.907 20.337 7.187 29.933.962 2.958 1.927 5.94 2.894 8.98zm63.096.566c5.572-11.988 9.948-25.169 12.292-38.727-7.969 3.766-11.093 14.686-10.365 24.267-.641 4.825-1.289 9.62-1.927 14.46zm-10.097 104.935a58.448 58.448 0 00-1.047-7.172c-2.656-11.648-8.438-21.627-12.345-32.737-1.874 10.168 1.875 19.959 4.374 29.375.939 3.012 3.752 5.082 5.933 7.504 1.022 1.079 2.057 2.062 3.085 3.03zM71.804 38.816c-3.339 1.266-6.619 2.995-9.862 4.347a140.84 140.84 0 00-4.804 2.481c-4.768 2.578-9.425 5.452-13.9 8.751a238.734 238.734 0 00-3.402 2.498c-6.764 5.056-13.365 10.486-19.995 15.57 7.344-3.859 15.234-6.685 22.72-10.354a93.021 93.021 0 003.24-1.664c5.61-3.788 12.342-6.473 17.794-10.935a29.185 29.185 0 003.813-3.721 27.223 27.223 0 003.15-4.603c.443-.81.88-1.592 1.246-2.37zm256.18 2.95c5.923 6.97 12.486 12.994 19.903 17.51a87.215 87.215 0 003.374 1.906c7.958 4.265 16.474 7.325 24.678 10.337-9.375-6.904-19.075-13.155-28.775-19.47a968.63 968.63 0 01-2.909-1.898c-3.94-3.111-8.316-4.805-12.486-6.81a330.51 330.51 0 00-3.785-1.575zM94.142 88.313c9.296-9.637 20.235-16.416 28.672-27.526 1.094-1.13.782-3.2.312-4.897a20.914 20.914 0 00-3.069 1.593c-4.9 3.302-8.649 8.01-12.245 13.129-.727 1.03-1.45 2.068-2.174 3.103a186.41 186.41 0 01-2.199 3.076 62.97 62.97 0 01-2.677 3.27 163.413 163.413 0 01-2.799 3.118c-1.29 1.676-2.552 3.403-3.822 5.134zm240.736 7.675c-2.078-3.952-4.243-7.952-6.554-11.84a136.44 136.44 0 00-2.371-3.852c-8.763-11.601-17.357-28.736-30.951-31.184 8.438 12.617 17.813 24.291 28.041 34.959a330.73 330.73 0 002.618 2.524c.874.836 1.75 1.668 2.626 2.498 2.23 2.314 4.35 4.52 6.591 6.895zm-34.647-5.528c-7.73-11.218-16.324-20.823-24.762-31.555-1.25-1.694-3.281-2.449-5.312-2.26.312 1.881-.469 3.954.312 5.272 5.937 9.792 14.687 14.31 22.046 21.547 2.559 2.314 5.139 4.652 7.716 6.996zm-236.5 3.84c4.285-4.73 8.742-9.3 13.036-14.04a183.494 183.494 0 002.7-3.097c6.782-9.974 15.69-17.882 21.471-28.615-11.25 3.766-19.374 15.44-25.927 26.528-.498.832-.98 1.644-1.456 2.454-.465.791-.927 1.582-1.385 2.364A631.996 631.996 0 0063.73 94.3zm115.641-14.583c5.941 6.303 9.535 19.296 17.504 18.541 7.812-.754 11.405-12.05 17.031-18.452-5.729 4.6-10 10.168-16.563 12.238-4.219 1.13-15.366-10.278-17.972-12.327zm-17.962 6.178c-1.253 9.351 1.09 18.766 2.498 27.992 2.031-4.518 2.813-12.238 8.28-12.05-1.562-5.46-5.938-8.473-8.625-12.971-.742-.99-1.436-1.999-2.153-2.971zm68.582 1.24c-4.524 3.591-6.867 9.805-10.305 14.512 5.312 1.13 5.938 8.472 9.063 12.616.156-6.966.625-14.122.935-21.046.092-2.085.195-4.099.307-6.082zm-33.273 37.673c-2.813 3.766-5.001 8.662-4.688 13.747.312 3.39 3.282 6.966 6.093 5.46 2.188-1.13 3.19-3.183 3.23-5.964.052-3.639-2.134-9.665-4.635-13.243zm-35.976-52.574c-.899-13.331-9.805-19.732-19.18-24.252 2.5 4.708 5.781 8.85 9.119 12.803 3.262 3.87 6.664 7.608 10.061 11.45zM50.54 93.375c6.925-6.063 14.622-11.553 20.95-18.656a61.181 61.181 0 002.702-3.273c2.996-3.879 5.496-8.587 8.62-12.541-5 1.882-9.53 4.896-13.433 9.131a45.423 45.423 0 00-2.369 2.87 66.16 66.16 0 00-2.133 2.977c-.453.726-.899 1.45-1.348 2.165-1.8 2.86-3.658 5.588-6.106 7.74a608.914 608.914 0 00-6.883 9.587zm180.768-21.421c7.6-7.023 14.632-15.12 21.037-23.594-5.313 3.012-10.782 5.648-15.553 9.63-1.758 4.75-3.622 9.348-5.484 13.964zm68.655-37.241c-5.274-8.572-13.555-17.798-23.243-16.104-.782 7.344 5.624 12.616 10.625 15.064 3.282 1.694 6.875 1.883 10.343 1.368.758-.09 1.512-.2 2.275-.328zm-242.86 8.332c-3.667-.333-7.417-1.463-10.658.914a100.17 100.17 0 00-3.65 1.592c-9.644 4.43-18.67 10.305-27.794 16.178 7.765-2.241 15.837-3.928 23.375-7.163a56.78 56.78 0 003.195-1.489c4.68-2.269 8.742-5.659 13.104-8.528a61.57 61.57 0 012.428-1.504zm290.359 51.084c-3.496-5.466-7.041-10.836-11-15.758a119.75 119.75 0 00-2.434-2.934c-.853-.716-1.731-1.627-2.638-2.64-5.919-6.736-11.7-15.21-20.295-16.904 6.407 7.154 11.094 16.192 17.964 22.81a65.536 65.536 0 002.517 2.278 74.182 74.182 0 005.246 4.103 997.59 997.59 0 0110.64 9.045zM93.852 32.943c2.148.307 4.49.33 6.844.028 2.357-.3 4.719-.94 6.912-1.962 4.386-2.044 8.096-5.622 9.737-11.082.311-1.13.156-3.2-1.094-3.578-1.094-.565-2.345-.189-3.437.375-1.874.943-3.555 2.166-5.232 3.417-3.852 2.889-8.156 5.36-11.277 9.676a103.64 103.64 0 00-2.453 3.126zm36.173 34.224c-.338 2.094.444 4.73 2.007 3.788 5.001-2.636 7.812-8.66 11.094-13.556-3.907-2.449-9.688-.755-11.265 4.43-1.405 1.743-2.308 3.526-1.836 5.338zm250.62-5.533c-10.332-6.12-20.801-11.768-31.738-16.288-2.187-.942-4.375 0-6.563.754 9.531 7.72 20.625 11.863 31.839 14.097 2.249.536 4.388 1.005 6.462 1.437zm-130.716-4.125c2.572 5.335 4.915 10.713 9.291 14.377 1.25 1.14 2.656-.93 2.813-2.813.472-5.084-1.876-9.635-5.18-12.582-2.307.335-4.599.663-6.924 1.018zm-175.19 3.455c-.833-.553-2.238.953-2.083-.553.157-2.072 1.562-3.2 2.656-4.519 3.125-3.766 7.187-6.214 9.375-10.92-2.656 3.39-5.938 5.836-9.127 8.753-.96.813-1.915 1.584-2.871 2.338-6.66 5.23-13.447 9.743-19.223 16.178a360.94 360.94 0 00-2.91 3.209 382.8 382.8 0 00-11.338 13.208c4.98-3.295 9.655-7.178 14.302-11.134.93-.79 1.858-1.584 2.787-2.377 3.19-2.794 6.476-5.398 9.838-7.876a216.91 216.91 0 015.105-3.64 112.274 112.274 0 003.49-2.667zm283.069 27.288c.162.026.162-.162.317-.162-4.166-5.493-8.713-10.527-13.447-15.307-.946-.957-1.897-1.901-2.865-2.867a881.573 881.573 0 00-7.429-7.496 514.179 514.179 0 00-2.507-2.476c-5.314-5.37-10.939-10.454-16.565-15.538 3.907 6.59 12.031 9.414 12.813 18.265-.782 0-1.562-.942-2.499-.376 2.813 3.012 5.938 5.272 8.908 7.88a475.305 475.305 0 004.204 3.347c.88.653 1.753 1.29 2.625 1.932 2.62 1.925 5.221 3.9 7.764 6.003 3.245 2.517 6.077 4.736 8.681 6.795zm-327.223-7.02c5.29-3.263 10.709-6.374 15.966-9.795a149.27 149.27 0 003.14-2.098c8.434-6.173 17.506-11.366 25.5-18.382a73.863 73.863 0 002.626-2.415 105.41 105.41 0 00-3.56 1.09c-10.64 3.475-20.962 8.94-29.267 17.836-.805.838-1.606 1.683-2.41 2.517-.805.836-1.612 1.664-2.423 2.474-1.251 1.318-2.5 2.26-3.946 3.28a2309.09 2309.09 0 01-5.626 5.493zm103.668-37.965c-1.735 2.734-4.947 5.62-7.138 8.628-2.192 3.008-3.364 6.163-1.019 9.458 2.656 3.578 6.875-3.038 8.261-7.034-.087-3.325-.116-6.828-.104-11.052zm194.128 9.017c.673.735 1.343 1.474 2.016 2.215.67.739 1.343 1.48 2.018 2.217 4.052 4.423 8.213 8.73 12.906 11.97a89.269 89.269 0 002.905 1.91c5.877 3.702 12.087 6.761 18.025 10.152-5.344-4.972-10.744-10.011-16.353-14.64a176.837 176.837 0 00-2.821-2.279c-5.202-4.17-10.202-8.312-16.121-10.255-.826-.4-1.686-.832-2.575-1.29zm-68.762-8.29c-.746 3.366-1.002 7.5-.27 11.071.731 3.572 2.452 6.562 5.678 7.623 4.142 1.573 3.815-5.22 2.538-8.34a883.089 883.089 0 01-7.946-10.355zm-93.118 27.735c2.718-4.728 5.062-9.894 5.844-15.512.625-4.413-5.001-4.46-7.032-7.73-.156 3.972.312 8.125.453 12.183.244 3.747.49 7.41.735 11.059zm56.417-.195c-1.493 4.2-2.679 8.55-3.686 12.976-.503 2.212-.96 4.447-1.388 6.691-1.437 7.058-2.374 14.214-3.937 21.18 2.5-7.72 4.688-15.44 7.327-23.228.602-1.847 1.21-3.697 1.816-5.55.606-1.855 1.213-3.713 1.815-5.58-.658-2.148-1.296-4.315-1.947-6.489zM81.233 82.517c9.237-10.996 19.237-20.788 28.611-31.52-13.281 1.317-19.843 17.888-27.272 29.237-.463.78-.91 1.542-1.34 2.283zM286.16 52.792c9.62 11.385 20.245 21.365 30.402 32.098-7.969-12.239-14.53-28.434-28.49-31.184a104.86 104.86 0 00-1.912-.914zm-57.53-4.246c-2.067 2.841-6.755 3.509-6.755 7.143 0 5.165 2.188 10.51 4.376 15.493.625-3.47.937-7.135 1.439-10.847.419-3.719.74-7.62.94-11.789zM123.222 97.669c4.123-1.293 8.967-.728 12.247-3.74 1.405-1.13 2.187-5.649.937-7.345-2.031-2.824-5.625.188-7.452 3.241a241.773 241.773 0 00-5.732 7.844zm143.169 2.227c-2.798-4.086-5.297-8.416-8.736-11.806-1.093-.942-3.906-1.132-4.218.186-.547 1.696-.742 4.19-.221 6.216.52 2.027 1.757 3.58 4.074 3.397 1.402.281 2.83.575 4.33.901 1.501.328 3.076.69 4.771 1.106zM158.875 87.494c-4.499 5.868-11.374 13.589-7.625 22.249 3.907-3.2 4.844-9.038 7.225-13.472 1.458-2.863.897-5.791.4-8.777zm11.27-15.53c-1.395 1.815-2.801 4.076-2.175 6.524.39 1.819.815 3.615 1.271 5.386.455 1.774.939 3.527 1.449 5.262 2.437 7.238 4.937 14.583 7.905 21.549-1.251-5.084-2.5-10.168-3.613-15.514-.461-2.416-.918-4.812-1.397-7.209-.479-2.396-.979-4.79-1.517-7.182-.637-2.98-1.278-5.912-1.923-8.816zm61.918 16.232c-2.061 8.745 3.095 17.029 7.782 23.055 2.813-6.214-2.344-11.862-4.696-17.21a716.803 716.803 0 00-3.086-5.845zm50.891-71.55c5.328 4.223 11.266 6.67 17.532 7.168a23.86 23.86 0 002.318.073c2.298-.043 4.52-.44 6.558-1.266-2.51-2.865-5.678-4.008-8.967-4.613-1.642-.303-3.325-.473-4.976-.66a71.046 71.046 0 01-2.448-.306c-2.032-.501-4.22-.69-6.246-.771-1.285-.044-2.55.034-3.771.376zm-171.96-1c-8.084-.769-17.31-.274-23.87 6.15 6.97 2.472 15.171 0 21.389-4.637.835-.525 1.66-1.04 2.481-1.513zm9.775 36.636c.002.527-.144 1.195.173 1.184 1.268.285 2.828-.255 3.591-1.264 2.914-3.412 7.71-7.098 6.896-10.456-.58-2.446-1.641-3.295-2.876-3.135-3.865 1.463-6.99 6.17-7.395 10.99-.131.885-.258 1.773-.389 2.68zm152.398.754c.021-.977-.039-1.96-.173-2.93-.65-4.76-3.306-9.278-7.054-10.972-.861-.283-1.605.185-2.347.819-.742.633-1.484 1.428-2.344 1.797 3.287 4.352 5.664 10.4 10.772 12.468.966.192 1.395.058 1.146-1.182zM19.883 32.15c4.362.195 8.849.406 13.334.296a74.038 74.038 0 006.71-.447c6.803-.815 13.774-2.546 20.13-5.51-6.765-1.482-13.738.741-20.465 1.85-2.027.432-4.027.864-6.03 1.272-2.003.409-4.008.791-6.032 1.145-2.618.502-5.16.962-7.647 1.394zm354.924 1.83c-6.309-1-12.55-2.68-18.816-4.081a140.38 140.38 0 00-6.277-1.277c-4.048-.895-8.354-1.143-12.684-1.163a37.844 37.844 0 004.953 2.593c8.422 3.658 17.616 4.155 26.55 4.004 2.177.028 4.252-.022 6.274-.076zm-88.054 7.703c.435.275.904.463 1.216.84-.782-8.095-8.126-12.804-13.75-16.946-1.406-1.13-3.282.188-4.844 1.13 4.218 5.272 8.749 10.545 14.213 13.617a20.6 20.6 0 003.165 1.36zm-18.798-12.415c-1.704 8.548 5.015 15.892 11.578 17.022-.312-7.154-5.469-11.11-9.606-15.125a388.355 388.355 0 00-1.972-1.897zM105.739 39.927c7.23-1.735 14.887-6.066 17.544-14.352.311-.942-2.345-1.882-3.594-1.318-5.938 3.012-10.937 8.472-15.189 14.54-.529 1.43-.242 1.724 1.239 1.13zm20.243-11.68c-4.107 4.86-11.919 8.627-10.982 16.91 5.938-.941 12.031-7.153 10.908-14.936-.044-.459.034-.968.074-1.973zm60.786 31.796c.095-.59.071-1.104-.042-1.547a2.751 2.751 0 00-.582-1.121c-.986-1.297-2.548-1.297-3.799-.542-1.251.942-2.031 2.26-2.325 3.967-.053.406-.07.803-.049 1.17a3.5 3.5 0 00.186.99c.469 1.541 3.125-.317 4.871-.244 1.875-.341 1.875-.341 1.74-2.673zm20.733 1.435c.449.679 5.001 3.265 5.938 1.005.937-2.072-1.406-4.518-3.282-5.084-1.094-.376-2.968-.376-2.668 1.77-.013.287-.352 1.76.012 2.31zm-75.891 40.119c2.474.259 5.161-.272 7.532-1.182 1.103-.553 1.036-3.64.242-4.408-.63-.57-1.571-.76-2.252-.07-1.845 1.764-3.672 3.67-5.522 5.66zm125.992 3.111c-2.133-2.117-5.102-8.707-7.759-5.695-.468.754-1.25 3.766.505 4.373 2.38.335 4.798.791 7.254 1.322zm-26.741 8.179c3.672-2.764 2.889-8.414.547-11.802-.157 1.882-.312 3.954-.319 5.858-.08 1.912-.155 3.852-.228 5.944zm-71.252-12.232c-3.359 3.252-1.328 9.278 1.797 11.538a308.99 308.99 0 00-.982-6.056 254.667 254.667 0 01-.815-5.482zm91.281 10.034c-2.127-5.756-3.043-6.471-5.919-4.889 1.84 1.516 3.684 3.04 5.919 4.889zm-111.91-3.245a257.21 257.21 0 015.889-4.242c-3.673-1.419-4.14-1.091-5.889 4.242z" fill="#000"/></svg>